<svg width="3000" height="3000" viewBox="0 0 3000 3000" fill="none" xmlns="http://www.w3.org/2000/svg">
<circle cx="1500" cy="1500" r="1500" fill="white"/>
<path d="M1337 1226L1244 1725.5L1723 1623.5L1618.5 1512L1913.5 1226L2036 1176L2168 1203L2238 1267L2456 1482.5L2624 1312L2349.5 1021.5L2168 915L1991 903.5L1863.5 962.5L1743.5 1035L1636.5 1135L1430 962.5L1300.5 915L1150.5 903.5L1062 935.5L858 1069.5L617 1328L497 1203L385.5 1725.5L869 1632.5L774 1512L1094 1203L1180 1176H1244L1300.5 1203L1337 1226Z" fill="#F4CDE2" stroke="black"/>
<path fill-rule="evenodd" clip-rule="evenodd" d="M341.422 1981.82C322.954 1990.99 325.699 2017.54 345.534 2021.59C349.509 2022.4 512.028 2023.01 842.833 2023.45C1113.1 2023.8 1348.49 2024.35 1365.91 2024.66C1396.05 2025.2 2300.97 2027 2542.33 2027H2656.47L2661.17 2023.5C2667.18 2019.03 2670 2013.47 2670 2006.11C2670 1994.85 2662.61 1986.65 2651.07 1985.13C2648.34 1984.77 2463.49 1984.19 2240.31 1983.85C2017.12 1983.51 1756.72 1982.97 1661.64 1982.65C1566.56 1982.33 1343.43 1981.8 1165.8 1981.48C988.167 1981.16 731.018 1980.6 594.356 1980.25C352.047 1979.62 345.768 1979.66 341.422 1981.82Z" fill="#F4CDE2"/>
<path fill-rule="evenodd" clip-rule="evenodd" d="M1206.38 883.625C1194.64 884.253 1166.66 887.488 1156.9 889.346C1123.45 895.716 1077.91 911.238 1043.5 927.998C1028.65 935.233 986.406 959.366 972.616 968.493C955.006 980.148 911.665 1011.14 898.421 1021.54C873.724 1040.94 838.765 1070.11 826.712 1081.38C819.681 1087.95 807.924 1098.84 800.586 1105.57C769.137 1134.44 676.735 1230.59 643.361 1269.18C629.299 1285.43 618.769 1297.16 618.232 1297.16C618.013 1297.16 596.865 1273.13 571.238 1243.76C511.554 1175.37 513.476 1177.43 507.808 1175.83C499.634 1173.52 491.609 1176.6 486.206 1184.14C483.454 1187.98 480.448 1200.94 466.618 1268.57C464.78 1277.55 460.027 1300.66 456.057 1319.92C452.087 1339.18 440.822 1394.06 431.023 1441.89C421.224 1489.71 410.229 1543.28 406.591 1560.93C402.953 1578.59 396.906 1608 393.155 1626.29C389.403 1644.59 383.316 1674.2 379.626 1692.09C374.847 1715.27 373.13 1725.79 373.651 1728.71C375.39 1738.44 384.4 1746.51 393.529 1746.51C395.809 1746.51 407.032 1744.63 418.47 1742.34C429.908 1740.05 445.77 1736.93 453.719 1735.41C461.668 1733.89 479.178 1730.49 492.63 1727.84C520.392 1722.39 547.845 1717.04 599.915 1706.94C619.787 1703.09 650.805 1697.06 668.843 1693.54C686.882 1690.03 719.651 1683.68 741.663 1679.43C822.373 1663.86 887.287 1650.57 890.039 1649.07C896.612 1645.48 900.088 1638.96 900.088 1630.25C900.088 1621.13 904.052 1626.27 840.766 1553.35C821.825 1531.52 805.391 1512.56 804.246 1511.21C802.17 1508.75 802.219 1508.69 820.831 1491.38C831.097 1481.83 845.501 1467.94 852.839 1460.52C860.176 1453.1 874.184 1439.35 883.968 1429.98C893.751 1420.6 907.009 1407.31 913.429 1400.44C919.85 1393.57 933.608 1379.95 944.002 1370.17C954.397 1360.39 968.177 1347.18 974.625 1340.82C990.081 1325.57 996.752 1319.56 1021.27 1298.77C1053.44 1271.49 1063.12 1263.98 1094.65 1241.78C1125.03 1220.39 1144.62 1209.11 1161.61 1203.22C1172.5 1199.45 1192.72 1197.91 1214.28 1199.22C1248.75 1201.3 1271.15 1207.89 1302.3 1225.11C1311.82 1230.38 1314.72 1232.51 1314.32 1233.97C1314.03 1235.02 1311.54 1246.92 1308.78 1260.4C1306.02 1273.88 1300.51 1300.66 1296.54 1319.92C1292.57 1339.18 1281.31 1394.06 1271.51 1441.89C1261.71 1489.71 1250.72 1543.28 1247.08 1560.93C1243.44 1578.59 1237.39 1608 1233.64 1626.29C1229.89 1644.59 1223.8 1674.2 1220.11 1692.09C1215.33 1715.27 1213.62 1725.79 1214.14 1728.71C1215.88 1738.44 1224.89 1746.51 1234.01 1746.51C1236.29 1746.51 1247.52 1744.63 1258.96 1742.34C1270.39 1740.05 1286.26 1736.93 1294.2 1735.41C1302.15 1733.89 1319.66 1730.49 1333.12 1727.84C1360.88 1722.39 1388.33 1717.04 1440.4 1706.94C1460.27 1703.09 1491.29 1697.06 1509.33 1693.54C1527.37 1690.03 1560.14 1683.68 1582.15 1679.43C1662.86 1663.86 1727.77 1650.57 1730.53 1649.07C1737.1 1645.48 1740.57 1638.96 1740.57 1630.25C1740.57 1621.13 1744.54 1626.27 1681.25 1553.35C1662.31 1531.52 1645.88 1512.56 1644.73 1511.21C1642.66 1508.75 1642.71 1508.69 1661.32 1491.38C1671.58 1481.83 1685.99 1467.94 1693.32 1460.52C1700.66 1453.1 1714.67 1439.35 1724.45 1429.98C1734.24 1420.6 1747.49 1407.31 1753.92 1400.44C1760.34 1393.57 1774.09 1379.95 1784.49 1370.17C1794.88 1360.39 1808.66 1347.18 1815.11 1340.82C1830.57 1325.57 1837.24 1319.56 1861.76 1298.77C1893.93 1271.49 1903.6 1263.98 1935.13 1241.78C1965.52 1220.39 1985.11 1209.11 2002.1 1203.22C2012.99 1199.45 2033.2 1197.91 2054.77 1199.22C2089.91 1201.34 2113.28 1208.39 2145.33 1226.55C2162.27 1236.14 2168.84 1240.57 2182.5 1251.59C2188.61 1256.52 2203.37 1268.36 2215.29 1277.89C2243.76 1300.65 2251.34 1307.46 2280.39 1336.43C2329.88 1385.78 2412.04 1471.97 2426.33 1489.51C2429.59 1493.51 2434.19 1497.82 2436.57 1499.1C2441.62 1501.8 2449.47 1502.1 2454.73 1499.8C2457.93 1498.4 2488.81 1469.88 2608.3 1358.01C2622.97 1344.27 2636.21 1331.13 2637.73 1328.81C2639.84 1325.57 2640.47 1323.1 2640.46 1318.17C2640.45 1312.65 2639.65 1310.26 2634.81 1301.1C2631.71 1295.25 2624.2 1284.22 2618.12 1276.59C2612.05 1268.97 2603.11 1257.52 2598.28 1251.16C2593.44 1244.8 2584.71 1234.11 2578.88 1227.41C2573.05 1220.71 2563.52 1209.59 2557.71 1202.71C2551.9 1195.83 2534.94 1176.05 2520.02 1158.77C2475.05 1106.67 2464.08 1093.91 2456.14 1084.48C2444.13 1070.23 2415.76 1044.37 2393.17 1027.1C2322.06 972.711 2301.52 960.381 2206.4 914.957C2178.87 901.813 2150.27 893.224 2117.1 888.144C2079.78 882.427 2050.71 882.085 2013.27 886.923C1975.9 891.752 1925.58 907.738 1883.99 927.998C1869.14 935.233 1826.89 959.366 1813.1 968.493C1761.33 1002.76 1701.6 1049.42 1660.13 1088C1648.6 1098.72 1638.55 1107.87 1637.81 1108.32C1636.94 1108.85 1631.46 1103.2 1622.64 1092.7C1604.49 1071.1 1579.19 1047.37 1552.69 1027.1C1481.57 972.711 1461.03 960.381 1365.91 914.957C1338.39 901.813 1309.79 893.224 1276.62 888.144C1259.18 885.474 1224.52 882.547 1216.38 883.059C1214.55 883.173 1210.05 883.429 1206.38 883.625ZM1245.4 927.205C1262.87 928.66 1290.14 933.206 1304.8 937.107C1328.02 943.288 1344.6 950.524 1400.38 978.84C1408.63 983.03 1419.8 988.598 1425.2 991.213C1446.97 1001.76 1490.05 1031.07 1531.01 1063.19C1558.56 1084.8 1573.66 1099.14 1594.73 1123.75L1607.65 1138.84L1587.12 1159.32C1552.92 1193.43 1507.69 1241.68 1479.21 1274.42C1470.29 1284.68 1462.17 1293.79 1461.16 1294.67C1458.29 1297.15 1457.03 1295.83 1400.22 1230.63C1353.31 1176.82 1353.87 1177.4 1348.19 1175.8C1340.18 1173.53 1332.66 1176.37 1326.96 1183.82L1323.49 1188.36L1308.85 1181.03C1285.05 1169.12 1266.11 1163.03 1239.17 1158.65C1220.95 1155.68 1178.28 1155.7 1164.13 1158.68C1147.42 1162.2 1121.3 1173.67 1101.94 1186C1091.97 1192.35 1041.77 1227.83 1034.05 1233.98C1005.43 1256.8 966.28 1290.87 947.338 1309.43C938.777 1317.82 926.52 1329.6 920.1 1335.6C913.679 1341.6 899.171 1356.05 887.859 1367.71C876.547 1379.37 861.788 1394.06 855.062 1400.35C839.652 1414.77 750.557 1509.44 750.557 1511.4C750.557 1512.2 760.339 1524.06 772.292 1537.77C829.214 1603.02 840.271 1615.95 839.684 1616.57C839.336 1616.93 832.399 1618.49 824.267 1620.04C803.143 1624.05 678.398 1648.36 599.915 1663.76C586.768 1666.34 573.51 1668.92 570.453 1669.49C555.341 1672.32 427.937 1697.16 423.424 1698.15C421.436 1698.59 419.811 1698.72 419.811 1698.45C419.811 1698.17 421.338 1690.62 423.206 1681.67C425.074 1672.72 437.85 1610.51 451.598 1543.43C465.347 1476.35 477.797 1415.68 479.266 1408.62C483.143 1389.98 492.876 1342.66 503.152 1292.49C508.083 1268.42 512.499 1246.91 512.966 1244.69L513.814 1240.66L563.714 1298.04C595.702 1334.83 614.094 1355.13 614.952 1354.6C617.609 1352.95 694.3 1274.05 712.691 1254.04C723.049 1242.77 738.808 1226.21 747.711 1217.23C756.614 1208.25 774.655 1189.84 787.801 1176.3C808.098 1155.41 825.611 1138.67 862.141 1105.28C870.244 1097.87 918.966 1058.19 931.217 1049.02C943.195 1040.06 982.131 1012.35 992.804 1005.19C1002.22 998.876 1045.99 973.728 1057.4 968.079C1068.15 962.756 1097.58 950.338 1109.65 946.029C1154.15 930.15 1201.67 923.561 1245.4 927.205ZM2085.89 927.205C2103.36 928.66 2130.63 933.206 2145.28 937.107C2168.51 943.288 2185.08 950.524 2240.86 978.84C2249.12 983.03 2260.29 988.598 2265.68 991.213C2296 1005.9 2367.72 1057.38 2402.07 1089.08C2415.92 1101.87 2423.46 1109.84 2440.52 1129.71C2456.1 1147.84 2491.93 1189.62 2511.58 1212.54C2521.97 1224.67 2536.48 1241.48 2543.82 1249.91C2551.15 1258.33 2561.16 1270.44 2566.04 1276.81C2570.93 1283.19 2579.37 1294.11 2584.79 1301.08C2594.34 1313.36 2594.58 1313.82 2592.58 1315.82C2591.44 1316.96 2569.49 1337.52 2543.81 1361.51C2518.12 1385.49 2486.45 1415.1 2473.41 1427.3C2460.38 1439.49 2449.27 1449.64 2448.73 1449.85C2448.19 1450.05 2423.3 1424.58 2393.42 1393.24C2340.26 1337.46 2293.63 1290.24 2275.88 1274.19C2261.75 1261.41 2202.16 1213.3 2189.17 1204.19C2172.87 1192.75 2142.41 1176.57 2125.13 1170.17C2112.81 1165.61 2095.55 1161.23 2079.66 1158.65C2061.44 1155.68 2018.77 1155.7 2004.62 1158.68C1987.91 1162.2 1961.79 1173.67 1942.43 1186C1932.45 1192.35 1882.26 1227.83 1874.54 1233.98C1845.92 1256.8 1806.77 1290.87 1787.82 1309.43C1779.26 1317.82 1767.01 1329.6 1760.59 1335.6C1754.17 1341.6 1739.66 1356.05 1728.34 1367.71C1717.03 1379.37 1702.27 1394.06 1695.55 1400.35C1680.14 1414.77 1591.04 1509.44 1591.04 1511.4C1591.04 1512.2 1600.82 1524.06 1612.78 1537.77C1669.7 1603.02 1680.76 1615.95 1680.17 1616.57C1679.82 1616.93 1672.89 1618.49 1664.75 1620.04C1643.63 1624.05 1518.88 1648.36 1440.4 1663.76C1427.25 1666.34 1414 1668.92 1410.94 1669.49C1395.83 1672.32 1268.42 1697.16 1263.91 1698.15C1261.92 1698.59 1260.3 1698.72 1260.3 1698.45C1260.3 1698.17 1261.82 1690.62 1263.69 1681.67C1265.56 1672.72 1278.34 1610.51 1292.08 1543.43C1305.83 1476.35 1318.28 1415.68 1319.75 1408.62C1323.63 1389.98 1333.36 1342.66 1343.64 1292.49C1348.57 1268.42 1352.98 1246.91 1353.45 1244.69L1354.3 1240.66L1404.2 1298.04C1436.19 1334.83 1454.58 1355.13 1455.44 1354.6C1458.1 1352.95 1534.79 1274.05 1553.18 1254.04C1563.54 1242.77 1579.29 1226.21 1588.2 1217.23C1597.1 1208.25 1615.14 1189.84 1628.29 1176.3C1648.58 1155.41 1666.1 1138.67 1702.63 1105.28C1710.73 1097.87 1759.45 1058.19 1771.7 1049.02C1783.68 1040.06 1822.62 1012.35 1833.29 1005.19C1842.7 998.876 1886.48 973.728 1897.89 968.079C1908.64 962.756 1938.07 950.338 1950.14 946.029C1994.64 930.15 2042.15 923.561 2085.89 927.205Z" fill="#6F8BF5"/>
</svg>
