<svg width="3000" height="3000" viewBox="0 0 3000 3000" fill="none" xmlns="http://www.w3.org/2000/svg">
<circle cx="1500" cy="1500" r="1500" fill="white"/>
<path fill-rule="evenodd" clip-rule="evenodd" d="M1469.51 584.426C1467.7 585.215 1459.18 591.475 1450.58 598.339C1383.73 651.694 1301.59 699.637 1210.16 738.678C1186.52 748.772 1186.15 748.918 1155.71 760.394C1070.08 792.669 972.284 816.716 889.617 825.823C854.92 829.646 847.528 830.121 812.84 830.763C771.911 831.52 744.378 830.082 738.056 826.856C728.142 821.8 717.693 826.825 714.373 838.247C713.476 841.33 712.994 844.509 713.301 845.309C713.608 846.11 713.208 856.142 712.411 867.602C707.756 934.542 707.068 1032.9 710.767 1102.47C717.067 1220.97 732.434 1334.44 757.77 1449.54C818.739 1726.53 933.217 1977.06 1085.77 2167.36C1173.58 2276.9 1272.16 2363.58 1377.62 2423.99C1411.2 2443.22 1467.89 2469.73 1475.44 2469.73C1482.98 2469.73 1539.38 2443.34 1573.25 2423.97C1667.33 2370.14 1756.31 2295.02 1836.69 2201.54C1955.71 2063.12 2053.98 1888.51 2124.37 1690.36C2167.19 1569.85 2199.25 1440.75 2219.47 1307.44C2229.02 1244.44 2236.51 1170.05 2240.11 1102.47C2243.8 1032.9 2243.12 934.542 2238.46 867.602C2237.66 856.142 2237.26 846.11 2237.57 845.309C2237.88 844.509 2237.4 841.33 2236.5 838.247C2233.18 826.825 2222.73 821.8 2212.82 826.856C2206.49 830.082 2178.96 831.52 2138.03 830.763C2119.23 830.414 2098.64 829.644 2092.28 829.048C2012.24 821.562 1950.16 809.398 1868.79 785.247C1850.6 779.851 1814.05 767.511 1795.16 760.394C1764.72 748.918 1764.35 748.772 1740.71 738.678C1649.27 699.635 1567.15 651.694 1500.29 598.333C1480.6 582.623 1477.19 581.083 1469.51 584.426ZM1486.83 628.488C1523.57 657.202 1567.9 686.49 1611.64 710.953C1733.79 779.275 1874.14 828.713 2009.19 850.993C2069.25 860.901 2135.52 865.382 2183.11 862.749C2195.47 862.067 2205.74 861.67 2205.94 861.87C2207.18 863.103 2209.77 931.287 2210.27 975.734C2212.44 1166.68 2188.03 1357.22 2137.9 1540.52C2131.27 1564.75 2130.13 1568.67 2120.75 1599.42C2098.44 1672.54 2072.01 1743.24 2039.77 1816.07C2031.49 1834.77 2019.08 1860.68 2005.5 1887.59C1908.25 2080.41 1784.39 2234.98 1642.78 2340.22C1602.73 2369.99 1564.95 2393.39 1522.76 2414.56C1492.2 2429.9 1479.72 2435.39 1475.44 2435.39C1466.89 2435.39 1404.61 2403.85 1367.11 2380.53C1230.03 2295.28 1104.68 2161.55 1002.68 1991.71C970.596 1938.3 934.951 1869.93 911.105 1816.07C878.858 1743.24 852.428 1672.54 830.123 1599.42C820.743 1568.67 819.602 1564.75 812.976 1540.52C762.847 1357.22 738.428 1166.68 740.597 975.734C741.102 931.287 743.695 863.103 744.929 861.87C745.128 861.67 755.402 862.067 767.759 862.749C792.652 864.126 823.997 863.531 858.065 861.035C1023.45 848.916 1216.93 785.537 1369.21 693.603C1400.52 674.699 1452.28 638.782 1471.75 622.443C1473.49 620.988 1475.07 619.779 1475.26 619.758C1475.45 619.737 1480.66 623.666 1486.83 628.488Z" fill="#F4CDE2"/>
<path d="M1486.83 628.488C1523.57 657.202 1567.9 686.49 1611.64 710.953C1733.79 779.275 1874.14 828.713 2009.19 850.993C2069.25 860.901 2135.52 865.382 2183.11 862.749C2195.47 862.067 2205.74 861.67 2205.94 861.87C2207.18 863.103 2209.77 931.287 2210.27 975.734C2212.44 1166.68 2188.03 1357.22 2137.9 1540.52C2131.27 1564.75 2130.13 1568.67 2120.75 1599.42C2098.44 1672.54 2072.01 1743.24 2039.77 1816.07C2031.49 1834.77 2019.08 1860.68 2005.5 1887.59C1908.25 2080.41 1784.39 2234.98 1642.78 2340.22C1602.73 2369.99 1564.95 2393.39 1522.76 2414.56C1492.2 2429.9 1479.72 2435.39 1475.44 2435.39C1466.89 2435.39 1404.61 2403.85 1367.11 2380.53C1230.03 2295.28 1104.68 2161.55 1002.68 1991.71C970.596 1938.3 934.951 1869.93 911.105 1816.07C878.858 1743.24 852.428 1672.54 830.123 1599.42C820.743 1568.67 819.602 1564.75 812.976 1540.52C762.847 1357.22 738.428 1166.68 740.597 975.734C741.102 931.287 743.695 863.103 744.929 861.87C745.128 861.67 755.402 862.067 767.759 862.749C792.652 864.126 823.997 863.531 858.065 861.035C1023.45 848.916 1216.93 785.537 1369.21 693.603C1400.52 674.699 1452.28 638.782 1471.75 622.443C1473.49 620.988 1475.07 619.779 1475.26 619.758C1475.45 619.737 1480.66 623.666 1486.83 628.488Z" fill="#F4CDE2"/>
<path fill-rule="evenodd" clip-rule="evenodd" d="M1463.06 421.466C1461.17 422.287 1452.89 428.341 1444.65 434.918C1350.69 509.985 1236.38 573.743 1106.22 623.688C967.499 676.917 827.156 707.419 698.479 712.309C656.531 713.903 604.475 711.747 597.304 708.119C589.148 703.992 581.41 704.537 575.314 709.666C571.445 712.921 567.76 720.623 567.628 725.731C567.573 727.875 566.893 740.513 566.118 753.818C562.349 818.475 562 831.709 562 910.001C562 989.053 562.486 1006.96 566.241 1066.18C582.937 1329.54 644.796 1598.91 742.434 1833.43C781.777 1927.93 827.469 2018.94 876.287 2100.04C1031.84 2358.48 1231.47 2546.96 1447.25 2639.11C1455.17 2642.49 1463.57 2645.78 1465.92 2646.41C1471.38 2647.88 1474.59 2647.01 1493.11 2639.11C1652.16 2571.18 1802.88 2450.86 1934.52 2286.73C2027.1 2171.3 2109.61 2033.67 2176.64 1882.86C2274.63 1662.41 2339.28 1416.77 2365.69 1164.52C2372.32 1101.19 2375.56 1054.37 2377.93 987.304C2379.31 948.184 2378.65 833.856 2376.84 800.62C2376.23 789.34 2375.08 768.753 2374.28 754.87C2373.48 740.987 2372.79 727.875 2372.73 725.731C2372.59 720.621 2368.91 712.92 2365.04 709.666C2358.94 704.537 2351.21 703.992 2343.05 708.119C2335.88 711.747 2283.82 713.903 2241.88 712.309C2113.2 707.419 1972.85 676.917 1834.14 623.688C1703.97 573.741 1589.66 509.985 1495.69 434.912C1487.46 428.332 1479.07 422.259 1477.06 421.419C1472.49 419.511 1467.52 419.528 1463.06 421.466ZM1484.19 473.921C1622.11 582.5 1825.16 675.695 2020.76 720.183C2084.65 734.715 2143.44 743.663 2207.97 748.682C2233.54 750.671 2304.21 751.145 2324.36 749.465L2335.57 748.53L2336.19 754.855C2339.09 784.061 2340.38 830.106 2340.44 905.794C2340.5 995.224 2339.22 1029.97 2333.08 1106.15C2304.13 1465.07 2194.03 1816.21 2023.09 2094.79C1967.36 2185.62 1903.89 2270.07 1837.76 2341.42C1820.64 2359.89 1779.15 2401.38 1762.56 2416.62C1688.93 2484.26 1607.11 2541.62 1527.12 2581.67C1507.14 2591.67 1475.79 2606.06 1471.8 2607.06C1468.73 2607.84 1449.8 2599.71 1417.59 2583.78C1335.31 2543.09 1253.02 2485.73 1177.79 2416.62C1161.21 2401.38 1119.72 2359.89 1102.6 2341.42C908.339 2131.85 755.961 1834.17 672.437 1501.08C640.14 1372.28 617.84 1237.12 607.276 1106.15C601.133 1029.97 599.856 995.224 599.918 905.794C599.971 830.106 601.265 784.061 604.16 754.855L604.787 748.53L615.997 749.465C636.14 751.145 706.818 750.671 732.382 748.682C866.589 738.245 998.97 706.76 1135.2 652.88C1256.5 604.904 1373.87 539.413 1456.5 473.591C1463.74 467.832 1469.81 463.095 1469.99 463.066C1470.18 463.036 1476.57 467.92 1484.19 473.921ZM1469.51 584.427C1467.7 585.216 1459.18 591.476 1450.58 598.339C1383.73 651.695 1301.59 699.638 1210.16 738.678C1186.52 748.773 1186.15 748.919 1155.71 760.394C1070.08 792.669 972.284 816.716 889.617 825.823C854.92 829.646 847.528 830.122 812.84 830.763C771.911 831.52 744.378 830.083 738.056 826.857C728.142 821.8 717.693 826.825 714.373 838.247C713.476 841.331 712.994 844.509 713.301 845.31C713.608 846.11 713.208 856.143 712.411 867.602C707.756 934.543 707.067 1032.9 710.766 1102.47C717.067 1220.97 732.434 1334.44 757.77 1449.54C818.739 1726.53 933.217 1977.06 1085.77 2167.36C1173.58 2276.9 1272.16 2363.58 1377.62 2423.99C1411.2 2443.22 1467.89 2469.73 1475.44 2469.73C1482.98 2469.73 1539.38 2443.34 1573.25 2423.97C1667.33 2370.14 1756.31 2295.02 1836.69 2201.54C1955.71 2063.12 2053.98 1888.51 2124.37 1690.36C2167.19 1569.85 2199.25 1440.76 2219.47 1307.44C2229.02 1244.44 2236.51 1170.05 2240.11 1102.47C2243.8 1032.9 2243.12 934.543 2238.46 867.602C2237.66 856.143 2237.26 846.11 2237.57 845.31C2237.88 844.509 2237.4 841.331 2236.5 838.247C2233.18 826.825 2222.73 821.8 2212.82 826.857C2206.49 830.083 2178.96 831.52 2138.03 830.763C2119.23 830.415 2098.64 829.644 2092.28 829.049C2012.24 821.563 1950.16 809.398 1868.79 785.248C1850.6 779.852 1814.05 767.512 1795.16 760.394C1764.72 748.919 1764.35 748.773 1740.71 738.678C1649.27 699.635 1567.15 651.695 1500.29 598.334C1480.6 582.623 1477.19 581.083 1469.51 584.427ZM1486.83 628.488C1523.57 657.203 1567.9 686.491 1611.64 710.953C1733.79 779.275 1874.14 828.713 2009.19 850.993C2069.25 860.902 2135.52 865.382 2183.11 862.75C2195.47 862.067 2205.74 861.671 2205.94 861.87C2207.18 863.103 2209.77 931.287 2210.27 975.735C2212.44 1166.68 2188.03 1357.22 2137.9 1540.52C2131.27 1564.75 2130.13 1568.67 2120.75 1599.42C2098.44 1672.54 2072.01 1743.24 2039.77 1816.07C2031.49 1834.77 2019.08 1860.68 2005.5 1887.59C1908.25 2080.41 1784.39 2234.98 1642.78 2340.22C1602.73 2369.99 1564.95 2393.39 1522.76 2414.56C1492.2 2429.9 1479.72 2435.39 1475.44 2435.39C1466.89 2435.39 1404.61 2403.85 1367.11 2380.53C1230.03 2295.28 1104.68 2161.55 1002.68 1991.72C970.596 1938.3 934.951 1869.93 911.105 1816.07C878.858 1743.24 852.428 1672.54 830.123 1599.42C820.743 1568.67 819.602 1564.75 812.976 1540.52C762.847 1357.22 738.428 1166.68 740.597 975.735C741.102 931.287 743.695 863.103 744.929 861.87C745.128 861.671 755.402 862.067 767.759 862.75C792.652 864.126 823.997 863.531 858.065 861.035C1023.45 848.916 1216.93 785.537 1369.21 693.604C1400.52 674.7 1452.28 638.783 1471.75 622.444C1473.49 620.988 1475.07 619.78 1475.26 619.759C1475.45 619.738 1480.66 623.666 1486.83 628.488Z" fill="#6F8BF5"/>
<path d="M1646.5 2124L1786 2356.5L1831.5 2295.5L1910 2202.5L2037 2072L2290.5 1816L2510 1647L2623 1586.5L2496 1737.5C2432.17 1816 2290.5 1987.5 2234.5 2045.5C2178.5 2103.5 1934.5 2451 1819.5 2617.5H1743L1485.5 2180.5L1548 2124H1646.5Z" fill="#C4F7A5"/>
<path fill-rule="evenodd" clip-rule="evenodd" d="M2633.62 1555.6C2632.17 1556.05 2625.55 1559.14 2618.9 1562.47C2496.5 1623.79 2312.01 1767.19 2130.9 1941.79C2007.49 2060.76 1891 2188.07 1801.04 2302.32C1793.55 2311.82 1787.03 2319.63 1786.54 2319.67C1786.05 2319.72 1780.12 2310.05 1773.36 2298.19C1766.61 2286.34 1746 2250.13 1727.57 2217.74C1669.13 2115.04 1665.91 2109.46 1663.58 2106.9C1657.64 2100.39 1643.08 2097.83 1616.63 2098.64C1587.74 2099.52 1562.64 2105.98 1536.06 2119.37C1512.19 2131.4 1492.14 2147.43 1479.03 2164.97C1467.82 2179.98 1467.87 2184.39 1479.53 2204.16C1498.86 2236.93 1511.94 2259.1 1523.23 2278.21C1529.89 2289.49 1569.07 2355.99 1610.31 2425.98C1651.54 2495.97 1691.99 2564.6 1700.19 2578.48C1708.38 2592.37 1718.72 2609.89 1723.15 2617.43C1733.8 2635.53 1733.29 2635.24 1753.2 2634.36C1761.65 2633.98 1774.48 2633.41 1781.71 2633.1C1838.59 2630.62 1834.59 2631.65 1840.62 2617.91C1889.62 2506.29 2267.79 2024.86 2622.02 1623.13C2654.41 1586.4 2657.21 1582.86 2658.26 1577.26C2660.77 1563.9 2646.73 1551.57 2633.62 1555.6ZM2549.83 1648.49C2546.33 1652.39 2495.92 1710.86 2468.9 1742.35C2168.2 2092.84 1884.57 2457.5 1816.95 2580.59C1814.73 2584.64 1812.79 2588.1 1812.65 2588.29C1812.1 2589.04 1751.71 2591.49 1751.11 2590.79C1750.76 2590.39 1736.85 2566.86 1720.19 2538.52C1703.53 2510.17 1684.59 2477.99 1678.09 2467C1671.6 2456.01 1635.05 2394.01 1596.88 2329.22C1558.7 2264.43 1524.1 2205.71 1519.97 2198.72C1515.84 2191.74 1512.47 2185.29 1512.47 2184.4C1512.47 2181.91 1526.72 2168.92 1536.7 2162.32C1559.5 2147.24 1583.28 2139 1611.86 2136.29C1618.22 2135.68 1626.7 2135.54 1630.7 2135.97C1637.93 2136.75 1638 2136.78 1640.81 2141.48C1643.44 2145.87 1698.58 2242.64 1745.98 2326.06C1757.16 2345.73 1767.81 2363.27 1769.65 2365.03C1775.28 2370.42 1786.37 2372.4 1793.58 2369.31C1797.96 2367.43 1800.51 2364.57 1818.02 2341.84C1996.1 2110.77 2277.51 1837.18 2496.36 1682.35C2519.02 1666.32 2550.89 1645.07 2551.45 1645.63C2551.72 1645.9 2550.99 1647.19 2549.83 1648.49Z" fill="#6F8BF5"/>
</svg>
