<svg width="3000" height="3000" viewBox="0 0 3000 3000" fill="none" xmlns="http://www.w3.org/2000/svg">
<circle cx="1500" cy="1500" r="1500" fill="white"/>
<path fill-rule="evenodd" clip-rule="evenodd" d="M1500 3000C2328.43 3000 3000 2328.43 3000 1500C3000 1459.95 2998.43 1420.26 2995.35 1381H1820.89C1933.89 1470.31 2006 1606.03 2006 1758C2006 2026.96 1780.13 2245 1501.5 2245C1222.87 2245 997 2026.96 997 1758C997 1606.03 1069.11 1470.31 1182.11 1381H4.65127C1.56981 1420.26 0 1459.95 0 1500C0 2328.43 671.573 3000 1500 3000ZM778 1622C778 1672.81 736.81 1714 686 1714C635.19 1714 594 1672.81 594 1622C594 1571.19 635.19 1530 686 1530C736.81 1530 778 1571.19 778 1622ZM283 1977C333.81 1977 375 1935.81 375 1885C375 1834.19 333.81 1793 283 1793C232.19 1793 191 1834.19 191 1885C191 1935.81 232.19 1977 283 1977ZM778 2283C778 2333.81 736.81 2375 686 2375C635.19 2375 594 2333.81 594 2283C594 2232.19 635.19 2191 686 2191C736.81 2191 778 2232.19 778 2283ZM2328 1714C2378.81 1714 2420 1672.81 2420 1622C2420 1571.19 2378.81 1530 2328 1530C2277.19 1530 2236 1571.19 2236 1622C2236 1672.81 2277.19 1714 2328 1714ZM2809 1885C2809 1935.81 2767.81 1977 2717 1977C2666.19 1977 2625 1935.81 2625 1885C2625 1834.19 2666.19 1793 2717 1793C2767.81 1793 2809 1834.19 2809 1885ZM2328 2375C2378.81 2375 2420 2333.81 2420 2283C2420 2232.19 2378.81 2191 2328 2191C2277.19 2191 2236 2232.19 2236 2283C2236 2333.81 2277.19 2375 2328 2375Z" fill="#F4CDE2"/>
<path fill-rule="evenodd" clip-rule="evenodd" d="M2995.99 1389.53L2652.25 1389.69C2315.03 1389.84 1882.84 1390.79 1882.17 1391.38C1881.99 1391.54 1884.88 1394.97 1888.58 1399.01C1928.51 1442.57 1964.59 1500.51 1986.91 1556.91C2035.11 1678.72 2037.41 1810.48 1993.46 1932.61C1951.13 2050.26 1868.23 2149.3 1760.5 2210.95C1663.29 2266.57 1551.82 2289.81 1442 2277.35C1225.07 2252.73 1046.45 2097.07 992.064 1885.27C979.987 1838.23 975.723 1804.26 975.624 1754.3C975.56 1722.13 976.414 1708.27 980.128 1681.21C992.247 1592.89 1026.92 1508.48 1080.67 1436.4C1089.96 1423.94 1103.78 1407.17 1112.16 1398.16C1114.82 1395.3 1117 1392.64 1117 1392.25C1117 1391.86 865.675 1391.87 558.5 1392.28L3.75732 1393C4.89521 1376.86 6.28861 1360.78 7.93352 1344.78L232.25 1344.78C620.799 1344.77 1170.29 1343.6 1174 1342.76C1186.32 1340.01 1198.29 1346.12 1202.58 1357.36C1204.57 1362.59 1204.13 1371.74 1201.64 1376.55C1200.77 1378.24 1195.66 1383.58 1190.28 1388.42C1176.07 1401.22 1145.67 1431.95 1136.88 1442.41C1089.76 1498.49 1055.8 1564.34 1038.08 1634.03C1029.94 1666.07 1025.58 1695.39 1023.78 1730.38C1016.93 1863.28 1066.37 1993.52 1159.95 2089.08C1197.61 2127.54 1238.03 2157.32 1284.5 2180.84C1339.09 2208.46 1390.61 2223.56 1454 2230.49C1472.78 2232.54 1522.11 2232.84 1541 2231.01C1600.61 2225.25 1654.82 2210.3 1706.82 2185.28C1751.09 2163.97 1795.34 2132.94 1830.7 2098.38C1860.7 2069.07 1882.4 2042.45 1903.07 2009.62C2002.14 1852.25 2001.4 1651.09 1901.18 1494.19C1880.92 1462.49 1863.14 1440.79 1832.32 1410.16C1807.21 1385.2 1805.04 1382.28 1805.04 1373.32C1805.04 1363.58 1810.45 1356.19 1823.05 1348.69C1829.5 1344.85 1831 1344.39 1839.33 1343.7C1844.37 1343.28 2107.59 1342.61 2424.25 1342.21L2991.72 1341.48C2993.4 1357.43 2994.82 1373.45 2995.99 1389.53ZM1431.8 1175.91C1440.6 1171.27 1466.42 1162.73 1476.82 1161.03C1486.21 1159.49 1513.58 1159.73 1520 1161.41C1534.52 1165.21 1546.74 1168.86 1548.91 1170.05C1550.34 1170.82 1555.33 1173.2 1560.01 1175.34C1574.27 1181.85 1583.19 1187.61 1602.32 1202.69C1664.15 1251.44 1733.08 1351.9 1791.47 1478.38C1814.85 1529.03 1830.58 1569.52 1846.52 1620.13C1852.76 1639.91 1860.81 1674.35 1864.92 1698.73C1871.86 1739.98 1872.2 1785.15 1865.86 1822.88C1859.13 1862.94 1845.14 1903.8 1826.26 1938.53C1809.34 1969.66 1795.56 1989.36 1772.35 2015.63C1749.53 2041.46 1725.98 2061.71 1696.28 2081.05C1648.01 2112.47 1598.88 2129.7 1534 2137.95C1520.55 2139.66 1477.99 2139.67 1464 2137.97C1417.45 2132.31 1383.2 2123.03 1346.36 2106.09C1315.51 2091.91 1288.68 2074.72 1261.57 2051.78C1190.95 1992.01 1142.66 1904.07 1130.6 1813.28C1123.88 1762.74 1128.05 1712.67 1144.4 1647.47C1170.37 1543.9 1237.66 1399.77 1306.74 1299.73C1330.36 1265.52 1360.77 1230.27 1383.94 1210.24C1399.41 1196.87 1419.78 1182.26 1431.8 1175.91ZM646.892 1517.98C654.568 1515.18 664.93 1512.52 671.5 1511.68C679.204 1510.69 696.595 1511.14 704.615 1512.54C747.49 1520.03 781.94 1549.8 794.915 1590.59C798.949 1603.27 800.361 1612.76 800.276 1626.64C799.979 1675.62 768.26 1719.14 721.777 1734.35C687.881 1745.44 652.197 1740.58 622.582 1720.84C606.283 1709.97 592.533 1694.6 584.139 1677.86C553.036 1615.82 582.152 1541.64 646.892 1517.98ZM2214.08 1590.59C2226.94 1550.18 2260.82 1520.64 2303.6 1512.53C2314.56 1510.46 2338.71 1511.16 2349 1513.85C2402.55 1527.88 2437.46 1572.27 2437.31 1626.14C2437.09 1703.85 2361.22 1758.56 2287.22 1734.35C2270.33 1728.82 2255.11 1719.44 2242.46 1706.78C2220.61 1684.91 2208.91 1657.11 2208.72 1626.64C2208.64 1612.76 2210.05 1603.27 2214.08 1590.59ZM744.815 1564.42C733.488 1553.56 719.851 1546.1 704.871 1542.56C697.871 1540.91 676.57 1540.65 669.075 1542.12C641.346 1547.57 616.54 1568.75 606.452 1595.6C588.415 1643.6 616.828 1696.8 666.657 1708.33C679.015 1711.19 699.551 1710.66 710.5 1707.21C748.514 1695.22 772.975 1660.02 770.665 1620.63C769.366 1598.48 760.706 1579.65 744.815 1564.42ZM2408 1625.77C2408 1588.29 2383.91 1555.74 2347.5 1544.01C2337.34 1540.74 2312.67 1540.16 2302.35 1542.96C2265.62 1552.9 2240.52 1583.35 2238.33 1620.63C2236.94 1644.49 2245.02 1666.72 2261.36 1683.95C2271.99 1695.16 2283.85 1702.59 2298.5 1707.21C2309.45 1710.66 2329.99 1711.19 2342.34 1708.33C2380.58 1699.48 2408 1665 2408 1625.77ZM248.892 1776.31C256.568 1773.5 266.93 1770.85 273.5 1770C281.204 1769.01 298.595 1769.47 306.615 1770.87C349.49 1778.35 383.94 1808.13 396.915 1848.92C400.949 1861.6 402.361 1871.09 402.276 1884.96C401.979 1933.94 370.26 1977.46 323.777 1992.67C289.881 2003.76 254.197 1998.9 224.582 1979.16C208.283 1968.3 194.533 1952.92 186.139 1936.18C155.036 1874.14 184.152 1799.96 248.892 1776.31ZM2612.08 1848.92C2624.94 1808.51 2658.82 1778.96 2701.6 1770.86C2712.56 1768.78 2736.71 1769.48 2747 1772.18C2800.55 1786.2 2835.46 1830.59 2835.31 1884.46C2835.09 1962.18 2759.22 2016.88 2685.22 1992.67C2668.33 1987.14 2653.11 1977.77 2640.46 1965.1C2618.61 1943.23 2606.91 1915.43 2606.72 1884.96C2606.64 1871.09 2608.05 1861.6 2612.08 1848.92ZM346.815 1822.74C335.488 1811.89 321.851 1804.42 306.871 1800.89C299.871 1799.24 278.57 1798.97 271.075 1800.44C243.346 1805.89 218.54 1827.07 208.452 1853.92C190.415 1901.92 218.828 1955.12 268.657 1966.65C281.015 1969.51 301.551 1968.99 312.5 1965.53C350.514 1953.54 374.975 1918.34 372.665 1878.95C371.366 1856.81 362.706 1837.98 346.815 1822.74ZM2806 1884.09C2806 1846.61 2781.91 1814.06 2745.5 1802.34C2735.34 1799.06 2710.67 1798.49 2700.35 1801.28C2663.62 1811.22 2638.52 1841.68 2636.33 1878.95C2634.94 1902.82 2643.02 1925.05 2659.36 1942.28C2669.99 1953.48 2681.85 1960.91 2696.5 1965.53C2707.45 1968.99 2727.99 1969.51 2740.34 1966.65C2778.58 1957.81 2806 1923.32 2806 1884.09ZM646.892 2174.81C654.568 2172 664.93 2169.35 671.5 2168.5C679.204 2167.51 696.595 2167.97 704.615 2169.37C747.49 2176.85 781.94 2206.63 794.915 2247.42C798.949 2260.1 800.361 2269.59 800.276 2283.46C799.979 2332.44 768.26 2375.96 721.777 2391.17C687.881 2402.26 652.197 2397.4 622.582 2377.66C606.283 2366.8 592.533 2351.42 584.139 2334.68C553.036 2272.64 582.152 2198.46 646.892 2174.81ZM2214.08 2247.42C2226.94 2207.01 2260.82 2177.46 2303.6 2169.36C2314.56 2167.28 2338.71 2167.98 2349 2170.68C2402.55 2184.71 2437.46 2229.09 2437.31 2282.96C2437.09 2360.68 2361.22 2415.38 2287.22 2391.17C2270.33 2385.64 2255.11 2376.27 2242.46 2363.6C2220.61 2341.73 2208.91 2313.93 2208.72 2283.46C2208.64 2269.59 2210.05 2260.1 2214.08 2247.42ZM744.815 2221.24C733.488 2210.39 719.851 2202.92 704.871 2199.39C697.871 2197.74 676.57 2197.47 669.075 2198.94C641.346 2204.39 616.54 2225.57 606.452 2252.42C588.415 2300.42 616.828 2353.62 666.657 2365.15C679.015 2368.01 699.551 2367.49 710.5 2364.03C748.514 2352.04 772.975 2316.84 770.665 2277.45C769.366 2255.31 760.706 2236.48 744.815 2221.24ZM2408 2282.59C2408 2245.11 2383.91 2212.56 2347.5 2200.84C2337.34 2197.57 2312.67 2196.99 2302.35 2199.78C2265.62 2209.72 2240.52 2240.18 2238.33 2277.45C2236.94 2301.32 2245.02 2323.55 2261.36 2340.78C2271.99 2351.98 2283.85 2359.41 2298.5 2364.03C2309.45 2367.49 2329.99 2368.01 2342.34 2365.15C2380.58 2356.31 2408 2321.82 2408 2282.59Z" fill="#6F8BF5"/>
</svg>
