<svg width="3000" height="3000" viewBox="0 0 3000 3000" fill="none" xmlns="http://www.w3.org/2000/svg">
<circle cx="1500" cy="1500" r="1500" fill="white"/>
<mask id="mask0" mask-type="alpha" maskUnits="userSpaceOnUse" x="0" y="0" width="3000" height="3000">
<circle cx="1500" cy="1500" r="1500" fill="white"/>
</mask>
<g mask="url(#mask0)">
<path d="M0 1763L118 1722.5L347 1749.5L463 1722.5L712 1633.5H923.5L1139.5 1691.5L1299.5 1749.5L1428.5 1771.5L1558 1749.5L1914 1633.5L2038 1613L2391 1743.5H2547.5L2732 1667L2826.5 1660.5L2985.5 1688L3023.5 1705L2935.5 2407L2223.5 3108.5L815.5 3016.5L347 2607L85 2180.5L0 1763Z" fill="#F4CDE2"/>
</g>
<ellipse cx="493" cy="2000.5" rx="156" ry="84.5" fill="white"/>
<ellipse cx="1141" cy="1987.5" rx="156" ry="84.5" fill="white"/>
<ellipse cx="1789" cy="2000.5" rx="156" ry="84.5" fill="white"/>
<ellipse cx="840" cy="2295.5" rx="156" ry="84.5" fill="white"/>
<ellipse cx="1488" cy="2295.5" rx="156" ry="84.5" fill="white"/>
<ellipse cx="2149" cy="2295.5" rx="156" ry="84.5" fill="white"/>
<ellipse cx="2450" cy="1996.5" rx="156" ry="84.5" fill="white"/>
<path fill-rule="evenodd" clip-rule="evenodd" d="M2926.76 1035.71C2931.65 1050.73 2936.3 1065.85 2940.72 1081.07L2917.82 1080.92C2873.71 1080.64 2564.49 1080.15 2230.66 1079.83L1623.69 1079.24V1082.36C1623.69 1084.08 1622.79 1105.78 1621.69 1130.59C1617.37 1228.19 1616.91 1241.72 1617.91 1242.85C1618.45 1243.47 1622.76 1246.22 1627.49 1248.98C1632.23 1251.73 1643.7 1258.51 1652.98 1264.03C1662.27 1269.56 1675.67 1277.52 1682.77 1281.72C1689.87 1285.92 1701.49 1292.82 1708.59 1297.05C1715.69 1301.28 1730.21 1309.89 1740.86 1316.19C1775.48 1336.65 1781.86 1340.88 1784.29 1344.96C1786.74 1349.07 1787.29 1356.46 1785.48 1360.94C1783 1367.1 1774.57 1372.35 1767.18 1372.35C1761.73 1372.35 1757.2 1370.25 1738.56 1359.07C1729.72 1353.77 1709.76 1341.88 1694.19 1332.66C1678.63 1323.44 1656.06 1310.07 1644.04 1302.94C1618.35 1287.7 1615.92 1286.34 1615.44 1286.89C1615.25 1287.12 1613.86 1317.22 1612.37 1353.8C1610.88 1390.37 1609.23 1423.2 1608.69 1426.75C1607.57 1434.25 1605.04 1438.57 1599.95 1441.73C1589.02 1448.51 1574.18 1443.25 1570.47 1431.29C1569.25 1427.35 1569.04 1423.87 1569.53 1415.36C1569.87 1409.38 1572.81 1341.08 1576.05 1263.59C1579.3 1186.1 1582.37 1113.07 1582.87 1101.31C1583.38 1089.54 1583.63 1079.76 1583.44 1079.58C1583.24 1079.39 1494.8 1079.01 1386.91 1078.74C1253.32 1078.41 1190.74 1078.55 1190.74 1079.2C1190.74 1079.73 1191.84 1085.12 1193.18 1091.2C1225.77 1238.72 1178.51 1358.42 1063.64 1419.3C1007 1449.31 932.728 1464.81 853.12 1463.22C820.868 1462.57 787.341 1459.43 767.226 1455.16C765.536 1454.8 762.212 1454.1 759.024 1453.42L756.303 1452.84C683.82 1437.46 627.024 1407.01 586.304 1361.7C552.248 1323.81 532.307 1279.19 523.754 1221.74C521.558 1206.99 521.233 1154.19 523.246 1138.97C525.712 1120.31 527.66 1108.66 530.834 1093.59C532.59 1085.25 533.732 1078.26 533.372 1078.06C533.012 1077.85 417.131 1077.61 275.859 1077.54L60.5272 1077.43C65.007 1062.18 69.723 1047.04 74.6709 1032.01L282.958 1032.54L546.915 1033.22L548.025 1030.53C548.636 1029.05 550.298 1024.49 551.718 1020.4C554.327 1012.88 559.636 998.713 561.13 995.288C561.576 994.265 564.739 986.942 568.161 979.014C592.322 923.033 624.552 866.724 664.776 810.222C708.563 748.715 760.445 688.124 820.364 628.512C842.1 606.889 846.034 604.091 857.092 602.397C863.45 601.423 869.632 602.236 876.131 604.901C880.684 606.769 884.4 609.734 895.506 620.369C917.957 641.867 942.296 667.14 965.939 693.51C1063.49 802.303 1133.79 912.895 1171.39 1016.68C1174.54 1025.37 1177.39 1032.77 1177.72 1033.12C1178.06 1033.47 1446.21 1034.04 1773.63 1034.39C2101.05 1034.75 2380.55 1035.14 2394.75 1035.28C2408.95 1035.41 2550.49 1035.57 2709.29 1035.63L2926.76 1035.71ZM2984.73 1714.86C2986.53 1702.3 2988.17 1689.7 2989.66 1677.04L2982.86 1674.87C2954.89 1665.95 2908.24 1653.65 2883.81 1648.77C2833.57 1638.72 2777.13 1640.72 2728.9 1654.25C2707.92 1660.14 2697.33 1664.43 2656.91 1683.46C2592.99 1713.53 2563.62 1724.01 2523.89 1730.88C2488.77 1736.95 2458.23 1736.16 2414.12 1728.02C2397.39 1724.93 2366.85 1717.89 2364.74 1716.63C2363.8 1716.07 2348.59 1694.69 2300.47 1626.28C2270.03 1582.99 2247.95 1551.65 2227.93 1523.26C2217.55 1508.55 2201.85 1486.27 2193.05 1473.74C2184.24 1461.22 2169.82 1440.75 2161.02 1428.24C2152.21 1415.74 2145.34 1405.22 2145.76 1404.86C2146.17 1404.5 2157.45 1396.93 2170.83 1388.03C2184.21 1379.14 2210.58 1361.58 2229.42 1349.02C2248.26 1336.47 2275.74 1318.17 2290.49 1308.37L2291.88 1307.44C2323.94 1286.13 2329.69 1282.3 2331.44 1277.13C2331.85 1275.92 2332.04 1274.65 2332.29 1273.06C2334.27 1260.73 2321.72 1249.82 2308.71 1252.56C2308.44 1252.62 2308.21 1252.66 2307.98 1252.7C2307.82 1252.73 2307.67 1252.76 2307.51 1252.79C2303.93 1253.51 2300.64 1255.7 2220.29 1309.28L2205.09 1319.42C2185.43 1332.53 2159.19 1350.02 2146.78 1358.29C2134.37 1366.56 2123.8 1373.33 2123.29 1373.33C2122.78 1373.33 2115.2 1363.18 2106.45 1350.77C2081.13 1314.92 2061.17 1286.57 2040.7 1257.4C2030.23 1242.48 2020.26 1229.01 2018.54 1227.44C2015.2 1224.41 2008.43 1221.74 2004.08 1221.74C2002.62 1221.74 1999.07 1222.84 1996.19 1224.18C1986.97 1228.48 1982.67 1238.57 1986.44 1247.03C1987.27 1248.88 1997.7 1264.26 2009.63 1281.19L2028.96 1308.63L2045.63 1332.3L2062.1 1355.68C2079.03 1379.71 2106.06 1418.09 2122.17 1440.96C2138.29 1463.84 2159.96 1494.59 2170.33 1509.29C2180.71 1524 2196.2 1545.98 2204.75 1558.14C2213.31 1570.3 2238.68 1606.35 2261.14 1638.26C2283.6 1670.17 2301.85 1696.38 2301.69 1696.51C2301.34 1696.81 2284.23 1690.54 2277.58 1687.67C2274.85 1686.5 2269.26 1684.18 2265.17 1682.51C2257.39 1679.36 2251.42 1676.76 2222.21 1663.84C2212.51 1659.55 2204.38 1656.04 2204.16 1656.04C2203.93 1656.04 2200.92 1654.82 2197.46 1653.32C2178.84 1645.25 2128.27 1627.84 2103.31 1620.91C2056.39 1607.87 2021.98 1603.32 1976.91 1604.2C1950.36 1604.72 1942.36 1605.73 1912.15 1612.36C1873.06 1620.94 1791.41 1647.32 1751.79 1664.18C1711.24 1681.42 1678.51 1693.88 1646.03 1704.43C1640.02 1706.38 1625.05 1711.38 1612.77 1715.55C1545.6 1738.31 1517.3 1745.85 1471.76 1753.13C1449.32 1756.72 1434.52 1757.69 1410.49 1757.15C1387.73 1756.65 1372.28 1754.9 1339.06 1749.07C1303.04 1742.75 1242.11 1724.71 1209.61 1710.74C1206.06 1709.21 1198.46 1706.08 1192.73 1703.78C1186.99 1701.48 1180.74 1698.93 1178.82 1698.12C1176.91 1697.3 1169.99 1694.47 1163.43 1691.82C1156.88 1689.17 1143.25 1683.64 1133.15 1679.53C1051.65 1646.38 1003.77 1632.07 939.511 1621.63C895.488 1614.48 872.079 1612.35 837.232 1612.34C770.607 1612.32 694.972 1621.8 636.15 1637.54C627.366 1639.89 595.743 1650.17 590.472 1652.38C588.287 1653.3 582.031 1655.81 576.57 1657.95C571.108 1660.09 563.289 1663.3 559.192 1665.07C555.096 1666.84 549.064 1669.33 545.787 1670.6C542.51 1671.87 520.168 1682.06 496.137 1693.25C432.069 1723.07 424.99 1725.33 379.459 1730.36C322.969 1736.6 281.253 1735.15 231.589 1725.22C177.754 1714.45 168.818 1713.3 138.16 1713.26C108.36 1713.22 93.7773 1715.31 68.6505 1723.2C56.5557 1727 22.3846 1742.15 20.1037 1744.73C20.0547 1744.78 20.0078 1744.86 19.9629 1744.96C22.1349 1758.14 24.4794 1771.27 26.9939 1784.33C43.8812 1773.98 67.3363 1762.99 82.9685 1758.18C102.25 1752.24 114.361 1750.58 138.16 1750.6C164.111 1750.62 182.236 1753.05 226.537 1762.43C259.024 1769.32 286.813 1771.78 324.177 1771.09C367.101 1770.3 402.255 1766.77 427.499 1760.71C452.617 1754.68 460.262 1751.69 510.535 1728.21C548.215 1710.62 554.787 1707.7 582.031 1696.5C611.418 1684.42 623.875 1680.05 646.647 1673.87C694.264 1660.93 743.483 1653.78 808.435 1650.36C890.306 1646.04 986.262 1663.01 1076.6 1697.78C1107.54 1709.68 1116.05 1713.11 1180.86 1739.73C1219.79 1755.73 1233.87 1760.71 1267.7 1770.42C1314.89 1783.98 1359.1 1791.98 1401.74 1794.66C1444.42 1797.36 1506.1 1788.19 1566.59 1770.16C1588.96 1763.5 1671.36 1735.84 1705.57 1723.52C1716.03 1719.75 1744.52 1708.34 1759.09 1702.09C1810.85 1679.87 1904.42 1650.39 1941.94 1644.47C1972.74 1639.61 2015.32 1640.52 2049.69 1646.78C2076.88 1651.73 2109.64 1661.11 2148.49 1675.06C2174.17 1684.29 2183.84 1688.2 2213.03 1701.15C2284.59 1732.9 2327.35 1747.6 2385.91 1760.58C2469.56 1779.13 2528.25 1775.66 2603.52 1747.73C2628.32 1738.53 2636.3 1735.1 2667.33 1720.35C2706.15 1701.89 2707.53 1701.27 2720.12 1696.62C2735 1691.13 2745.78 1688.22 2763.65 1684.88C2786.45 1680.61 2795.83 1679.93 2824.63 1680.5C2859.12 1681.18 2872.01 1683.33 2924.52 1697.16C2939.95 1701.22 2968.3 1709.62 2984.73 1714.86ZM873.614 681.187C929.291 737.351 986.596 806.874 1024.43 864.161C1034.32 879.132 1047.75 900.009 1047.75 900.405C1047.75 900.594 1050.03 904.443 1052.82 908.959C1066.87 931.698 1087.16 971.136 1099.94 1000.55C1127.09 1063.02 1142.07 1126.62 1142.08 1179.42C1142.08 1224.16 1131.4 1265.6 1111.29 1298.83C1100.04 1317.43 1077.36 1341.61 1059.12 1354.47C1010.19 1388.96 943.446 1406.75 862.856 1406.79C772.897 1406.84 700.987 1385.36 651.804 1343.76C630.213 1325.5 611.807 1300.52 600.609 1274.28C595.882 1263.2 589.551 1243.24 587.932 1234.29C584.962 1217.89 583.973 1210.05 583.039 1195.49C579.784 1144.72 591.56 1083.37 616.822 1019.47C619.653 1012.31 622.616 1004.8 623.407 1002.79C624.197 1000.78 625.779 997.225 626.922 994.888C628.065 992.551 630.203 987.918 631.673 984.594C640.387 964.898 657.732 932.241 673.657 905.545C676.867 900.166 691.129 877.64 695.739 870.671C698.107 867.091 701.273 862.278 702.773 859.976C705.994 855.038 727.139 825.236 732.539 818.024C763.237 777.03 809.894 722.532 841.126 691.185C844.183 688.116 850.016 682.153 854.089 677.933C858.16 673.712 861.781 670.26 862.136 670.26C862.49 670.26 867.655 675.178 873.614 681.187ZM685.857 1120.79C679.912 1122.83 677.106 1125.13 674.38 1130.18C672.14 1134.34 671.864 1136.1 671.551 1148.26C669.522 1227.22 707.551 1285.63 774.183 1305.89C788.747 1310.32 802.708 1312.91 815.428 1313.54C824.541 1314 826.483 1313.82 830.43 1312.19C838.951 1308.66 843.675 1299.29 841.166 1290.89C838.526 1282.06 832.042 1277.95 818.552 1276.54C787.076 1273.25 766.008 1265.08 747.973 1249.14C738.69 1240.94 732.82 1233.52 727.036 1222.67C716.32 1202.57 712.314 1184.6 711.267 1151.92C710.631 1132.04 710.599 1131.82 707.893 1127.99C703.214 1121.37 693.437 1118.18 685.857 1120.79ZM476.277 1896.54C440.658 1899.9 413.205 1906.88 388.396 1918.86C322.297 1950.78 308.435 2008.65 356.602 2051.58C376.154 2069 402.168 2081.48 435.496 2089.41C472.135 2098.13 510.212 2099.72 546.965 2094.06C606.746 2084.85 652.234 2058.54 667.546 2024.31C684.361 1986.72 663.473 1945.85 614.8 1921.12C593.877 1910.48 566.563 1902.42 537.346 1898.26C527.362 1896.84 485.561 1895.66 476.277 1896.54ZM1117.76 1896.6C1067.87 1900.53 1024.05 1916.24 997.847 1939.59C970.454 1963.99 962.513 1993.17 975.383 2022.12C979.918 2032.32 985.317 2039.43 996.545 2049.97C1016.47 2068.67 1043.42 2081.77 1078.59 2089.86C1122.51 2099.96 1167.24 2099.91 1210.1 2089.72C1287.71 2071.28 1329.03 2023.81 1310.21 1974.73C1294.65 1934.17 1240.47 1904.49 1168.89 1897.33C1157.01 1896.15 1128.69 1895.74 1117.76 1896.6ZM1772.14 1896.6C1704.8 1901.9 1651.47 1927.86 1631.5 1965.04C1609.26 2006.46 1635.4 2052.89 1694.97 2077.76C1745.18 2098.72 1808.13 2103.16 1864.49 2089.71C1920.48 2076.36 1956.3 2049.7 1967.37 2013.15C1969.29 2006.81 1969.06 1988.79 1966.97 1981.53C1959.75 1956.46 1937.61 1933.77 1905.8 1918.8C1882.57 1907.88 1853.76 1900.38 1823.28 1897.33C1811.4 1896.15 1783.07 1895.74 1772.14 1896.6ZM2413.12 1897.36C2351.2 1903.7 2300.91 1928.73 2281.78 1962.73C2275.2 1974.41 2272.74 1983.42 2272.83 1995.48C2272.99 2016.18 2281.36 2033.15 2299.92 2050.42C2341.17 2088.79 2425.41 2106.55 2500.14 2092.62C2543.92 2084.46 2580.06 2066.64 2599.67 2043.54C2612.17 2028.8 2617.82 2014.49 2617.82 1997.54C2617.82 1986.6 2615.62 1978.29 2609.78 1967.12C2592.83 1934.75 2553.04 1911.41 2496.38 1900.59C2473.12 1896.16 2438.11 1894.79 2413.12 1897.36ZM531.93 1935.4C553.498 1938.41 570.278 1942.83 585.507 1949.51C619.643 1964.5 637.385 1985.02 632.664 2004.05C626.019 2030.83 582.986 2053.26 527.634 2058.78C503.309 2061.21 466.357 2058.74 443.834 2053.17C427.264 2049.08 407.825 2041.18 395.471 2033.52C380.704 2024.36 369.535 2010.27 368.017 1998.89C366.157 1984.94 376.226 1970.08 395.844 1957.82C414.642 1946.07 439.746 1938.4 471.808 1934.6C485.772 1932.94 517.295 1933.37 531.93 1935.4ZM1160.45 1934.12C1204.51 1937.95 1239.15 1950.62 1260.78 1970.82C1270.96 1980.34 1276.05 1991.52 1274.62 2001.26C1271.28 2024.02 1238.94 2045.85 1195.11 2054.93C1173.74 2059.36 1141.25 2060.95 1118.46 2058.69C1078.77 2054.76 1043.43 2041.55 1024.01 2023.4C1004.21 2004.88 1004.23 1986.01 1024.09 1967.56C1049.99 1943.49 1107.08 1929.49 1160.45 1934.12ZM1827.75 1935.42C1857.74 1939.59 1879.5 1946.76 1899.41 1959.04C1921.37 1972.59 1931.69 1988.18 1928.44 2002.92C1922.51 2029.8 1882.36 2051.94 1828.18 2058.23C1804.3 2060.99 1772.37 2059.74 1748.09 2055.07C1716.91 2049.07 1685.09 2033.2 1672.57 2017.41C1665.47 2008.44 1663.98 2004.63 1663.98 1995.48C1663.98 1985.97 1666.34 1980.62 1674.54 1971.51C1691.85 1952.28 1726.33 1938.97 1771.41 1934.12C1782.02 1932.97 1815.73 1933.75 1827.75 1935.42ZM2476.18 1935.4C2515.5 1940.87 2544.21 1952.47 2563.65 1970.74C2574.7 1981.13 2577.47 1986.54 2577.46 1997.81C2577.45 2009.1 2574.68 2014.39 2563.07 2025.24C2546.47 2040.76 2521.32 2051.25 2487.1 2056.94C2470.12 2059.76 2437.41 2060.43 2419.08 2058.34C2368.48 2052.55 2328.54 2033.4 2316.17 2009.01C2312.76 2002.29 2312.61 2001.57 2313.04 1994.29C2313.59 1984.81 2317.34 1977.29 2325.45 1969.32C2344.74 1950.37 2378.03 1938.43 2424.54 1933.76C2432.41 1932.97 2466.46 1934.05 2476.18 1935.4ZM815.37 2197.29C746.756 2202.06 692.033 2228.23 672.447 2265.64C666.412 2277.17 664.45 2284.62 664.45 2296.01C664.45 2342.86 715.677 2382.2 792.552 2394.38C844.152 2402.56 900.443 2396.66 941.88 2378.74C970.831 2366.21 990.985 2349.48 1001.93 2328.88C1007.62 2318.18 1009.37 2311.23 1009.41 2299.12C1009.49 2278.84 1001.32 2261.69 983.127 2243.97C963.81 2225.15 930.102 2209.68 892.84 2202.53C866.894 2197.55 838.894 2195.65 815.37 2197.29ZM1466.16 2197.3C1423.8 2200.43 1386.93 2211.36 1358.56 2229.2C1347.87 2235.92 1332.31 2250.94 1326.48 2260.16C1310.57 2285.33 1311.83 2312.59 1330.07 2337.72C1336.8 2346.99 1352.26 2360.23 1366.1 2368.58C1386.2 2380.7 1418.98 2391.1 1451.15 2395.55C1472.57 2398.52 1509.45 2398.5 1529.85 2395.52C1592.48 2386.35 1637.13 2361.71 1654.02 2326.99C1658.82 2317.12 1660.7 2309.17 1660.72 2298.66C1660.79 2254.44 1614.1 2216.09 1543.56 2202.43C1518.33 2197.54 1489.14 2195.61 1466.16 2197.3ZM2121.16 2197.36C2089.05 2199.4 2055.62 2207.47 2030.82 2219.16C2003.87 2231.87 1981.31 2253.59 1973.74 2274.11C1959.98 2311.41 1982.77 2350.74 2031.81 2374.32C2066.5 2391.01 2108.78 2399.22 2152.96 2397.85C2197.61 2396.46 2236.65 2386.53 2266.42 2368.99C2315.6 2340.01 2329.03 2295.29 2300.1 2256.81C2275.29 2223.8 2224.07 2202.13 2159.52 2197.31C2145.4 2196.26 2138.24 2196.27 2121.16 2197.36ZM865.563 2235.87C894.271 2239.23 922.236 2248.35 941.994 2260.81C951.115 2266.56 962.534 2277.75 965.905 2284.24C968.493 2289.22 968.803 2290.77 968.791 2298.66C968.779 2306.45 968.445 2308.13 965.968 2312.88C950.814 2341.94 891.62 2362.85 830.778 2360.62C781.62 2358.82 739.835 2344.8 717.465 2322.59C697.034 2302.3 700.495 2281.06 727.393 2261.65C743.865 2249.77 777.3 2238.61 805.779 2235.51C818.126 2234.16 852.688 2234.37 865.563 2235.87ZM1513.26 2235.47C1561.02 2240.36 1603.74 2260.44 1617.01 2284.24C1619.82 2289.26 1620.13 2290.66 1620.17 2298.21C1620.21 2305.82 1619.92 2307.15 1617.03 2312.62C1607.4 2330.84 1582.89 2345.52 1547.88 2354.05C1526.24 2359.32 1515.9 2360.46 1490.13 2360.43C1465.3 2360.4 1455.65 2359.37 1434.2 2354.45C1419.38 2351.06 1410.17 2347.95 1397.78 2342.16C1378.99 2333.38 1365.25 2322.19 1359.26 2310.8C1356.39 2305.32 1356.07 2303.9 1356.07 2296.32C1356.07 2288.74 1356.39 2287.33 1359.25 2281.89C1364.92 2271.17 1378.23 2260.2 1395.36 2252.13C1411.39 2244.59 1437.11 2237.61 1456.37 2235.57C1467.72 2234.37 1501.9 2234.31 1513.26 2235.47ZM2167.64 2235.47C2219.44 2240.78 2265.83 2264.64 2273.71 2290.02C2279.7 2309.3 2264.9 2329.07 2233.89 2343.25C2221.11 2349.09 2214.9 2351.15 2198.82 2354.91C2151.02 2366.09 2093.09 2361.2 2053.16 2342.61C2033.31 2333.37 2019.82 2322.53 2013.72 2310.94C2010.77 2305.32 2010.46 2303.96 2010.46 2296.33C2010.46 2288.75 2010.77 2287.33 2013.64 2281.88C2021.43 2267.06 2042.89 2252.74 2069.82 2244.39C2082.46 2240.47 2099.82 2236.73 2110.75 2235.57C2122.11 2234.37 2156.29 2234.31 2167.64 2235.47Z" fill="#6F8BF5"/>
</svg>
