<svg width="3000" height="3000" viewBox="0 0 3000 3000" fill="none" xmlns="http://www.w3.org/2000/svg">
<g clip-path="url(#clip0)">
<circle cx="1500" cy="1500" r="1500" fill="white"/>
<path fill-rule="evenodd" clip-rule="evenodd" d="M2083.76 721.584C2116.76 728.288 2145.66 743.8 2171.15 768.49C2200.64 797.048 2222.15 833.01 2237.36 879.19C2245.69 904.509 2252.87 940.798 2254.49 965.814C2254.83 971.198 2255.29 976.704 2255.51 978.049C2256.34 983.216 2255.93 1028.33 2254.94 1041.29C2249.83 1108.03 2232.36 1171.63 2202.94 1230.58C2189.15 1258.22 2171.73 1287.3 2168.94 1287.33C2167.16 1287.36 2144.62 1275.49 2131.53 1267.65C2056.69 1222.78 1991.59 1155.59 1949.08 1079.36C1943 1068.47 1931.46 1044.2 1926.47 1031.86C1914.35 1001.82 1906.43 972.67 1902.16 942.323C1899.64 924.468 1899.62 883.442 1902.12 867.633C1909.96 818.066 1931.94 777.621 1965.9 750.312C1973.9 743.878 1987.08 735.195 1988.27 735.582C1988.88 735.778 1991.86 744.496 1994.89 754.954C1997.93 765.412 2003.57 784.76 2007.44 797.949C2011.3 811.139 2017.35 831.84 2020.87 843.953C2027.95 868.326 2034.23 889.867 2044.14 923.726C2047.77 936.108 2053.05 954.246 2055.88 964.033C2058.71 973.82 2061.98 983.381 2063.15 985.28C2066.28 990.34 2070.49 993.495 2076.44 995.225C2086.88 998.261 2097.39 993.532 2102.56 983.477C2106.27 976.263 2105.45 971.17 2094.69 934.493C2086.18 905.476 2074.63 865.969 2066.79 839.059C2063.78 828.735 2037.44 738.648 2034.31 727.995C2033.06 723.705 2032.26 719.961 2032.54 719.675C2033.56 718.648 2049.28 718.189 2061.27 718.836C2067.99 719.199 2078.12 720.435 2083.76 721.584ZM995.584 765.665C1004.19 766.497 1017.74 768.752 1022.73 770.183C1023.67 770.453 1024.44 771.272 1024.44 772.001C1024.44 772.731 1021.65 778.317 1018.25 784.415C1014.84 790.513 1005.1 808.276 996.602 823.887C988.102 839.499 977.752 858.439 973.601 865.976C969.45 873.513 960.638 889.59 954.02 901.703C940.184 927.023 924.953 954.801 912.114 978.126C907.202 987.05 902.515 996.245 901.699 998.558C897.276 1011.1 904.384 1024.61 917.229 1028.07C925.281 1030.24 935.358 1026.72 940.512 1019.94C941.862 1018.17 952.114 999.975 963.293 979.518C974.473 959.061 990.011 930.651 997.822 916.385C1005.63 902.119 1015.63 883.839 1020.04 875.764C1024.44 867.689 1033.25 851.612 1039.6 840.038C1045.95 828.463 1053.78 814.148 1056.98 808.227C1060.19 802.305 1063.68 796.025 1064.74 794.272L1066.67 791.084L1069.69 793.234C1071.35 794.417 1076.51 799.203 1081.17 803.871C1122.04 844.853 1138.45 902.874 1127.25 966.826C1122.29 995.167 1114.54 1017.81 1099.65 1047.47C1074.96 1096.65 1038.1 1141.79 989.226 1182.67C943.244 1221.15 882.284 1254.97 824.41 1274.13C800.975 1281.89 763.68 1291.08 762.153 1289.48C761.042 1288.32 754.517 1267.07 750.567 1251.76C738.785 1206.06 734.204 1164.99 735.216 1114.1C735.947 1077.36 738.61 1053.47 745.747 1019.65C764.381 931.353 805.532 856.933 861.09 811.059C902.252 777.072 949.302 761.192 995.584 765.665Z" fill="#F4CDE2"/>
<path d="M995.584 765.665C1004.19 766.497 1017.74 768.752 1022.73 770.183C1023.67 770.453 1024.44 771.272 1024.44 772.001C1024.44 772.731 1021.65 778.317 1018.25 784.415C1014.84 790.513 1005.1 808.276 996.602 823.887C988.102 839.499 977.752 858.439 973.601 865.976C969.45 873.513 960.638 889.59 954.02 901.703C940.184 927.023 924.953 954.801 912.114 978.126C907.202 987.05 902.515 996.245 901.699 998.558C897.276 1011.1 904.384 1024.61 917.229 1028.07C925.281 1030.24 935.358 1026.72 940.512 1019.94C941.862 1018.17 952.114 999.975 963.293 979.518C974.473 959.061 990.011 930.651 997.822 916.385C1005.63 902.119 1015.63 883.839 1020.04 875.764C1024.44 867.689 1033.25 851.612 1039.6 840.038C1045.95 828.463 1053.78 814.148 1056.98 808.227C1060.19 802.305 1063.68 796.025 1064.74 794.272L1066.67 791.084L1069.69 793.234C1071.35 794.417 1076.51 799.203 1081.17 803.871C1122.04 844.853 1138.45 902.874 1127.25 966.826C1122.29 995.167 1114.54 1017.81 1099.65 1047.47C1074.96 1096.65 1038.1 1141.79 989.226 1182.67C943.244 1221.15 882.284 1254.97 824.41 1274.13C800.975 1281.89 763.68 1291.08 762.153 1289.48C761.042 1288.32 754.517 1267.07 750.567 1251.76C738.785 1206.06 734.204 1164.99 735.216 1114.1C735.947 1077.36 738.61 1053.47 745.747 1019.65C764.381 931.353 805.532 856.933 861.09 811.059C902.252 777.072 949.302 761.192 995.584 765.665Z" fill="#F4CDE2"/>
<path d="M2083.76 721.584C2116.76 728.288 2145.66 743.8 2171.15 768.49C2200.64 797.048 2222.15 833.01 2237.36 879.19C2245.69 904.509 2252.87 940.798 2254.49 965.814C2254.83 971.198 2255.29 976.704 2255.51 978.049C2256.34 983.216 2255.93 1028.33 2254.94 1041.29C2249.83 1108.03 2232.36 1171.63 2202.94 1230.58C2189.15 1258.22 2171.73 1287.3 2168.94 1287.33C2167.16 1287.36 2144.62 1275.49 2131.53 1267.65C2056.69 1222.78 1991.59 1155.59 1949.08 1079.36C1943 1068.47 1931.46 1044.2 1926.47 1031.86C1914.35 1001.82 1906.43 972.67 1902.16 942.323C1899.64 924.468 1899.62 883.442 1902.12 867.633C1909.96 818.066 1931.94 777.621 1965.9 750.312C1973.9 743.878 1987.08 735.195 1988.27 735.582C1988.88 735.778 1991.86 744.496 1994.89 754.954C1997.93 765.412 2003.57 784.76 2007.44 797.949C2011.3 811.139 2017.35 831.84 2020.87 843.953C2027.95 868.326 2034.23 889.867 2044.14 923.726C2047.77 936.108 2053.05 954.246 2055.88 964.033C2058.71 973.82 2061.98 983.381 2063.15 985.28C2066.28 990.34 2070.49 993.495 2076.44 995.225C2086.88 998.261 2097.39 993.532 2102.56 983.477C2106.27 976.263 2105.45 971.17 2094.69 934.493C2086.18 905.476 2074.63 865.969 2066.79 839.059C2063.78 828.735 2037.44 738.648 2034.31 727.995C2033.06 723.705 2032.26 719.961 2032.54 719.675C2033.56 718.648 2049.28 718.189 2061.27 718.836C2067.99 719.199 2078.12 720.435 2083.76 721.584Z" fill="#F4CDE2"/>
<path fill-rule="evenodd" clip-rule="evenodd" d="M248.286 1982.41C181.087 1982.56 115.042 1982.75 77.0645 1982.9C82.2747 1998.48 87.7339 2013.95 93.4373 2029.31C132.136 2029.16 185.315 2029 241.68 2028.88C385.352 2028.58 432.497 2028.76 432.006 2029.61C430.876 2031.56 405.803 2069.92 349.383 2156.02C338.096 2173.25 324.099 2194.61 318.28 2203.49C312.462 2212.38 287.755 2250.04 263.377 2287.18C255.212 2299.62 247.403 2311.58 240.568 2322.09C249.733 2336.22 259.129 2350.19 268.751 2363.98C276.048 2353.12 285.138 2339.4 294.645 2324.87C315.598 2292.84 341.007 2253.99 351.108 2238.55C361.209 2223.11 369.917 2210.74 370.46 2211.08C371.381 2211.65 443.192 2269.96 623.891 2416.85C793.38 2554.64 812.067 2569.94 811.638 2570.64C811.392 2571.04 805.803 2574.21 799.216 2577.69C784.82 2585.29 755.633 2600.85 707.484 2626.57C687.826 2637.08 664.718 2649.4 656.132 2653.97C642.278 2661.33 610.333 2678.38 582.111 2693.46C595.695 2703.99 609.465 2714.28 623.414 2724.35C636.191 2717.55 650.981 2709.67 657.637 2706.09C664.9 2702.2 680.966 2693.62 693.339 2687.03C705.713 2680.45 722.219 2671.64 730.019 2667.46C737.82 2663.29 754.326 2654.47 766.7 2647.87C779.073 2641.27 795.579 2632.46 803.38 2628.28C826.636 2615.83 876.142 2589.43 892.39 2580.82C900.729 2576.4 916.795 2567.82 928.092 2561.75C939.39 2555.68 955.896 2546.87 964.773 2542.17C973.649 2537.47 1069.82 2486.15 1178.5 2428.13C1287.17 2370.11 1382.46 2319.25 1390.26 2315.09C1398.06 2310.94 1414.57 2302.13 1426.94 2295.51C1439.32 2288.9 1456.48 2279.75 1465.09 2275.18C1473.7 2270.61 1483.29 2265.5 1486.41 2263.82L1492.08 2260.75L1499.09 2268.1C1507.77 2277.19 1574.72 2347.22 1646 2421.77C1675.59 2452.72 1702.6 2480.98 1706.01 2484.56L1712.2 2491.07L1709.8 2495.82C1708.48 2498.43 1704.75 2506.51 1701.51 2513.78C1698.27 2521.04 1692.23 2534.48 1688.08 2543.63C1683.94 2552.78 1678.67 2564.45 1676.37 2569.57C1674.07 2574.68 1668.8 2586.35 1664.66 2595.51C1660.51 2604.66 1654.35 2618.31 1650.95 2625.85C1647.56 2633.39 1641.39 2647.04 1637.24 2656.19C1633.1 2665.34 1626.94 2679 1623.56 2686.54C1620.17 2694.07 1614.01 2707.73 1609.86 2716.88C1605.71 2726.03 1599.54 2739.68 1596.14 2747.22C1592.75 2754.76 1587.47 2766.43 1584.42 2773.16C1581.37 2779.89 1576.1 2791.56 1572.71 2799.1C1560.53 2826.13 1552.52 2843.88 1545.66 2859.05C1541.82 2867.53 1535.71 2881.07 1532.07 2889.15C1528.43 2897.22 1522.06 2911.32 1517.91 2920.47C1513.76 2929.62 1507.61 2943.28 1504.22 2950.81C1500.84 2958.35 1493.58 2974.43 1488.08 2986.54C1484.36 2994.74 1480.92 3002.39 1478.94 3006.86C1485.95 3006.95 1492.97 3007 1500 3007C1510.09 3007 1520.16 3006.9 1530.2 3006.7L1535.76 2994.37L1539.92 2985.14L1549.66 2963.54C1552.82 2956.54 1558.69 2943.55 1562.7 2934.66C1570.05 2918.41 1575.72 2905.82 1593.19 2867.13C1598.41 2855.55 1605.72 2839.36 1609.43 2831.15C1613.15 2822.94 1619.32 2809.28 1623.14 2800.81C1626.97 2792.33 1633.08 2778.79 1636.73 2770.71C1640.38 2762.64 1646.33 2749.42 1649.95 2741.35C1653.58 2733.27 1658.85 2721.6 1661.67 2715.41C1664.49 2709.22 1669.68 2697.77 1673.2 2689.96C1679.64 2675.71 1688.85 2655.31 1701.39 2627.56C1719.06 2588.45 1722.05 2581.8 1728.2 2568.1C1731.83 2560.03 1737.1 2548.35 1739.92 2542.16C1742.74 2535.97 1746.52 2527.6 1748.31 2523.56C1750.11 2519.53 1751.67 2516.08 1751.78 2515.91C1751.9 2515.73 1763.15 2514.1 1776.78 2512.27C1790.42 2510.45 1823.14 2506.06 1849.5 2502.52C1904.58 2495.13 1967.6 2486.68 2046.59 2476.1C2076.99 2472.04 2110 2467.59 2119.95 2466.24C2129.91 2464.88 2147.73 2462.48 2159.57 2460.92C2189.54 2456.95 2287.87 2443.76 2309.71 2440.78C2319.67 2439.43 2337.49 2437.04 2349.33 2435.47C2361.16 2433.9 2389.11 2430.16 2411.44 2427.16C2433.77 2424.15 2456.87 2421.05 2462.79 2420.27C2468.71 2419.49 2483.24 2417.54 2495.07 2415.93C2574.2 2405.2 2621.04 2399.15 2622.05 2399.54C2622.7 2399.79 2628.48 2411.39 2634.89 2425.32C2643.62 2444.27 2649.47 2456.96 2653.79 2465.59C2664.83 2452.31 2675.65 2438.84 2686.23 2425.18C2680.42 2412.61 2673.8 2398.28 2670.63 2391.43C2667.02 2383.62 2657.13 2362.26 2648.64 2343.95C2622.44 2287.43 2619.84 2281.81 2611.96 2264.67C2607.76 2255.52 2600.93 2240.76 2596.78 2231.88C2592.63 2223 2586.71 2210.22 2583.62 2203.49C2580.52 2196.77 2573.69 2182.01 2568.44 2170.7C2563.18 2159.4 2556.35 2144.64 2553.25 2137.91C2550.15 2131.19 2544.55 2119.07 2540.8 2111C2537.06 2102.92 2530.23 2088.17 2525.63 2078.21C2515.89 2057.13 2502.73 2028.77 2501.2 2025.59C2500.61 2024.38 2500.31 2023.22 2500.54 2023.01C2500.76 2022.8 2595.35 2022.33 2710.75 2021.96C2804.06 2021.66 2879.45 2021.19 2909.71 2020.76C2914.99 2006.28 2920.05 1991.69 2924.89 1977H2111.83C1986.37 1977.91 1528.4 1978.53 1527.94 1977.74C1527.92 1977.71 1527.9 1977.46 1527.87 1977H1481.31L1481.33 1978.25L1469.79 1978.58C1463.44 1978.77 1382.32 1979.06 1289.51 1979.23C1196.71 1979.4 1114.83 1979.66 1107.56 1979.81C1100.28 1979.96 947.766 1980.42 768.632 1980.83C589.499 1981.24 436.993 1981.68 429.731 1981.81C422.468 1981.94 340.818 1982.21 248.286 1982.41ZM2455.46 2037.74C2459.42 2046.27 2465.39 2059.19 2468.74 2066.46C2472.08 2073.73 2477.89 2086.28 2481.63 2094.36C2491.32 2115.22 2518.16 2173.16 2525.39 2188.81C2528.75 2196.08 2538.65 2217.44 2547.39 2236.28C2568.47 2281.72 2574.96 2295.74 2581.14 2309.21C2583.98 2315.4 2589.65 2327.65 2593.75 2336.44C2597.85 2345.23 2601.2 2352.82 2601.2 2353.31C2601.2 2353.79 2600.21 2354.39 2599 2354.64C2596.47 2355.15 2596.32 2355.17 2563.09 2359.62C2549.35 2361.46 2516.54 2365.86 2490.18 2369.4C2394.45 2382.25 2294.91 2395.6 2227.51 2404.63C2213.78 2406.47 2200.79 2408.22 2198.66 2408.53C2196.53 2408.84 2186.42 2410.2 2176.2 2411.55C2142.27 2416.05 1960.73 2440.37 1928.24 2444.77C1898.9 2448.74 1835.53 2457.24 1789.38 2463.4C1771.38 2465.81 1756.15 2467.77 1755.54 2467.77C1754.93 2467.77 1742.58 2455.34 1728.11 2440.15C1713.64 2424.95 1681.13 2390.93 1655.87 2364.53C1630.61 2338.14 1600.89 2307.08 1589.83 2295.5C1496.37 2197.69 1378 2073.94 1352.35 2047.21L1332.47 2026.5L1339.6 2026.11C1343.53 2025.89 1421.78 2025.6 1513.51 2025.46C1605.23 2025.32 1687.54 2025.07 1696.42 2024.9C1705.3 2024.73 1857.59 2024.27 2034.86 2023.88C2212.12 2023.49 2357.23 2023.11 2357.32 2023.04C2357.41 2022.97 2377.91 2022.76 2402.87 2022.57L2448.27 2022.24L2455.46 2037.74ZM1309.68 2070.05C1332.75 2094.15 1371.43 2134.58 1395.64 2159.88C1419.85 2185.18 1443.8 2210.21 1448.87 2215.5C1456.65 2223.63 1457.87 2225.32 1456.7 2226.38C1455.93 2227.08 1436.38 2237.7 1413.25 2249.98C1390.12 2262.27 1362.39 2277.04 1351.63 2282.81C1340.87 2288.58 1321.5 2298.91 1308.59 2305.78C1295.68 2312.64 1279.61 2321.21 1272.89 2324.84C1266.16 2328.46 1253.18 2335.4 1244.03 2340.26C1234.89 2345.12 1217.72 2354.26 1205.88 2360.59C1194.05 2366.91 1177.54 2375.72 1169.2 2380.17C1127.58 2402.39 1109.77 2411.9 1096.82 2418.84C1089.02 2423.03 1042.36 2447.91 993.139 2474.13C943.914 2500.36 897.697 2525.01 890.434 2528.91C883.171 2532.81 872.92 2538.31 867.651 2541.13C862.384 2543.95 857.542 2546.03 856.892 2545.76C856.242 2545.49 844.706 2536.3 831.257 2525.33C817.807 2514.37 782.154 2485.38 752.027 2460.92C699.626 2418.38 648.46 2376.78 517.274 2270.06C484.458 2243.37 443.623 2210.17 426.53 2196.3C406.445 2180 395.702 2170.66 396.156 2169.91C396.542 2169.27 409.688 2149.15 425.367 2125.19C452.877 2083.16 473.434 2051.73 483.786 2035.87L488.738 2028.29L503.495 2028.28C569.849 2028.27 1001.52 2026.99 1001.74 2026.81C1001.9 2026.68 1061.81 2026.49 1134.88 2026.4L1267.74 2026.22L1309.68 2070.05Z" fill="#F4CDE2"/>
<mask id="mask0" mask-type="alpha" maskUnits="userSpaceOnUse" x="15" y="388" width="2926" height="2626">
<path fill-rule="evenodd" clip-rule="evenodd" d="M1732.12 388.913C1672.84 394.432 1617.12 421.419 1571.7 466.624C1545.34 492.858 1526.28 519.779 1508.64 555.695C1497.83 577.725 1489.99 598.109 1484.11 619.497C1481.92 627.473 1479.82 634.779 1479.45 635.732C1478.93 637.076 1477.76 635.759 1474.23 629.859C1462.23 609.827 1445.52 588.962 1427.78 571.845C1373.96 519.938 1306.99 499.729 1241.1 515.518C1212.75 522.311 1181.32 538.06 1156 558.158C1145.28 566.668 1123.71 587.978 1114.32 599.335C1088.38 630.716 1066.53 669.973 1051.37 712.455C1048.9 719.371 1046.49 725.96 1046.01 727.1L1045.14 729.17L1036.5 726.846C1012.97 720.515 982.012 718.027 958.755 720.597C914.427 725.496 871.009 744.395 832.753 775.444C768.824 827.33 720.578 914.415 700.292 1014.54C681.147 1109.03 686.709 1206.87 716.303 1296.18C726.912 1328.19 730.116 1333.38 741.491 1336.98C745.989 1338.4 747.73 1338.45 755.941 1337.37C777.646 1334.53 812.974 1325.97 839.291 1317.18C863.539 1309.08 882.652 1301.12 908.53 1288.34C991.259 1247.49 1058.29 1191.36 1108.71 1120.74C1126.62 1095.64 1146.21 1059.08 1156.4 1031.72C1188.99 944.172 1180.66 857.894 1133.55 795.013C1122.26 779.943 1105.72 763.148 1091.14 751.946L1087.95 749.499L1092.35 736.435C1098.75 717.434 1104.12 704.538 1113.01 686.857C1147.8 617.661 1199.14 572.251 1256.47 559.973C1262.11 558.765 1271.29 557.821 1280.71 557.48C1305.3 556.592 1324.49 560.694 1347.87 571.832C1386.59 590.281 1419.86 624.929 1445.15 673.152C1451.9 686.032 1456.18 695.779 1463.39 714.751L1468.79 728.944L1469.52 743.626C1469.92 751.701 1470.52 795.307 1470.85 840.528C1471.19 885.749 1471.68 939.485 1471.94 959.942C1472.2 980.399 1472.66 1025.33 1472.95 1059.78C1476.34 1459.87 1480.25 1899.73 1480.73 1935.02L1481.33 1979.25L1469.79 1979.58C1463.44 1979.77 1382.32 1980.06 1289.52 1980.23C1196.71 1980.4 1114.83 1980.66 1107.56 1980.81C1100.28 1980.96 947.766 1981.42 768.633 1981.83C589.499 1982.24 436.994 1982.68 429.731 1982.81C422.468 1982.94 340.818 1983.21 248.286 1983.41C155.754 1983.61 65.4113 1983.9 47.5231 1984.04L15 1984.32V2007.68V2031.05L32.851 2030.66C42.6696 2030.45 136.642 2030.1 241.681 2029.88C385.353 2029.58 432.497 2029.76 432.006 2030.61C430.876 2032.56 405.804 2070.92 349.384 2157.02C338.096 2174.25 324.1 2195.61 318.281 2204.49C312.462 2213.38 287.755 2251.04 263.377 2288.18C238.998 2325.33 217.782 2358.14 216.23 2361.1C213.775 2365.78 213.453 2367.33 213.754 2372.97C214.028 2378.07 214.721 2380.45 217.037 2384.2C224.864 2396.86 242.471 2398.88 252.59 2388.26C254.766 2385.98 273.691 2357.9 294.645 2325.87C315.599 2293.84 341.007 2254.99 351.108 2239.55C361.209 2224.11 369.918 2211.74 370.461 2212.08C371.381 2212.65 443.192 2270.96 623.892 2417.85C793.381 2555.64 812.067 2570.94 811.638 2571.64C811.392 2572.04 805.803 2575.21 799.216 2578.69C784.82 2586.29 755.633 2601.85 707.484 2627.57C687.827 2638.08 664.718 2650.4 656.132 2654.97C638.411 2664.39 591.092 2689.65 559.823 2706.38C548.257 2712.57 537.324 2719.01 535.528 2720.69C530.48 2725.42 528.19 2730.65 528.19 2737.45C528.19 2750.56 537.978 2760.38 551.092 2760.44C557.047 2760.46 564.146 2757.42 585.144 2745.87C590.854 2742.73 606.53 2734.32 619.979 2727.17C633.428 2720.03 650.375 2710.99 657.637 2707.09C664.9 2703.2 680.966 2694.62 693.339 2688.03C705.713 2681.45 722.219 2672.64 730.02 2668.46C737.82 2664.29 754.326 2655.47 766.7 2648.87C779.073 2642.27 795.579 2633.46 803.38 2629.28C826.636 2616.83 876.142 2590.43 892.391 2581.82C900.729 2577.4 916.795 2568.82 928.093 2562.75C939.39 2556.68 955.896 2547.87 964.773 2543.17C973.65 2538.47 1069.83 2487.15 1178.5 2429.13C1287.17 2371.11 1382.46 2320.25 1390.26 2316.09C1398.06 2311.94 1414.57 2303.13 1426.94 2296.51C1439.32 2289.9 1456.48 2280.75 1465.09 2276.18C1473.7 2271.61 1483.29 2266.5 1486.41 2264.82L1492.08 2261.75L1499.09 2269.1C1507.77 2278.19 1574.72 2348.22 1646 2422.77C1675.6 2453.72 1702.6 2481.98 1706.01 2485.56L1712.2 2492.07L1709.8 2496.82C1708.48 2499.43 1704.75 2507.51 1701.51 2514.78C1698.27 2522.04 1692.23 2535.48 1688.08 2544.63C1683.94 2553.78 1678.67 2565.45 1676.37 2570.57C1674.07 2575.68 1668.8 2587.35 1664.66 2596.51C1660.51 2605.66 1654.35 2619.31 1650.95 2626.85C1647.56 2634.39 1641.39 2648.04 1637.24 2657.19C1633.1 2666.34 1626.94 2680 1623.56 2687.54C1620.18 2695.07 1614.01 2708.73 1609.86 2717.88C1605.71 2727.03 1599.54 2740.68 1596.14 2748.22C1592.75 2755.76 1587.47 2767.43 1584.42 2774.16C1581.38 2780.89 1576.1 2792.56 1572.71 2800.1C1560.53 2827.13 1552.52 2844.88 1545.66 2860.05C1541.82 2868.53 1535.71 2882.07 1532.07 2890.15C1528.43 2898.22 1522.06 2912.32 1517.91 2921.47C1513.77 2930.62 1507.61 2944.28 1504.22 2951.81C1500.84 2959.35 1493.58 2975.43 1488.08 2987.54C1482.59 2999.65 1477.71 3010.56 1477.23 3011.78L1476.38 3014L1501.98 3013.74L1527.59 3013.48L1535.76 2995.37C1540.25 2985.41 1546.51 2971.54 1549.66 2964.54C1552.82 2957.54 1558.69 2944.55 1562.7 2935.66C1570.05 2919.41 1575.72 2906.82 1593.19 2868.13C1598.41 2856.55 1605.72 2840.36 1609.43 2832.15C1613.15 2823.94 1619.32 2810.28 1623.14 2801.81C1626.97 2793.33 1633.08 2779.79 1636.73 2771.71C1640.38 2763.64 1646.33 2750.42 1649.95 2742.35C1653.58 2734.27 1658.85 2722.6 1661.67 2716.41C1664.49 2710.22 1669.68 2698.77 1673.2 2690.96C1679.64 2676.71 1688.85 2656.31 1701.39 2628.56C1719.06 2589.45 1722.05 2582.8 1728.2 2569.1C1731.83 2561.03 1737.1 2549.35 1739.92 2543.16C1742.74 2536.97 1746.52 2528.6 1748.32 2524.56C1750.11 2520.53 1751.67 2517.08 1751.78 2516.91C1751.9 2516.73 1763.15 2515.1 1776.78 2513.27C1790.42 2511.45 1823.14 2507.06 1849.5 2503.52C1904.58 2496.13 1967.6 2487.68 2046.59 2477.1C2076.99 2473.04 2110 2468.59 2119.96 2467.24C2129.91 2465.88 2147.73 2463.48 2159.57 2461.92C2189.54 2457.95 2287.87 2444.76 2309.71 2441.78C2319.67 2440.43 2337.49 2438.04 2349.33 2436.47C2361.16 2434.9 2389.11 2431.16 2411.44 2428.16C2433.77 2425.15 2456.87 2422.05 2462.79 2421.27C2468.71 2420.49 2483.24 2418.54 2495.07 2416.93C2574.2 2406.2 2621.04 2400.15 2622.05 2400.54C2622.7 2400.79 2628.48 2412.39 2634.89 2426.32C2661.1 2483.22 2661.42 2483.76 2671.79 2486.84C2678.11 2488.72 2678.84 2488.71 2685.39 2486.78C2696.24 2483.58 2703.38 2471.75 2701.04 2460.86C2700.46 2458.15 2694.86 2444.84 2688.59 2431.27C2682.32 2417.71 2674.24 2400.23 2670.63 2392.43C2667.02 2384.62 2657.13 2363.26 2648.64 2344.95C2622.44 2288.43 2619.84 2282.81 2611.96 2265.67C2607.76 2256.52 2600.93 2241.76 2596.78 2232.88C2592.63 2224 2586.71 2211.22 2583.62 2204.49C2580.52 2197.77 2573.69 2183.01 2568.44 2171.7C2563.18 2160.4 2556.35 2145.64 2553.25 2138.91C2550.15 2132.19 2544.55 2120.07 2540.8 2112C2537.06 2103.92 2530.23 2089.17 2525.63 2079.21C2515.89 2058.13 2502.73 2029.77 2501.2 2026.59C2500.61 2025.38 2500.32 2024.22 2500.54 2024.01C2500.76 2023.8 2595.36 2023.33 2710.75 2022.96C2831.35 2022.57 2922.02 2021.91 2923.99 2021.4C2939.6 2017.33 2946.2 1997.92 2936.36 1985.01C2934.65 1982.77 2931.07 1979.82 2928.4 1978.44L2923.54 1975.94L2857.98 1975.94C2731.91 1975.95 2174.76 1977.43 2123.87 1977.9C2019.38 1978.87 1528.42 1979.56 1527.94 1978.74C1527.66 1978.28 1527.16 1934.74 1526.83 1881.98C1526.49 1829.22 1526 1775.26 1525.73 1762.07C1525.47 1748.88 1525.04 1703.3 1524.76 1660.77C1524.49 1618.24 1524.04 1564.06 1523.78 1540.37C1523.24 1492.34 1522.57 1416.85 1521.82 1320.63C1521.55 1285.37 1521.11 1239.34 1520.85 1218.35C1520.58 1197.35 1520.14 1144.06 1519.86 1099.91C1519.59 1055.77 1519.15 1010.18 1518.89 998.605C1518.27 970.891 1516.93 793.388 1516.93 739.221C1516.93 695.605 1517.24 690.58 1521.38 665.811C1531.74 603.91 1560.47 545.369 1601.05 503.464C1636.38 466.989 1676.69 445.109 1723.32 437.101C1737.15 434.725 1768.5 434.711 1782.5 437.073C1817.45 442.971 1851.35 458.568 1879.99 481.918C1927.67 520.786 1962.66 581.635 1976.17 649.171C1978.75 662.062 1982.37 686.402 1981.79 686.908C1981.66 687.022 1978.25 688.761 1974.21 690.773C1955.75 699.981 1929.76 719.608 1915.97 734.768C1887.56 765.998 1870.1 800.148 1860.88 842.485C1855.6 866.748 1854.34 879.426 1854.5 906.597C1854.62 926.868 1855.79 940.916 1858.93 959.89C1872.39 1041.23 1914.05 1125.3 1975.82 1195.76C1989.24 1211.07 2018.45 1240.01 2033.03 1252.45C2073.2 1286.71 2120.36 1316.79 2161.48 1334.36C2172.24 1338.97 2179.22 1339.67 2186.01 1336.83C2191.15 1334.68 2193.38 1332.52 2201.13 1322.1C2242.84 1266.07 2276.63 1186.65 2291.5 1109.7C2299.27 1069.47 2301.47 1045.02 2301.28 1001.05C2301.1 957.676 2296.58 922.596 2286.22 884.085C2279.78 860.147 2273.01 841.999 2261.11 816.747C2253.29 800.163 2239.21 777.859 2225.77 760.755C2217.29 749.965 2198.17 730.64 2187.11 721.674C2162.94 702.083 2132.86 686.845 2103.82 679.487C2084.32 674.548 2072.65 673.215 2048.98 673.228L2027.4 673.24L2026.15 663.897C2019.4 613.23 2001.09 562.422 1973.94 518.99C1951.49 483.08 1915.51 446.741 1881.65 425.791C1835.99 397.534 1782.16 384.257 1732.12 388.913ZM2083.76 721.584C2116.76 728.289 2145.66 743.8 2171.15 768.491C2200.64 797.048 2222.15 833.011 2237.36 879.191C2245.69 904.509 2252.87 940.799 2254.49 965.815C2254.83 971.198 2255.29 976.704 2255.51 978.05C2256.34 983.216 2255.93 1028.33 2254.94 1041.29C2249.83 1108.03 2232.36 1171.63 2202.94 1230.58C2189.15 1258.22 2171.73 1287.3 2168.94 1287.34C2167.16 1287.36 2144.62 1275.49 2131.53 1267.65C2056.69 1222.78 1991.59 1155.59 1949.08 1079.36C1943 1068.47 1931.46 1044.2 1926.47 1031.86C1914.35 1001.82 1906.43 972.671 1902.16 942.324C1899.64 924.468 1899.62 883.443 1902.12 867.634C1909.96 818.066 1931.95 777.622 1965.9 750.312C1973.9 743.878 1987.08 735.195 1988.27 735.582C1988.88 735.779 1991.86 744.497 1994.89 754.955C1997.93 765.412 2003.57 784.76 2007.44 797.95C2011.3 811.139 2017.35 831.841 2020.87 843.954C2027.95 868.327 2034.24 889.867 2044.14 923.726C2047.77 936.108 2053.05 954.246 2055.88 964.034C2058.71 973.821 2061.98 983.382 2063.15 985.281C2066.28 990.341 2070.49 993.496 2076.44 995.225C2086.88 998.261 2097.39 993.533 2102.56 983.478C2106.27 976.264 2105.45 971.171 2094.69 934.493C2086.19 905.476 2074.63 865.97 2066.79 839.06C2063.78 828.735 2037.44 738.649 2034.31 727.995C2033.06 723.705 2032.26 719.961 2032.54 719.676C2033.56 718.649 2049.28 718.19 2061.27 718.837C2067.99 719.2 2078.12 720.436 2083.76 721.584ZM995.584 765.666C1004.19 766.498 1017.74 768.753 1022.73 770.184C1023.67 770.454 1024.44 771.272 1024.44 772.002C1024.44 772.732 1021.65 778.318 1018.25 784.416C1014.84 790.514 1005.1 808.276 996.602 823.888C988.102 839.5 977.752 858.44 973.601 865.977C969.45 873.514 960.638 889.59 954.02 901.703C940.185 927.024 924.953 954.801 912.114 978.126C907.202 987.05 902.515 996.245 901.699 998.559C897.277 1011.1 904.384 1024.61 917.23 1028.07C925.281 1030.24 935.358 1026.72 940.512 1019.94C941.862 1018.17 952.114 999.975 963.293 979.518C974.473 959.061 990.011 930.651 997.822 916.385C1005.63 902.119 1015.63 883.84 1020.04 875.765C1024.44 867.69 1033.25 851.613 1039.6 840.038C1045.95 828.464 1053.78 814.149 1056.98 808.227C1060.19 802.305 1063.68 796.025 1064.74 794.272L1066.67 791.084L1069.69 793.235C1071.35 794.417 1076.51 799.204 1081.17 803.871C1122.05 844.854 1138.45 902.875 1127.25 966.826C1122.29 995.167 1114.54 1017.81 1099.65 1047.47C1074.96 1096.65 1038.1 1141.79 989.226 1182.68C943.244 1221.15 882.284 1254.97 824.41 1274.13C800.975 1281.89 763.68 1291.09 762.153 1289.48C761.042 1288.32 754.517 1267.07 750.567 1251.76C738.785 1206.06 734.204 1164.99 735.216 1114.1C735.947 1077.36 738.611 1053.47 745.747 1019.65C764.381 931.353 805.532 856.934 861.09 811.06C902.252 777.073 949.302 761.193 995.584 765.666ZM2455.46 2038.74C2459.42 2047.27 2465.39 2060.19 2468.74 2067.46C2472.08 2074.73 2477.89 2087.28 2481.63 2095.36C2491.32 2116.22 2518.16 2174.16 2525.39 2189.81C2528.75 2197.08 2538.65 2218.44 2547.39 2237.28C2568.47 2282.72 2574.96 2296.74 2581.14 2310.21C2583.98 2316.4 2589.65 2328.65 2593.75 2337.44C2597.85 2346.23 2601.2 2353.82 2601.2 2354.31C2601.2 2354.79 2600.21 2355.39 2599 2355.64C2596.47 2356.15 2596.32 2356.17 2563.09 2360.62C2549.35 2362.46 2516.54 2366.86 2490.18 2370.4C2394.45 2383.25 2294.91 2396.6 2227.51 2405.63C2213.78 2407.47 2200.79 2409.22 2198.66 2409.53C2196.53 2409.84 2186.42 2411.2 2176.2 2412.55C2142.27 2417.05 1960.73 2441.37 1928.24 2445.77C1898.9 2449.74 1835.53 2458.24 1789.38 2464.4C1771.38 2466.81 1756.15 2468.77 1755.54 2468.77C1754.93 2468.77 1742.58 2456.34 1728.11 2441.15C1713.64 2425.95 1681.13 2391.93 1655.87 2365.53C1630.61 2339.14 1600.89 2308.08 1589.83 2296.5C1496.37 2198.69 1378 2074.94 1352.35 2048.21L1332.47 2027.5L1339.6 2027.11C1343.53 2026.89 1421.78 2026.6 1513.51 2026.46C1605.23 2026.32 1687.54 2026.07 1696.42 2025.9C1705.3 2025.73 1857.59 2025.27 2034.86 2024.88C2212.12 2024.49 2357.23 2024.11 2357.32 2024.04C2357.41 2023.97 2377.91 2023.76 2402.87 2023.57L2448.27 2023.24L2455.46 2038.74ZM1309.68 2071.05C1332.75 2095.15 1371.43 2135.58 1395.64 2160.88C1419.85 2186.18 1443.8 2211.21 1448.87 2216.5C1456.65 2224.63 1457.87 2226.32 1456.7 2227.38C1455.93 2228.08 1436.38 2238.7 1413.25 2250.98C1390.12 2263.27 1362.39 2278.04 1351.63 2283.81C1340.87 2289.58 1321.5 2299.91 1308.59 2306.78C1295.68 2313.64 1279.61 2322.21 1272.89 2325.84C1266.16 2329.46 1253.18 2336.4 1244.03 2341.26C1234.89 2346.12 1217.72 2355.26 1205.88 2361.59C1194.05 2367.91 1177.54 2376.72 1169.2 2381.17C1127.58 2403.39 1109.77 2412.9 1096.82 2419.84C1089.02 2424.03 1042.36 2448.91 993.139 2475.13C943.914 2501.36 897.697 2526.01 890.434 2529.91C883.172 2533.81 872.92 2539.31 867.652 2542.13C862.384 2544.95 857.543 2547.03 856.892 2546.76C856.243 2546.49 844.706 2537.3 831.257 2526.33C817.808 2515.37 782.154 2486.38 752.028 2461.92C699.626 2419.38 648.46 2377.78 517.274 2271.06C484.458 2244.37 443.623 2211.17 426.53 2197.3C406.445 2181 395.702 2171.66 396.156 2170.91C396.543 2170.27 409.688 2150.15 425.367 2126.19C452.878 2084.16 473.434 2052.73 483.786 2036.87L488.738 2029.29L503.495 2029.28C569.849 2029.27 1001.52 2027.99 1001.74 2027.81C1001.9 2027.68 1061.81 2027.49 1134.88 2027.4L1267.74 2027.22L1309.68 2071.05Z" fill="#D196A8"/>
</mask>
<g mask="url(#mask0)">
<rect x="-321" y="-99" width="3599" height="2076" fill="#6F8BF5"/>
</g>
</g>
<defs>
<clipPath id="clip0">
<rect width="3000" height="3000" fill="white"/>
</clipPath>
</defs>
</svg>
