<svg width="3000" height="3000" viewBox="0 0 3000 3000" fill="none" xmlns="http://www.w3.org/2000/svg">
<circle cx="1500" cy="1500" r="1500" fill="white"/>
<circle cx="202" cy="1681" r="89" fill="#F4CDE2"/>
<circle cx="1063" cy="1681" r="89" fill="#F4CDE2"/>
<circle cx="505" cy="2175" r="89" fill="#F4CDE2"/>
<circle cx="1500" cy="2207" r="89" fill="#F4CDE2"/>
<circle cx="1063" cy="2567" r="89" fill="#F4CDE2"/>
<circle cx="1938" cy="2567" r="89" fill="#F4CDE2"/>
<circle cx="1938" cy="1681" r="89" fill="#F4CDE2"/>
<circle cx="2813" cy="1681" r="89" fill="#F4CDE2"/>
<circle cx="2502" cy="2170" r="89" fill="#F4CDE2"/>
<path fill-rule="evenodd" clip-rule="evenodd" d="M2996.28 1393.54L2890.5 1404.5L2684.5 1326.5L2431.5 1377.5L2225.5 1315.5L1998 1366.5L1767 1304.5L1663 1064L2938.85 1074.71C2969 1176.87 2988.57 1283.57 2996.28 1393.54ZM63.4423 1067C42.0839 1137.96 25.8392 1211.13 15.1365 1286.09L239 1361L461.5 1292L664 1374L840 1292L1078 1361L1231.5 1312L1343 1067H63.4423Z" fill="#F4CDE2"/>
<path fill-rule="evenodd" clip-rule="evenodd" d="M2997.6 1414.38C2969.21 1421.68 2946 1424.33 2916.84 1424.34C2889.48 1424.35 2868.46 1420.9 2840.23 1411.79C2824.94 1406.86 2818.22 1403.47 2787.59 1385.23C2758.39 1367.84 2739.43 1358.3 2727.39 1354.94C2708.4 1349.63 2683.8 1347.48 2663.88 1349.38C2639.26 1351.73 2625.27 1354.92 2585.4 1367.29C2516.67 1388.61 2483.33 1394.73 2441.86 1393.64C2401.51 1392.58 2380.1 1387.22 2315.38 1361.94C2268.22 1343.52 2245.04 1338.74 2209.53 1340.07C2180.41 1341.17 2165.32 1344.6 2117.78 1360.91C2086.62 1371.61 2073.35 1375.38 2052.39 1379.53C2038.45 1382.28 2035.56 1382.48 2009.22 1382.48C1971.04 1382.47 1955.79 1379.79 1919.94 1366.75C1858.56 1344.42 1827.2 1335.65 1793.83 1331.49L1787.98 1330.75L1788.58 1335.49C1788.92 1338.1 1790.54 1350 1792.18 1361.94C1794.92 1381.83 1795.18 1386.64 1795.26 1419.47C1795.34 1455.09 1795.04 1459.57 1790.88 1485.14C1784.84 1522.14 1770.33 1560.63 1751.57 1589.35C1719.14 1639 1669.25 1674.31 1606.9 1691.75C1571.56 1701.63 1544.89 1704.9 1499.5 1704.9C1462.41 1704.9 1447.68 1703.68 1420.25 1698.36C1384.55 1691.44 1350.89 1679.11 1325.05 1663.5C1261.49 1625.1 1220.83 1563.07 1208.12 1485.14C1203.99 1459.81 1203.66 1454.9 1203.67 1420.55C1203.69 1385.28 1204.74 1371.84 1210.06 1338.81C1211.1 1332.36 1211.17 1329.94 1210.3 1330.3C1209.63 1330.58 1197.85 1335.28 1184.11 1340.74C1170.38 1346.2 1154.99 1352.39 1149.92 1354.49C1107.66 1371.97 1082.23 1377.86 1059.56 1375.39C1036.14 1372.85 1019.13 1367.88 953.908 1344.55C893.082 1322.8 884.802 1320.74 857.871 1320.75C837.133 1320.75 828.381 1322.08 811.982 1327.7C795.674 1333.3 784.727 1338.48 759.075 1352.76C711.551 1379.22 671.997 1387.72 630.628 1380.37C600.05 1374.93 576.371 1365.7 521.456 1337.82C482.819 1318.2 478.876 1316.89 458.415 1316.89C434.402 1316.89 413.972 1320.36 386.947 1329.02C370.321 1334.35 358.523 1338.87 344.595 1345.25C340.848 1346.97 337.574 1348.37 337.32 1348.37C337.066 1348.37 330.605 1351.23 322.962 1354.73C315.32 1358.23 306.264 1362.37 302.839 1363.93C278.104 1375.23 260.564 1379.81 239.041 1380.6C225.967 1381.08 220.941 1380.78 209.391 1378.81C179.937 1373.81 164.169 1367.95 97.0086 1337.08C61.6062 1320.81 41.3495 1314.05 12.0659 1308.84C13.7573 1295.54 15.6229 1282.3 17.6602 1269.11C26.3522 1270.54 35.1201 1272.36 43.8565 1274.57C70.5183 1281.33 82.8928 1286.01 121.246 1303.82C124.829 1305.49 129.959 1307.84 132.646 1309.06C135.333 1310.27 140.218 1312.49 143.502 1313.98C153.423 1318.48 158.899 1320.86 166.301 1323.9C170.183 1325.49 174.824 1327.45 176.615 1328.25C184.345 1331.69 202.386 1336.7 214.523 1338.78C238.912 1342.96 257.897 1340 285.182 1327.76C286.376 1327.22 291.75 1324.74 297.124 1322.25C331.703 1306.19 355.068 1296.69 375.292 1290.46C408.595 1280.2 429.246 1276.59 455.631 1276.4C479.239 1276.23 499.818 1280.62 514.257 1288.9C520.34 1292.39 573.842 1319.07 579.94 1321.65C583.822 1323.3 587.974 1325.07 589.168 1325.6C619.004 1338.8 645.16 1343.96 670.948 1341.73C693.285 1339.8 715.855 1331.33 748.669 1312.57C770.011 1300.37 792.615 1290.67 810.695 1285.95C843.527 1277.38 875.432 1277.86 910.566 1287.46C922.885 1290.83 925.104 1291.58 986.522 1313.31C1026.27 1327.37 1037.91 1330.98 1052.05 1333.64C1074.81 1337.91 1092.39 1334.46 1133.63 1317.62C1148.91 1311.38 1192.89 1293.94 1210.71 1287.05C1216.39 1284.85 1221.39 1282.72 1221.83 1282.3C1222.27 1281.88 1225.04 1273.25 1227.99 1263.12C1237.04 1232.09 1244.2 1211.39 1257.08 1179.03C1263.24 1163.54 1266.47 1155.97 1275.58 1135.61C1276.51 1133.52 1281.6 1122.83 1286.88 1111.86C1292.16 1100.88 1296.48 1091.75 1296.48 1091.56C1296.48 1091.38 1123.41 1091.16 911.883 1091.07C700.355 1090.99 518.736 1090.78 508.286 1090.6C497.837 1090.42 353.47 1090.21 187.472 1090.13C140.988 1090.11 96.6128 1090.06 56.7212 1090C60.5498 1076.49 64.5628 1063.07 68.7574 1049.72C203.219 1050 407.424 1050.3 629.881 1050.52L1317.65 1051.19L1325.25 1037.91C1329.43 1030.61 1333.6 1023.3 1334.53 1021.67C1335.45 1020.04 1340.58 1011.54 1345.92 1002.78C1351.27 994.015 1356.59 985.272 1357.75 983.346C1363.84 973.179 1397.31 923.26 1408.13 908.202C1433.1 873.44 1470.06 825.222 1478.72 816.118C1482.66 811.967 1486.74 809.347 1491.89 807.657C1496.38 806.187 1507.34 807.315 1512.02 809.728C1514.39 810.952 1518.11 813.825 1520.28 816.114C1528.95 825.237 1565.91 873.459 1590.87 908.202C1601.74 923.332 1635.28 973.365 1641.25 983.356C1642.41 985.288 1647.32 993.348 1652.18 1001.27C1657.03 1009.19 1661.98 1017.38 1663.17 1019.46C1664.36 1021.55 1669 1029.61 1673.48 1037.38L1681.63 1051.49L1946.39 1052.14C2092.01 1052.5 2342.33 1052.87 2502.66 1052.96C2648.01 1053.04 2831.15 1053.37 2932.49 1053.73C2936.68 1067.17 2940.68 1080.69 2944.49 1094.29L2732 1093.94C2514.2 1093.57 2193.44 1092.98 2019.19 1092.62L1702.38 1091.96L1707.33 1101.81C1722.95 1132.9 1740.26 1173.01 1752.84 1207.25C1761.17 1229.92 1773.3 1268.93 1776.72 1284.07L1778.13 1290.3L1783.48 1290.54C1816.38 1292.04 1864.78 1303.27 1906.62 1319.11C1960.86 1339.64 1972.63 1342.29 2009.76 1342.35C2029.83 1342.38 2034.86 1342.03 2045.59 1339.89C2062.75 1336.47 2077.16 1332.33 2103.19 1323.3C2158.13 1304.26 2180.89 1299.53 2217.67 1299.53C2257.48 1299.53 2284.31 1306.01 2345.78 1330.48C2397.96 1351.26 2432.58 1357.07 2474.98 1352.16C2503.45 1348.87 2523.26 1344.19 2573.37 1328.93C2623.9 1313.54 2641.8 1309.83 2671.48 1308.58C2690.58 1307.78 2708.28 1309.29 2726.22 1313.26C2750.7 1318.67 2765.39 1325.23 2802.3 1347.27C2840.41 1370.02 2846.49 1372.81 2870.8 1378.74C2888.35 1383.03 2905.72 1384.63 2926.07 1383.85C2951.82 1382.86 2969.33 1380.44 2994.73 1373.35C2995.87 1386.98 2996.82 1400.65 2997.6 1414.38ZM1580.09 976.588C1555.18 939.428 1523.36 895.397 1505.18 872.923C1502.52 869.64 1500.03 866.835 1499.65 866.692C1498.51 866.26 1467.41 906.762 1450.78 930.346C1414.24 982.175 1392.08 1016.58 1367.86 1059.09C1304.68 1169.97 1266.42 1273.45 1254.09 1366.82C1251.11 1389.35 1249.96 1435.83 1251.93 1454.04C1256.69 1498.09 1267.26 1531.51 1285.68 1560.85C1313.57 1605.24 1361.09 1636.94 1418.62 1649.52C1468.39 1660.4 1535.67 1660.06 1584.18 1648.68C1605.3 1643.73 1632.6 1632.94 1648.78 1623.15C1707.36 1587.72 1738.39 1534.34 1747.07 1454.04C1749.03 1435.83 1747.89 1389.35 1744.91 1366.82C1729.51 1250.26 1671.56 1113.04 1580.09 976.588ZM104.846 1634.92C120.83 1602.26 153.455 1579.18 189.1 1575.32C195.085 1574.67 197.854 1574.36 200.623 1574.37C203.296 1574.38 205.969 1574.69 211.537 1575.31C264.833 1581.25 304.329 1622.3 308.117 1675.69C309.806 1699.5 301.309 1727.2 286.353 1746.63C283.712 1750.07 277.677 1756.5 272.94 1760.94C260.034 1773.02 246.071 1780.58 226.556 1786.06C214.147 1789.54 188.284 1789.55 175.457 1786.08C154.439 1780.39 139.043 1771.42 124.354 1756.33C92.616 1723.73 84.8969 1675.69 104.846 1634.92ZM970.122 1634.92C986.107 1602.26 1018.73 1579.18 1054.38 1575.32C1060.36 1574.67 1063.13 1574.36 1065.9 1574.37C1068.57 1574.38 1071.25 1574.69 1076.81 1575.31C1130.11 1581.25 1169.6 1622.3 1173.39 1675.69C1175.08 1699.5 1166.59 1727.2 1151.63 1746.63C1148.99 1750.07 1142.95 1756.5 1138.22 1760.94C1125.31 1773.02 1111.35 1780.58 1091.83 1786.06C1079.42 1789.54 1053.56 1789.55 1040.73 1786.08C1019.72 1780.39 1004.32 1771.42 989.631 1756.33C957.892 1723.73 950.173 1675.69 970.122 1634.92ZM1854.69 1614.64C1871.63 1593.34 1898.4 1578.61 1926.17 1575.33C1950.45 1572.47 1977.62 1579.34 1999.13 1593.79C2007.72 1599.57 2020.94 1612.85 2026.55 1621.35C2044.97 1649.23 2049.98 1682.06 2040.56 1713.08C2031.11 1744.19 2007.83 1769.31 1976.72 1781.97C1964.66 1786.88 1955.32 1788.45 1938.11 1788.47C1919.93 1788.5 1912.25 1787.06 1896.85 1780.72C1874.93 1771.69 1855.21 1753.78 1843.71 1732.44C1823.32 1694.63 1827.6 1648.71 1854.69 1614.64ZM2719.96 1614.64C2736.91 1593.34 2763.68 1578.61 2791.44 1575.33C2815.73 1572.47 2842.9 1579.34 2864.41 1593.79C2873 1599.57 2886.22 1612.85 2891.83 1621.35C2910.24 1649.23 2915.26 1682.06 2905.84 1713.08C2896.39 1744.19 2873.11 1769.31 2842 1781.97C2829.94 1786.88 2820.6 1788.45 2803.39 1788.47C2785.21 1788.5 2777.53 1787.06 2762.13 1780.72C2740.21 1771.69 2720.49 1753.78 2708.99 1732.44C2688.6 1694.63 2692.88 1648.71 2719.96 1614.64ZM277.039 1657.74C267.507 1629.71 245.499 1609.93 217.226 1603.98C186.747 1597.57 154.369 1610.2 136.442 1635.48C126.38 1649.67 122.854 1660.1 122.12 1677.82C121.436 1694.33 123.282 1703.67 129.84 1716.89C138.11 1733.57 150.788 1746.21 166.778 1753.72C179.232 1759.56 186.867 1761.19 201.585 1761.13C212.634 1761.09 216.015 1760.64 223.842 1758.16C251.584 1749.37 271.3 1728.65 278.319 1700.9C281.311 1689.07 280.702 1668.51 277.039 1657.74ZM1142.32 1657.74C1132.78 1629.71 1110.77 1609.93 1082.5 1603.98C1052.02 1597.57 1019.64 1610.2 1001.72 1635.48C991.656 1649.67 988.13 1660.1 987.396 1677.82C986.712 1694.33 988.558 1703.67 995.117 1716.89C1003.39 1733.57 1016.06 1746.21 1032.05 1753.72C1044.51 1759.56 1052.14 1761.19 1066.86 1761.13C1077.91 1761.09 1081.29 1760.64 1089.12 1758.16C1116.86 1749.37 1136.58 1728.65 1143.6 1700.9C1146.59 1689.07 1145.98 1668.51 1142.32 1657.74ZM2014.1 1657.74C2004.5 1629.44 1981.88 1609.33 1953.55 1603.91C1922.51 1597.97 1891.41 1610.24 1873.51 1635.48C1863.33 1649.83 1859.91 1660.06 1859.15 1678.4C1858.67 1689.86 1858.94 1693.41 1860.83 1700.9C1867.85 1728.65 1887.57 1749.37 1915.31 1758.16C1923.14 1760.64 1926.52 1761.09 1937.57 1761.13C1952.28 1761.19 1959.92 1759.56 1972.37 1753.72C1993.68 1743.71 2011.07 1721.83 2015.86 1698.98C2018.25 1687.61 2017.39 1667.42 2014.1 1657.74ZM2879.38 1657.74C2869.77 1629.44 2847.16 1609.33 2818.83 1603.91C2787.78 1597.97 2756.68 1610.24 2738.79 1635.48C2728.61 1649.83 2725.19 1660.06 2724.43 1678.4C2723.95 1689.86 2724.22 1693.41 2726.11 1700.9C2733.13 1728.65 2752.84 1749.37 2780.59 1758.16C2788.41 1760.64 2791.79 1761.09 2802.84 1761.13C2817.56 1761.19 2825.2 1759.56 2837.65 1753.72C2858.96 1743.71 2876.35 1721.83 2881.14 1698.98C2883.53 1687.61 2882.66 1667.42 2879.38 1657.74ZM582.764 1682.16C582.751 1655.46 600.097 1632.67 625.66 1625.8C628.878 1624.93 635.193 1624.19 639.695 1624.16C685.331 1623.76 713.474 1674.45 688.922 1712.83C678.092 1729.75 660.633 1739.18 640.238 1739.12C624.032 1739.07 612.43 1734.44 600.654 1723.34C588.622 1711.99 582.773 1698.52 582.764 1682.16ZM2307.19 1672.09C2310.85 1650.4 2328.12 1631.6 2349.71 1625.8C2362.73 1622.29 2378.76 1624.25 2391.14 1630.85C2410.46 1641.14 2421.67 1660 2421.66 1682.16C2421.66 1692.91 2419.9 1699.68 2414.42 1710.13C2408.02 1722.32 2391.62 1734.78 2377.77 1737.97C2370.61 1739.62 2356.36 1739.38 2349.08 1737.48C2320.76 1730.11 2302.28 1701.25 2307.19 1672.09ZM1319.28 1829.09C1329.73 1827.28 1344.63 1824.64 1352.39 1823.24C1360.15 1821.83 1368.68 1820.9 1371.34 1821.17C1381.93 1822.24 1390.2 1829.32 1393 1839.7C1394.24 1844.33 1394 1847.2 1389.88 1876.46C1388.71 1884.82 1386.25 1902.65 1384.41 1916.08C1382.58 1929.51 1379.89 1948.81 1378.42 1958.96C1376.96 1969.11 1375.24 1982.05 1374.6 1987.72C1372.62 2005.23 1366.41 2014.06 1353.98 2017.04C1342.23 2019.86 1329.81 2012.33 1326.3 2000.24C1326 1999.21 1325.74 1998.43 1325.54 1997.63C1324.47 1993.3 1325.25 1988.51 1331.64 1942.13C1333.08 1931.69 1334.08 1922.95 1333.86 1922.71C1333.63 1922.48 1326.52 1929 1318.05 1937.2C1304.11 1950.69 1274.95 1976.38 1264.8 1984.13C1237.68 2004.81 1227.93 2011.94 1212.76 2022.12C1129.76 2077.87 1043.85 2112.26 964.809 2121.39C949.573 2123.15 908.217 2123.16 894.784 2121.41C867.14 2117.81 832.134 2107.01 821.247 2098.72C813.745 2093 810.262 2082.94 812.629 2073.82C816.574 2058.61 832.562 2051.46 847.557 2058.2C909.044 2085.82 995.782 2077.53 1090.75 2034.93C1142.71 2011.63 1195.99 1977.97 1244.37 1937.89C1258.5 1926.18 1260.16 1924.71 1279.65 1906.61C1296.35 1891.1 1304.68 1882.67 1303.99 1881.98C1303.51 1881.49 1294.82 1882.91 1254.68 1890C1220.77 1896 1216.89 1896.48 1211.69 1895.32C1197.9 1892.26 1189.54 1878.14 1193.84 1865.21C1197.45 1854.34 1203.71 1849.76 1218.67 1847.03C1223.55 1846.14 1235.6 1843.97 1245.45 1842.21C1255.31 1840.45 1271.67 1837.52 1281.82 1835.7C1291.97 1833.88 1308.83 1830.91 1319.28 1829.09ZM1607.49 1835.32C1610.52 1829.1 1616.06 1824.09 1621.91 1822.29C1623.94 1821.67 1625.3 1821.23 1626.69 1821C1629.94 1820.47 1633.38 1821.11 1646.06 1823.28C1674.04 1828.08 1698.3 1832.32 1717.18 1835.7C1727.33 1837.52 1743.69 1840.45 1753.55 1842.21C1763.4 1843.97 1775.45 1846.14 1780.33 1847.03C1795.29 1849.76 1801.55 1854.34 1805.16 1865.21C1806.74 1869.96 1806.84 1871.7 1805.78 1876.27C1803.41 1886.54 1796.98 1893.17 1787.31 1895.32C1782.11 1896.48 1778.23 1896 1744.32 1890C1704.18 1882.91 1695.49 1881.49 1695.01 1881.98C1694.32 1882.67 1702.65 1891.1 1719.35 1906.61C1738.84 1924.71 1740.5 1926.18 1754.63 1937.89C1876.85 2039.14 2017.67 2090.5 2115.97 2069.68C2128.85 2066.95 2139.96 2063.36 2151.44 2058.2C2166.44 2051.46 2182.43 2058.61 2186.37 2073.82C2188.74 2082.94 2185.25 2093 2177.75 2098.72C2166.87 2107.01 2131.86 2117.81 2104.22 2121.41C2090.78 2123.16 2049.43 2123.15 2034.19 2121.39C1955.15 2112.26 1869.24 2077.87 1786.24 2022.12C1771.07 2011.94 1761.32 2004.81 1734.2 1984.13C1724.05 1976.38 1694.89 1950.69 1680.95 1937.2C1672.48 1929 1665.37 1922.48 1665.14 1922.71C1664.92 1922.95 1665.92 1931.69 1667.36 1942.13C1673.75 1988.51 1674.53 1993.3 1673.46 1997.63C1673.26 1998.43 1673 1999.21 1672.7 2000.24C1669.19 2012.33 1656.77 2019.86 1645.02 2017.04C1632.59 2014.06 1626.38 2005.23 1624.4 1987.72C1623.76 1982.05 1622.04 1969.11 1620.58 1958.96C1619.11 1948.81 1616.42 1929.51 1614.58 1916.08C1612.75 1902.65 1610 1882.87 1608.46 1872.12C1604.96 1847.64 1604.79 1840.88 1607.49 1835.32ZM407.747 2124.48C423.731 2091.81 456.356 2068.73 492.001 2064.88C497.986 2064.23 500.755 2063.91 503.524 2063.92C506.197 2063.93 508.87 2064.25 514.438 2064.87C567.734 2070.81 607.23 2111.86 611.017 2165.25C612.707 2189.06 604.21 2216.76 589.254 2236.19C586.613 2239.62 580.578 2246.06 575.841 2250.49C562.935 2262.58 548.972 2270.14 529.457 2275.62C517.048 2279.1 491.185 2279.11 478.358 2275.64C457.34 2269.94 441.944 2260.98 427.255 2245.89C395.517 2213.28 387.798 2165.25 407.747 2124.48ZM2417.06 2104.2C2434.01 2082.89 2460.78 2068.17 2488.54 2064.89C2512.83 2062.02 2540 2068.9 2561.51 2083.35C2570.09 2089.12 2583.32 2102.41 2588.93 2110.91C2607.34 2138.79 2612.36 2171.62 2602.94 2202.63C2593.49 2233.74 2570.21 2258.87 2539.1 2271.53C2527.04 2276.43 2517.7 2278.01 2500.48 2278.03C2482.3 2278.06 2474.63 2276.61 2459.23 2270.27C2437.31 2261.25 2417.59 2243.33 2406.08 2222C2385.7 2184.18 2389.97 2138.27 2417.06 2104.2ZM579.94 2147.3C570.408 2119.27 548.399 2099.48 520.127 2093.54C489.648 2087.13 457.27 2099.75 439.343 2125.04C429.281 2139.23 425.755 2149.65 425.021 2167.37C424.337 2183.88 426.183 2193.22 432.741 2206.45C441.011 2223.13 453.689 2235.77 469.679 2243.27C482.133 2249.12 489.768 2250.75 504.486 2250.69C515.535 2250.65 518.916 2250.2 526.743 2247.72C554.485 2238.93 574.201 2218.21 581.22 2190.45C584.212 2178.62 583.603 2158.07 579.94 2147.3ZM2576.48 2147.3C2566.87 2118.99 2544.26 2098.89 2515.93 2093.47C2484.88 2087.53 2453.78 2099.79 2435.88 2125.04C2425.71 2139.39 2422.29 2149.62 2421.53 2167.96C2421.05 2179.42 2421.31 2182.97 2423.21 2190.45C2430.23 2218.21 2449.94 2238.93 2477.69 2247.72C2485.51 2250.2 2488.89 2250.65 2499.94 2250.69C2514.66 2250.75 2522.3 2249.12 2534.75 2243.27C2556.06 2233.27 2573.45 2211.38 2578.24 2188.54C2580.62 2177.17 2579.76 2156.98 2576.48 2147.3ZM1416.08 2141.11C1433.02 2119.8 1459.79 2105.08 1487.56 2101.8C1511.84 2098.93 1539.01 2105.8 1560.52 2120.26C1569.11 2126.03 1582.33 2139.32 1587.94 2147.82C1606.36 2175.7 1611.37 2208.53 1601.95 2239.54C1592.5 2270.65 1569.22 2295.78 1538.11 2308.43C1526.05 2313.34 1516.71 2314.91 1499.5 2314.94C1481.32 2314.96 1473.64 2313.52 1458.24 2307.18C1436.32 2298.15 1416.6 2280.24 1405.1 2258.91C1384.71 2221.09 1388.99 2175.18 1416.08 2141.11ZM1575.49 2184.21C1565.89 2155.9 1543.27 2135.79 1514.94 2130.37C1483.9 2124.44 1452.8 2136.7 1434.9 2161.95C1424.72 2176.3 1421.3 2186.52 1420.54 2204.86C1420.06 2216.32 1420.33 2219.87 1422.22 2227.36C1429.24 2255.11 1448.96 2275.84 1476.7 2284.63C1484.53 2287.1 1487.91 2287.56 1498.96 2287.6C1513.68 2287.65 1521.31 2286.03 1533.76 2280.18C1555.07 2270.18 1572.46 2248.29 1577.25 2225.45C1579.64 2214.08 1578.78 2193.89 1575.49 2184.21ZM970.122 2519.6C986.107 2486.93 1018.73 2463.85 1054.38 2460C1060.36 2459.35 1063.13 2459.03 1065.9 2459.04C1068.57 2459.05 1071.25 2459.37 1076.81 2459.99C1130.11 2465.93 1169.6 2506.98 1173.39 2560.37C1175.08 2584.18 1166.59 2611.88 1151.63 2631.31C1148.99 2634.74 1142.95 2641.18 1138.22 2645.61C1125.31 2657.69 1111.35 2665.26 1091.83 2670.74C1079.42 2674.22 1053.56 2674.23 1040.73 2670.75C1019.72 2665.06 1004.32 2656.1 989.631 2641.01C957.892 2608.4 950.173 2560.36 970.122 2519.6ZM1854.69 2499.32C1871.63 2478.01 1898.4 2463.29 1926.17 2460.01C1950.45 2457.14 1977.62 2464.02 1999.13 2478.47C2007.72 2484.24 2020.94 2497.53 2026.55 2506.03C2044.97 2533.91 2049.98 2566.74 2040.56 2597.75C2031.11 2628.86 2007.83 2653.99 1976.72 2666.64C1964.66 2671.55 1955.32 2673.13 1938.11 2673.15C1919.93 2673.18 1912.25 2671.73 1896.85 2665.39C1874.93 2656.37 1855.21 2638.45 1843.71 2617.12C1823.32 2579.3 1827.6 2533.39 1854.69 2499.32ZM1142.32 2542.42C1132.78 2514.39 1110.77 2494.6 1082.5 2488.66C1052.02 2482.25 1019.64 2494.87 1001.72 2520.16C991.656 2534.35 988.13 2544.77 987.396 2562.49C986.712 2579 988.558 2588.34 995.117 2601.57C1003.39 2618.25 1016.06 2630.89 1032.05 2638.39C1044.51 2644.24 1052.14 2645.87 1066.86 2645.81C1077.91 2645.77 1081.29 2645.32 1089.12 2642.84C1116.86 2634.05 1136.58 2613.33 1143.6 2585.57C1146.59 2573.74 1145.98 2553.19 1142.32 2542.42ZM2014.1 2542.42C2004.5 2514.11 1981.88 2494.01 1953.55 2488.59C1922.51 2482.65 1891.41 2494.91 1873.51 2520.16C1863.33 2534.51 1859.91 2544.73 1859.15 2563.07C1858.67 2574.54 1858.94 2578.09 1860.83 2585.57C1867.85 2613.33 1887.57 2634.05 1915.31 2642.84C1923.14 2645.32 1926.52 2645.77 1937.57 2645.81C1952.28 2645.87 1959.92 2644.24 1972.37 2638.39C1993.68 2628.39 2011.07 2606.5 2015.86 2583.66C2018.25 2572.29 2017.39 2552.1 2014.1 2542.42ZM1458.77 2633.24C1465.24 2627.05 1474.41 2621.69 1482.46 2619.39C1490.75 2617.02 1505.55 2616.78 1513.47 2618.89C1548.35 2628.17 1566.58 2667 1551.21 2699.26C1542.16 2718.29 1526.99 2729.31 1505.47 2732.51C1489.14 2734.94 1470.22 2728.2 1457.56 2715.44C1435.01 2692.72 1435.56 2655.44 1458.77 2633.24Z" fill="#6F8BF5"/>
</svg>
