<svg width="3000" height="3000" viewBox="0 0 3000 3000" fill="none" xmlns="http://www.w3.org/2000/svg">
<circle cx="1500" cy="1500" r="1500" fill="white"/>
<circle cx="1007.5" cy="1608.5" r="127.5" fill="#F4CDE2"/>
<circle cx="1986.5" cy="1768.5" r="127.5" fill="#F4CDE2"/>
<path fill-rule="evenodd" clip-rule="evenodd" d="M1217.97 941.202C1216.96 941.436 1213.86 942.076 1211.09 942.625C1193.15 946.176 1173.47 959.658 1162.78 975.721C1141.47 1007.75 1146.53 1050.77 1174.7 1076.98C1198.5 1099.13 1232.83 1104.35 1262.02 1090.25C1271.59 1085.62 1275.95 1082.58 1283.28 1075.41C1304.94 1054.22 1312.42 1023.16 1302.77 994.396C1294.53 969.809 1275.14 951.22 1250.09 943.881C1243.74 942.023 1239.27 941.382 1230.82 941.12C1224.76 940.932 1218.98 940.969 1217.97 941.202ZM1598.93 1200.24C1579.22 1202.95 1558.48 1211.1 1540.11 1223.33C1528.79 1230.86 1512.38 1247.45 1504.52 1259.31C1477.28 1300.4 1473.82 1349.89 1495.09 1394.1C1513.49 1432.36 1547.62 1458.84 1590.45 1468.1C1602.98 1470.81 1629.49 1471.02 1641.9 1468.52C1670.39 1462.77 1692.51 1450.99 1712.65 1430.84C1728.23 1415.26 1737.74 1400.57 1744.72 1381.29C1757.19 1346.89 1755.19 1308.76 1739.19 1275.7C1732.58 1262.03 1724.74 1251.17 1713.11 1239.54C1693.33 1219.78 1671.08 1207.73 1643.62 1201.92C1633.23 1199.72 1609.22 1198.81 1598.93 1200.24ZM2163.26 1285.06C2135.54 1291.25 2115.5 1310.71 2108.06 1338.62C2105.97 1346.49 2105.91 1362.57 2107.95 1370.94C2111.23 1384.39 2118.11 1396.64 2127.59 1405.9C2136.83 1414.92 2147.91 1421.3 2159.96 1424.53C2168.25 1426.74 2187.55 1426.71 2195.7 1424.47C2209.16 1420.76 2220.26 1414.08 2229.85 1403.92C2242.73 1390.28 2249.2 1373.81 2249.2 1354.67C2249.21 1334.96 2242.26 1318.83 2227.5 1304.24C2218.11 1294.97 2209.34 1289.72 2197.58 1286.35C2188.38 1283.71 2172.03 1283.1 2163.26 1285.06ZM987.138 1451.43C965.92 1453.91 937.644 1464.61 919.182 1477.13C882.545 1501.99 857.821 1541.57 851.746 1585.08C849.722 1599.58 850.342 1624.11 853.063 1637.07C864.18 1690.07 899.376 1732.38 948.821 1752.2C960.46 1756.86 976.021 1760.83 988.335 1762.26C1001.66 1763.82 1025.07 1762.93 1036.97 1760.41C1079.07 1751.51 1113.5 1728.44 1136.88 1693.46C1148.3 1676.38 1155.5 1659.16 1160.26 1637.53C1162.55 1627.14 1162.79 1624.32 1162.82 1607.28C1162.85 1590.14 1162.62 1587.43 1160.3 1576.56C1155.72 1555.09 1148.39 1537.45 1136.87 1520.15C1111.56 1482.16 1070.64 1457.06 1024.82 1451.44C1016.1 1450.37 996.243 1450.36 987.138 1451.43ZM1035.47 1493.93C1076.42 1504.41 1108.45 1535.97 1119.58 1576.8C1122.44 1587.3 1122.51 1588.03 1122.52 1606.82C1122.53 1625.66 1122.47 1626.3 1119.59 1636.83C1109.06 1675.31 1079.73 1706.1 1042.23 1718.02C1030.61 1721.72 1021.27 1723.07 1006.9 1723.12C987.443 1723.18 971.699 1719.6 954.796 1711.26C920.546 1694.36 896.186 1660.69 891.316 1623.5C889.516 1609.75 889.531 1602.36 891.385 1589.56C896.809 1552.15 919.793 1520.4 954.038 1503C969.055 1495.38 981.386 1492.01 998.185 1490.93C1011.06 1490.1 1024.89 1491.22 1035.47 1493.93ZM1599.36 1579.3C1589.89 1581.44 1584.65 1583.38 1575.33 1588.2C1553.15 1599.66 1536.33 1620.89 1529.77 1645.69C1527.84 1652.98 1527.42 1656.7 1527.35 1667.33C1527.23 1684.84 1529.53 1694.58 1537.41 1709.97C1553.54 1741.46 1586.53 1760.17 1622.59 1758.29C1645.19 1757.11 1664.15 1748.73 1680.67 1732.64C1705.1 1708.85 1714.02 1674.55 1704.21 1642.14C1695.13 1612.14 1671.05 1588.7 1641.02 1580.61C1631.42 1578.02 1608.24 1577.29 1599.36 1579.3ZM1962.62 1609.13C1941.41 1611.62 1913.13 1622.31 1894.67 1634.84C1858.03 1659.7 1833.31 1699.27 1827.23 1742.79C1825.21 1757.29 1825.83 1781.81 1828.55 1794.78C1839.67 1847.77 1874.86 1890.09 1924.31 1909.9C1935.95 1914.57 1951.51 1918.53 1963.82 1919.97C1977.15 1921.53 2000.56 1920.64 2012.46 1918.12C2054.56 1909.22 2088.99 1886.15 2112.37 1851.17C2123.79 1834.09 2130.99 1816.86 2135.75 1795.24C2138.04 1784.84 2138.28 1782.03 2138.3 1764.98C2138.33 1747.84 2138.11 1745.13 2135.79 1734.27C2131.21 1712.8 2123.87 1695.15 2112.36 1677.86C2087.05 1639.86 2046.13 1614.77 2000.31 1609.15C1991.58 1608.08 1971.73 1608.07 1962.62 1609.13ZM2010.96 1651.63C2051.9 1662.12 2083.93 1693.68 2095.06 1734.51C2097.92 1745 2098 1745.74 2098.01 1764.52C2098.02 1783.36 2097.95 1784.01 2095.07 1794.53C2084.55 1833.02 2055.22 1863.8 2017.72 1875.73C2006.1 1879.43 1996.75 1880.77 1982.39 1880.82C1962.93 1880.89 1947.19 1877.31 1930.28 1868.97C1896.03 1852.07 1871.67 1818.39 1866.8 1781.21C1865 1767.46 1865.02 1760.07 1866.87 1747.27C1872.3 1709.86 1895.28 1678.1 1929.53 1660.71C1944.54 1653.08 1956.87 1649.71 1973.67 1648.64C1986.54 1647.81 2000.37 1648.92 2010.96 1651.63ZM634.327 1728.82C633.318 1729.05 630.221 1729.69 627.445 1730.24C609.507 1733.79 589.829 1747.27 579.142 1763.34C557.828 1795.37 562.889 1838.39 591.056 1864.6C614.858 1886.75 649.194 1891.96 678.376 1877.86C687.947 1873.24 692.306 1870.19 699.638 1863.02C721.304 1841.84 728.776 1810.78 719.13 1782.01C710.885 1757.42 691.498 1738.83 666.446 1731.5C660.104 1729.64 655.631 1729 647.175 1728.73C641.118 1728.55 635.337 1728.58 634.327 1728.82ZM2325.24 1773.68C2315.77 1775.82 2310.53 1777.76 2301.21 1782.58C2279.03 1794.04 2262.21 1815.27 2255.65 1840.08C2253.72 1847.37 2253.3 1851.08 2253.23 1861.71C2253.11 1879.22 2255.41 1888.96 2263.29 1904.35C2279.42 1935.84 2312.41 1954.56 2348.47 1952.67C2371.07 1951.49 2390.03 1943.12 2406.55 1927.02C2430.98 1903.23 2439.9 1868.94 2430.09 1836.52C2421.01 1806.52 2396.93 1783.08 2366.9 1774.99C2357.3 1772.4 2334.12 1771.68 2325.24 1773.68ZM1289.67 1787.97C1269.97 1790.68 1249.22 1798.83 1230.85 1811.06C1219.53 1818.59 1203.13 1835.18 1195.26 1847.04C1168.03 1888.13 1164.56 1937.62 1185.83 1981.83C1204.23 2020.09 1238.36 2046.57 1281.19 2055.83C1293.72 2058.54 1320.24 2058.75 1332.64 2056.25C1361.14 2050.5 1383.25 2038.72 1403.4 2018.57C1418.97 2002.99 1428.48 1988.3 1435.47 1969.02C1447.93 1934.63 1445.93 1896.49 1429.94 1863.43C1423.32 1849.76 1415.49 1838.9 1403.85 1827.27C1384.08 1807.51 1361.83 1795.47 1334.37 1789.65C1323.97 1787.45 1299.96 1786.55 1289.67 1787.97Z" fill="#6F8BF5"/>
</svg>
