<svg id="svg" version="1.1" xmlns="http://www.w3.org/2000/svg" xmlns:xlink="http://www.w3.org/1999/xlink" width="400" height="408.51063829787233" viewBox="0, 0, 400,408.51063829787233"><g id="svgg"><path id="path0" d="M164.800 26.628 C 164.250 26.705,160.470 27.061,156.400 27.419 C 149.991 27.983,145.381 28.886,144.520 29.746 C 144.428 29.838,144.620 30.552,144.946 31.333 C 145.912 33.645,145.810 33.643,172.600 31.975 C 189.474 30.926,208.752 31.065,229.600 32.389 C 244.317 33.323,246.385 33.300,247.616 32.185 C 249.983 30.044,247.244 28.543,238.799 27.352 C 234.562 26.755,168.500 26.108,164.800 26.628 M135.600 34.812 C 126.426 35.526,120.400 37.391,120.400 39.518 C 120.400 41.381,119.650 41.942,116.600 42.360 C 108.113 43.525,103.200 45.657,103.200 48.176 C 103.200 50.230,102.161 51.193,99.566 51.545 C 96.764 51.925,93.223 53.879,90.690 56.443 C 88.135 59.028,85.610 60.717,82.867 61.677 C 80.073 62.654,79.350 63.278,79.029 64.986 C 78.541 67.587,77.266 68.535,73.107 69.388 C 71.576 69.702,69.200 71.887,69.200 72.982 C 69.200 75.709,67.355 77.600,64.694 77.600 C 63.201 77.600,60.977 80.245,60.408 82.698 C 59.881 84.970,58.412 86.594,56.469 87.053 C 54.864 87.432,53.699 88.696,52.991 90.829 C 52.086 93.552,50.414 95.669,48.267 96.808 C 47.247 97.349,46.308 98.064,46.182 98.396 C 46.055 98.728,45.108 100.530,44.076 102.400 C 43.044 104.270,41.930 106.610,41.600 107.600 C 41.101 109.098,40.765 109.474,39.600 109.839 C 38.151 110.293,35.759 113.224,35.425 114.954 C 33.911 122.803,33.353 124.606,32.171 125.471 C 31.773 125.762,31.045 126.000,30.553 126.000 C 29.452 126.000,27.754 129.316,27.221 132.506 C 25.439 143.174,25.890 146.000,29.377 146.000 C 30.566 146.000,33.137 137.047,33.952 130.071 C 34.260 127.433,34.708 126.817,36.326 126.806 C 36.836 126.803,37.599 126.615,38.022 126.388 C 39.394 125.654,39.813 124.552,42.652 114.200 C 43.254 112.006,44.031 111.200,45.545 111.200 C 47.055 111.200,49.823 108.090,50.579 105.545 C 51.451 102.609,52.161 101.704,54.029 101.144 C 55.567 100.683,57.997 98.399,58.002 97.409 C 58.016 94.851,60.112 91.866,62.661 90.774 C 64.151 90.135,64.527 89.702,65.546 87.455 C 67.264 83.665,74.757 76.092,78.805 74.054 C 81.357 72.769,81.756 72.413,82.230 71.000 C 83.083 68.459,84.527 67.510,88.910 66.608 C 90.318 66.318,93.200 63.742,93.200 62.772 C 93.200 60.797,94.973 59.200,97.168 59.200 C 98.500 59.200,104.047 55.583,104.439 54.460 C 104.959 52.969,108.803 50.919,112.484 50.171 C 117.254 49.201,120.544 47.351,120.841 45.473 C 121.243 42.935,122.726 42.257,129.272 41.624 C 135.129 41.057,142.199 39.349,143.540 38.176 C 144.517 37.321,141.954 34.356,140.326 34.458 C 139.817 34.490,137.690 34.649,135.600 34.812 M250.211 35.305 C 249.496 36.327,249.403 38.231,250.051 38.631 C 251.335 39.425,258.607 40.902,264.783 41.624 C 272.621 42.540,272.800 42.616,272.800 45.043 C 272.800 47.213,274.440 48.478,278.667 49.567 C 280.170 49.954,282.278 50.660,283.351 51.136 C 284.424 51.611,285.647 52.000,286.069 52.000 C 287.040 52.000,288.800 53.732,288.800 54.688 C 288.800 55.633,292.463 57.832,294.976 58.395 C 298.290 59.137,300.292 60.600,301.172 62.921 C 301.479 63.733,302.214 64.316,303.835 65.032 C 305.066 65.577,307.092 66.684,308.337 67.492 C 309.582 68.300,311.140 69.240,311.800 69.581 C 312.608 69.998,313.066 70.586,313.201 71.381 C 313.443 72.809,318.067 76.879,320.089 77.444 C 321.133 77.736,321.604 78.235,322.400 79.892 C 323.575 82.338,326.419 85.391,328.400 86.334 C 329.222 86.725,330.086 87.573,330.493 88.388 C 331.687 90.782,335.574 95.178,337.035 95.789 C 337.792 96.105,338.532 96.687,338.679 97.082 C 338.826 97.477,339.460 98.446,340.088 99.236 C 340.717 100.025,341.816 102.170,342.531 104.002 C 343.910 107.532,344.042 107.670,346.698 108.378 C 348.725 108.919,349.389 109.974,349.808 113.323 C 350.136 115.952,352.860 122.000,353.716 122.000 C 355.263 122.000,357.098 125.444,357.852 129.765 C 358.621 134.168,360.827 138.823,362.733 140.062 C 364.847 141.438,365.868 143.232,366.399 146.507 C 366.945 149.867,369.831 161.964,370.168 162.301 C 370.685 162.819,372.481 161.503,373.021 160.212 C 373.959 157.966,373.765 149.562,372.650 144.163 C 371.625 139.200,371.080 138.155,368.906 136.999 C 367.758 136.388,367.290 135.817,366.939 134.599 C 363.097 121.271,362.818 120.643,360.572 120.221 C 358.624 119.856,357.758 118.850,357.415 116.553 C 357.032 113.995,353.485 106.465,352.527 106.176 C 349.789 105.348,348.183 103.414,347.791 100.471 C 347.290 96.707,345.924 94.910,342.912 94.055 C 341.162 93.558,341.001 93.290,340.227 89.600 C 339.926 88.169,337.259 84.815,335.437 83.577 C 334.583 82.997,333.595 81.976,333.242 81.309 C 332.366 79.653,328.546 76.478,326.873 76.016 C 325.110 75.529,324.000 74.510,324.000 73.378 C 324.000 71.867,319.875 68.401,318.068 68.394 C 315.636 68.384,314.656 67.638,314.190 65.440 C 313.729 63.270,311.699 60.906,310.002 60.565 C 306.034 59.768,304.406 58.477,304.401 56.127 C 304.400 55.121,302.710 53.775,300.976 53.398 C 299.353 53.045,291.935 50.789,291.200 50.424 C 290.870 50.261,290.345 49.333,290.033 48.363 C 289.721 47.393,289.181 46.371,288.833 46.091 C 287.511 45.028,285.334 44.086,283.600 43.826 C 282.610 43.678,280.180 43.096,278.200 42.532 C 276.220 41.969,274.378 41.446,274.107 41.369 C 273.836 41.293,273.500 40.517,273.361 39.645 C 272.957 37.121,268.174 35.529,259.400 34.999 C 257.420 34.879,254.680 34.703,253.311 34.607 C 251.099 34.452,250.755 34.529,250.211 35.305 M20.703 147.700 C 19.693 149.241,18.362 155.894,17.560 163.400 C 16.642 171.990,16.433 172.716,14.325 174.620 C 10.742 177.857,9.025 199.053,10.373 223.400 C 11.109 236.676,12.050 241.471,14.181 242.788 C 16.095 243.971,16.673 245.844,17.578 253.800 C 19.028 266.534,20.317 270.648,22.733 270.256 C 24.920 269.901,25.148 269.326,24.939 264.677 C 24.359 251.776,22.232 238.998,20.459 237.756 C 18.068 236.081,17.623 232.647,17.328 213.600 C 16.969 190.414,17.666 182.171,20.183 179.815 C 22.569 177.583,23.868 169.872,24.957 151.471 C 25.210 147.212,22.560 144.864,20.703 147.700 M172.648 164.057 C 169.123 165.448,168.991 165.648,170.499 167.309 C 171.215 168.097,172.358 169.383,173.039 170.167 L 174.279 171.591 175.867 170.080 C 178.719 167.368,182.279 166.379,187.314 166.901 C 190.567 167.239,192.024 167.219,193.942 166.812 C 198.805 165.780,196.384 165.318,187.400 165.564 C 183.155 165.680,177.400 164.769,175.278 163.646 C 174.824 163.405,173.956 163.541,172.648 164.057 M71.917 164.800 C 71.146 166.792,71.918 167.691,75.205 168.630 C 76.852 169.100,78.380 169.549,78.600 169.628 C 78.820 169.706,79.430 169.532,79.956 169.241 C 83.083 167.510,89.047 166.537,94.000 166.949 C 97.538 167.244,98.446 167.196,99.761 166.644 C 102.126 165.653,101.326 165.462,95.101 165.535 C 91.067 165.582,87.996 165.373,84.600 164.820 C 76.835 163.554,72.402 163.547,71.917 164.800 M377.593 164.928 C 375.617 165.914,375.502 166.756,375.654 179.145 C 375.852 195.177,375.832 222.615,375.610 237.945 L 375.423 250.889 376.534 251.845 C 378.642 253.658,379.024 253.150,380.374 246.735 C 382.736 235.513,382.574 180.897,380.146 170.000 C 378.876 164.300,378.871 164.291,377.593 164.928 M216.000 171.067 C 215.450 171.154,213.785 171.602,212.300 172.063 L 209.600 172.900 209.647 175.550 C 209.736 180.540,209.969 180.888,212.800 180.276 C 213.350 180.157,214.538 180.046,215.441 180.030 C 217.075 180.000,217.087 179.988,218.367 177.211 L 219.653 174.421 218.407 172.611 C 217.722 171.615,217.125 170.825,217.081 170.854 C 217.036 170.884,216.550 170.980,216.000 171.067 M118.000 171.666 C 113.867 172.147,113.736 172.211,113.458 173.894 C 112.022 182.583,115.103 188.913,118.026 183.279 C 119.286 180.851,120.341 179.814,122.160 179.213 C 123.144 178.888,123.686 178.285,124.519 176.587 L 125.600 174.383 124.550 172.796 C 123.389 171.042,123.380 171.040,118.000 171.666 M173.836 178.100 C 173.279 181.708,173.265 183.212,173.764 185.522 C 174.467 188.769,174.531 188.804,175.648 186.521 C 176.799 184.168,176.792 182.170,175.620 179.100 C 174.626 176.494,174.127 176.214,173.836 178.100 M80.180 183.850 C 79.549 189.741,80.349 195.733,81.613 194.588 C 83.457 192.919,83.488 189.327,81.710 183.300 C 80.890 180.520,80.522 180.652,80.180 183.850 M298.900 189.911 C 295.912 191.419,295.534 191.982,296.412 193.622 C 297.575 195.796,304.036 195.971,305.835 193.878 C 307.280 192.197,307.063 191.488,304.606 189.857 C 301.985 188.116,302.465 188.112,298.900 189.911 M121.854 189.629 C 120.532 190.669,120.535 191.079,121.875 192.478 C 124.113 194.814,126.506 192.585,124.428 190.100 C 123.144 188.563,123.197 188.573,121.854 189.629 M216.189 189.612 C 215.171 190.737,215.785 192.550,217.242 192.720 C 219.035 192.930,219.439 191.860,218.187 190.218 C 216.911 188.546,217.102 188.604,216.189 189.612 M293.007 198.787 C 292.414 199.933,292.422 200.000,293.143 200.000 C 293.642 200.000,293.974 199.650,294.100 198.990 C 294.383 197.509,293.731 197.387,293.007 198.787 M130.615 199.019 C 129.846 199.601,129.852 199.633,130.914 200.696 L 131.998 201.780 132.874 200.904 C 134.385 199.393,132.358 197.701,130.615 199.019 M224.872 199.273 C 224.954 199.833,225.394 200.251,226.098 200.438 C 227.555 200.825,227.891 200.169,226.731 199.202 C 225.478 198.158,224.713 198.187,224.872 199.273 M310.400 199.538 C 310.400 200.232,310.475 200.800,310.567 200.800 C 310.659 200.800,311.019 200.909,311.367 201.043 C 312.304 201.402,312.180 199.887,311.200 199.000 C 310.416 198.291,310.400 198.301,310.400 199.538 M185.755 201.758 C 180.135 202.372,179.602 203.110,178.862 211.308 C 178.499 215.320,177.863 216.769,176.438 216.825 C 175.594 216.859,177.442 217.617,179.000 217.876 C 179.660 217.985,180.260 218.134,180.334 218.205 C 180.698 218.557,183.174 217.320,184.538 216.104 C 185.384 215.350,187.173 214.024,188.514 213.157 L 190.953 211.581 197.576 211.691 L 204.200 211.800 204.400 216.860 C 204.566 221.061,204.727 222.060,205.348 222.745 C 208.618 226.349,217.639 222.139,215.845 217.846 C 214.793 215.328,209.254 211.600,206.565 211.600 L 204.400 211.600 204.400 210.040 C 204.400 207.886,201.242 204.936,197.773 203.848 C 196.468 203.438,194.551 202.675,193.513 202.152 C 191.453 201.112,191.589 201.119,185.755 201.758 M87.012 202.925 C 85.024 205.959,85.151 208.506,87.396 210.658 L 89.191 212.378 92.368 210.521 L 95.545 208.664 95.673 205.399 L 95.800 202.133 91.726 202.041 C 87.800 201.952,87.629 201.984,87.012 202.925 M104.500 206.796 C 102.043 208.294,104.611 210.029,107.930 209.113 L 109.374 208.714 107.893 207.357 C 106.157 205.766,106.181 205.770,104.500 206.796 M284.298 207.425 C 283.405 208.610,283.412 209.200,284.320 209.200 C 285.226 209.200,286.000 208.446,286.000 207.563 C 286.000 206.490,285.061 206.414,284.298 207.425 M139.752 207.781 C 139.424 208.636,139.919 209.200,141.000 209.200 C 142.337 209.200,142.575 208.568,141.518 207.827 C 140.406 207.049,140.037 207.039,139.752 207.781 M114.387 215.834 C 113.867 217.201,114.183 217.608,115.724 217.560 C 118.821 217.463,119.142 217.076,117.111 215.886 C 114.846 214.559,114.872 214.559,114.387 215.834 M274.600 216.384 L 273.000 217.108 274.128 217.555 C 276.011 218.301,277.861 217.546,277.359 216.236 C 277.055 215.446,276.620 215.469,274.600 216.384 M150.400 216.769 C 150.400 217.169,152.381 217.911,154.241 218.208 C 154.878 218.310,155.879 218.503,156.465 218.637 C 157.742 218.928,158.947 217.392,157.941 216.755 C 157.210 216.292,150.400 216.304,150.400 216.769 M249.435 216.785 L 247.871 217.000 249.235 217.646 C 251.158 218.556,251.324 218.557,251.655 217.663 C 252.016 216.687,251.532 216.496,249.435 216.785 M300.991 224.809 C 300.296 225.578,300.306 225.600,301.338 225.600 C 301.996 225.600,302.400 225.381,302.400 225.024 C 302.400 224.069,301.751 223.970,300.991 224.809 M222.666 225.068 C 222.447 225.286,225.297 227.200,225.841 227.200 C 225.928 227.200,226.000 226.846,226.000 226.414 C 226.000 225.231,223.509 224.225,222.666 225.068 M199.628 230.682 C 199.613 230.947,198.790 231.782,197.799 232.539 C 195.810 234.057,196.001 234.400,198.833 234.400 C 200.340 234.400,200.399 234.350,200.372 233.100 C 200.345 231.846,199.685 229.702,199.628 230.682 M293.212 231.097 C 293.205 231.371,292.467 232.126,291.572 232.774 L 289.944 233.953 291.332 234.214 C 293.600 234.639,294.221 234.362,294.061 232.993 C 293.913 231.729,293.234 230.212,293.212 231.097 M231.782 233.364 C 231.096 233.865,231.164 233.965,232.730 234.764 C 234.263 235.547,234.439 235.564,234.672 234.958 C 235.255 233.437,233.219 232.313,231.782 233.364 M241.637 241.361 C 240.386 242.692,241.220 243.200,244.656 243.200 C 248.091 243.200,248.626 242.741,246.297 241.795 C 242.962 240.441,242.538 240.401,241.637 241.361 M147.428 241.725 C 146.670 242.284,146.671 242.303,147.502 242.747 C 148.489 243.276,152.255 243.358,152.564 242.858 C 153.141 241.925,148.535 240.908,147.428 241.725 M180.529 241.730 C 178.587 242.448,178.600 242.679,180.601 242.979 C 182.290 243.233,184.489 243.009,185.354 242.496 C 186.778 241.651,182.556 240.982,180.529 241.730 M275.000 242.149 L 273.800 242.661 275.214 242.892 C 277.780 243.310,280.054 242.429,277.900 241.852 C 276.680 241.525,276.390 241.555,275.000 242.149 M369.247 257.343 C 368.815 258.741,368.000 262.206,367.435 265.043 C 366.871 267.879,366.217 271.134,365.981 272.275 C 365.469 274.762,364.234 276.705,362.600 277.592 C 361.866 277.991,360.903 279.175,360.120 280.642 C 358.856 283.009,358.468 284.287,357.578 289.000 C 357.168 291.175,356.904 291.610,354.766 293.637 C 352.146 296.120,350.353 299.711,349.855 303.467 C 349.324 307.474,348.068 309.200,345.682 309.200 C 344.665 309.200,343.858 310.202,342.980 312.554 C 342.578 313.629,341.606 315.519,340.818 316.754 C 340.030 317.989,339.166 319.499,338.897 320.109 C 338.578 320.833,338.007 321.299,337.252 321.450 C 335.993 321.701,332.362 325.168,330.619 327.782 C 330.039 328.652,328.876 329.822,328.035 330.382 C 326.029 331.717,322.905 335.411,322.598 336.811 C 322.310 338.122,321.504 338.904,319.600 339.720 C 317.253 340.726,314.208 343.729,313.652 345.585 C 313.297 346.770,312.852 347.354,312.078 347.652 C 308.489 349.035,302.331 353.047,301.460 354.570 C 300.525 356.205,298.445 357.429,295.561 358.040 C 291.860 358.823,288.400 360.993,288.400 362.531 C 288.400 364.706,285.634 366.143,279.008 367.411 C 275.532 368.076,272.400 369.690,272.400 370.816 C 272.400 372.662,270.813 373.575,265.800 374.612 C 252.493 377.363,250.800 378.038,250.800 380.596 C 250.800 382.826,250.111 383.200,246.005 383.200 C 244.497 383.200,239.964 383.467,235.931 383.793 C 200.254 386.678,191.618 386.727,163.800 384.207 C 160.280 383.888,154.015 383.503,149.877 383.351 L 142.354 383.075 142.477 385.199 L 142.600 387.323 145.200 388.296 C 153.448 391.383,235.189 391.951,245.600 388.994 C 250.964 387.471,251.200 387.320,251.200 385.416 C 251.200 382.983,251.645 382.773,257.687 382.360 C 269.435 381.556,272.776 380.599,275.894 377.149 C 277.567 375.297,280.070 373.920,283.294 373.078 C 286.666 372.198,288.887 370.824,289.689 369.123 C 290.497 367.409,290.607 367.327,293.097 366.604 C 301.819 364.071,304.100 362.815,304.763 360.182 C 305.230 358.325,306.185 357.422,308.100 357.027 C 308.705 356.902,309.661 356.704,310.224 356.586 C 311.827 356.252,314.800 353.297,314.800 352.038 C 314.800 350.323,315.812 349.277,317.753 348.986 C 319.954 348.656,323.605 345.876,324.652 343.732 C 325.169 342.672,325.919 341.953,327.083 341.400 C 328.952 340.512,332.744 337.085,333.797 335.332 C 334.171 334.710,335.034 333.840,335.715 333.400 C 337.516 332.236,340.400 327.843,340.400 326.263 C 340.400 324.455,341.324 323.340,343.090 323.016 C 345.938 322.494,347.617 320.160,348.188 315.928 C 348.508 313.556,349.613 312.148,351.626 311.545 C 352.497 311.284,353.371 310.875,353.569 310.635 C 354.231 309.834,357.101 302.221,357.385 300.512 C 357.747 298.337,358.902 296.892,360.521 296.589 C 362.311 296.253,363.145 294.782,365.166 288.400 C 367.596 280.723,367.521 280.880,369.009 280.342 C 372.987 278.904,375.676 258.684,372.278 255.764 C 370.563 254.291,370.118 254.523,369.247 257.343 M27.907 271.663 C 26.240 272.272,25.761 274.360,26.339 278.494 C 26.593 280.312,26.801 282.541,26.801 283.446 C 26.800 286.055,29.331 290.798,30.728 290.806 C 32.837 290.818,34.347 293.929,34.997 299.600 C 35.437 303.436,37.293 306.769,39.371 307.459 C 40.016 307.673,40.683 308.107,40.854 308.424 C 41.025 308.741,42.348 311.453,43.795 314.451 C 46.361 319.767,46.469 319.918,48.187 320.574 C 50.299 321.381,52.518 323.714,53.200 325.848 C 53.787 327.684,55.456 329.600,56.469 329.600 C 57.869 329.600,59.556 331.675,60.193 334.183 C 60.963 337.208,62.940 339.392,65.243 339.760 C 67.243 340.080,68.321 341.167,68.645 343.190 C 68.994 345.374,71.771 348.000,73.732 348.000 C 75.788 348.000,77.721 349.502,78.200 351.471 C 78.752 353.742,79.765 354.711,82.370 355.460 C 86.383 356.614,90.800 359.544,90.800 361.050 C 90.800 361.319,92.015 362.339,93.500 363.317 C 97.116 365.698,97.748 366.000,99.114 366.000 C 101.793 366.000,103.573 367.392,103.613 369.519 C 103.631 370.514,105.206 371.504,108.495 372.586 C 113.519 374.240,117.597 376.329,118.335 377.627 C 119.636 379.919,125.831 381.659,135.400 382.421 C 137.820 382.613,140.277 382.885,140.861 383.025 C 141.904 383.274,141.924 383.241,142.061 380.972 L 142.200 378.666 140.600 377.966 C 138.799 377.178,132.716 375.554,128.816 374.820 C 125.503 374.197,124.224 373.520,121.963 371.194 C 119.846 369.017,117.160 367.854,112.270 367.001 C 108.247 366.298,105.589 364.765,104.961 362.785 C 104.412 361.054,99.428 357.845,96.637 357.427 C 94.331 357.081,92.960 355.976,92.625 354.195 C 92.331 352.624,89.767 350.403,88.240 350.396 C 85.831 350.385,81.902 347.543,81.371 345.427 C 81.241 344.909,80.281 344.131,78.880 343.409 C 75.394 341.613,67.955 333.858,66.174 330.165 C 64.675 327.057,63.944 326.236,62.331 325.854 C 60.288 325.369,58.872 323.726,58.014 320.846 C 57.130 317.879,56.163 316.743,53.906 316.020 C 52.181 315.468,50.973 314.111,50.579 312.281 C 49.935 309.290,47.346 306.000,45.635 306.000 C 43.471 306.000,43.257 305.552,40.854 295.997 C 39.805 291.822,38.865 290.556,36.628 290.304 C 34.275 290.039,34.296 290.064,33.949 287.086 C 33.503 283.260,31.676 275.325,30.741 273.151 C 29.862 271.108,29.682 271.014,27.907 271.663 " stroke="none" fill="#888fa1" fill-rule="evenodd"></path><path id="path1" d="M0.000 204.200 L 0.000 408.400 200.000 408.400 L 400.000 408.400 400.000 204.200 L 400.000 0.000 200.000 0.000 L 0.000 0.000 0.000 204.200 M215.200 17.761 C 220.789 18.525,224.559 19.428,227.016 20.590 C 228.988 21.523,230.130 21.718,248.014 24.169 C 253.393 24.906,256.256 25.988,258.743 28.225 C 260.848 30.117,262.404 30.601,272.859 32.618 C 277.012 33.419,279.993 35.003,281.428 37.171 C 282.567 38.892,283.120 39.170,287.879 40.417 C 291.560 41.382,295.347 43.597,296.985 45.745 C 297.982 47.052,300.021 48.144,304.529 49.786 C 306.924 50.658,308.133 51.708,309.296 53.924 C 310.054 55.371,310.580 55.803,312.560 56.604 C 315.431 57.766,317.280 59.485,318.359 61.994 C 319.109 63.738,319.363 63.952,321.666 64.792 C 323.722 65.542,324.760 66.297,327.580 69.095 C 329.461 70.961,331.630 72.913,332.400 73.431 C 338.222 77.351,341.235 80.728,343.834 86.246 C 344.869 88.444,345.455 89.208,346.403 89.601 C 348.287 90.382,350.197 92.916,351.159 95.911 C 352.166 99.044,352.571 99.656,354.208 100.501 C 356.363 101.615,357.462 103.125,359.448 107.703 C 361.080 111.467,361.830 112.661,364.048 115.026 C 366.629 117.776,366.742 117.988,368.330 123.026 C 369.762 127.569,370.162 128.395,371.603 129.800 C 374.122 132.255,375.433 135.384,376.800 142.200 C 378.282 149.587,378.378 149.868,380.006 151.600 C 385.885 157.852,388.458 198.382,385.580 239.400 C 384.385 256.439,383.114 261.986,379.525 265.832 C 378.506 266.924,378.218 267.875,376.990 274.223 C 375.419 282.343,374.467 284.710,371.598 287.641 C 369.703 289.576,369.017 291.039,367.399 296.589 C 366.834 298.527,366.227 299.472,364.187 301.589 C 361.989 303.871,361.438 304.780,359.815 308.800 C 357.500 314.537,357.240 314.929,354.638 316.593 C 352.624 317.881,352.062 318.677,351.385 321.200 C 350.747 323.579,349.143 325.625,346.943 326.867 C 345.726 327.554,344.634 328.405,344.516 328.758 C 343.069 333.081,339.446 338.682,337.303 339.910 C 336.476 340.384,333.730 342.789,331.200 345.254 C 327.029 349.317,322.534 352.800,321.460 352.800 C 320.845 352.800,318.800 354.864,318.800 355.485 C 318.800 356.707,315.348 359.485,312.762 360.346 C 310.332 361.155,310.146 361.308,309.270 363.218 C 308.217 365.511,305.988 367.357,303.441 368.043 C 300.865 368.736,298.890 369.898,297.307 371.651 C 295.562 373.582,290.755 376.101,287.029 377.037 C 284.413 377.694,283.976 378.001,281.736 380.757 C 280.364 382.444,277.508 383.797,273.600 384.611 C 263.894 386.633,263.241 386.829,261.586 388.212 C 257.902 391.290,253.726 392.630,244.800 393.599 C 237.013 394.445,231.716 395.513,230.102 396.564 C 222.078 401.790,174.079 401.959,164.926 396.793 C 162.452 395.397,158.952 394.618,152.400 394.005 C 140.216 392.865,136.203 391.786,133.010 388.788 C 131.062 386.960,124.751 384.800,121.356 384.800 C 118.003 384.800,111.960 382.127,110.573 380.030 C 109.498 378.407,107.391 377.055,105.216 376.593 C 102.525 376.022,100.300 374.771,97.864 372.458 C 96.179 370.858,94.009 369.402,91.000 367.853 C 86.858 365.719,84.000 363.406,84.000 362.187 C 84.000 361.514,81.330 359.855,79.293 359.261 C 77.109 358.625,74.867 356.654,73.938 354.553 C 73.060 352.569,72.719 352.287,70.400 351.630 C 68.210 351.010,65.021 347.916,64.601 346.004 C 64.368 344.945,63.959 344.559,62.259 343.799 C 59.635 342.626,57.675 340.577,56.834 338.127 C 55.911 335.439,55.646 335.116,53.539 334.124 C 51.421 333.127,50.027 331.459,48.992 328.680 C 48.310 326.850,46.814 325.200,45.837 325.200 C 44.612 325.200,42.275 322.526,40.738 319.367 C 39.488 316.796,38.607 315.591,36.938 314.165 C 34.387 311.986,32.709 308.950,31.571 304.457 C 30.535 300.364,30.055 299.271,29.168 298.990 C 26.891 298.267,24.275 292.996,23.217 287.000 C 22.496 282.910,21.670 280.949,20.197 279.825 C 17.713 277.930,16.206 274.010,14.573 265.200 C 13.387 258.805,12.920 257.074,11.978 255.588 C 6.807 247.430,6.235 242.764,6.221 208.600 C 6.208 175.399,6.937 169.334,11.838 161.881 C 12.586 160.743,13.234 158.384,14.419 152.481 C 16.164 143.787,17.294 140.853,20.023 137.926 C 21.750 136.075,22.638 133.656,23.813 127.600 C 24.832 122.355,27.555 117.600,29.540 117.600 C 30.008 117.600,30.991 115.123,31.815 111.868 C 32.591 108.802,34.425 105.783,36.960 103.400 C 38.740 101.726,41.009 98.300,41.419 96.666 C 41.776 95.244,43.879 92.878,45.539 92.031 C 47.458 91.051,48.247 90.133,48.997 88.008 C 49.920 85.392,51.348 83.777,53.738 82.647 C 55.718 81.710,55.945 81.457,56.729 79.306 C 57.749 76.510,59.556 74.643,62.225 73.630 C 63.303 73.221,64.310 72.642,64.464 72.343 C 64.618 72.044,65.132 70.946,65.606 69.903 C 66.593 67.732,67.881 66.689,71.118 65.438 C 72.815 64.782,73.539 64.254,73.944 63.378 C 75.406 60.208,76.316 59.310,79.799 57.601 C 82.388 56.330,83.480 55.545,84.176 54.454 C 85.698 52.069,93.489 47.235,95.859 47.206 C 96.111 47.203,96.887 46.525,97.583 45.700 C 100.779 41.913,101.166 41.672,106.800 39.959 C 109.290 39.201,110.118 38.718,111.673 37.113 C 114.285 34.418,116.756 33.432,125.019 31.783 C 131.786 30.433,134.000 29.697,134.000 28.795 C 134.000 26.625,141.758 24.247,151.651 23.385 C 159.887 22.667,166.063 21.587,168.266 20.480 C 174.960 17.118,199.923 15.671,215.200 17.761 M169.400 36.391 C 163.200 36.865,158.943 37.867,156.400 39.451 C 153.390 41.327,146.589 43.388,139.400 44.604 C 136.100 45.162,132.894 45.721,132.275 45.846 C 131.642 45.975,130.156 47.070,128.875 48.354 C 126.502 50.731,122.574 52.528,117.400 53.603 C 114.236 54.261,113.376 54.740,111.616 56.828 C 110.278 58.413,109.037 59.246,105.082 61.208 C 100.983 63.241,99.815 64.038,97.800 66.176 C 95.301 68.827,93.978 69.672,90.637 70.755 C 88.930 71.308,88.415 71.742,87.023 73.800 C 85.611 75.887,85.002 76.394,82.342 77.686 C 79.366 79.132,78.509 79.903,76.663 82.800 C 76.172 83.570,75.155 84.560,74.403 85.000 C 72.676 86.011,69.600 89.131,69.600 89.871 C 69.600 91.747,66.585 95.337,64.590 95.838 C 63.444 96.126,62.738 97.150,61.860 99.800 C 60.975 102.469,59.830 103.788,57.254 105.109 C 55.266 106.129,55.041 106.393,54.207 108.698 C 53.214 111.439,52.387 112.634,49.013 116.200 C 46.171 119.203,45.466 120.561,44.196 125.473 C 43.138 129.566,41.376 132.748,39.188 134.520 C 37.864 135.591,36.646 138.781,36.028 142.800 C 35.010 149.413,33.643 153.103,31.252 155.697 C 29.055 158.081,28.861 159.174,26.621 181.800 C 24.433 203.890,24.394 211.054,26.347 232.200 C 28.627 256.903,28.908 258.513,31.424 261.311 C 33.473 263.591,34.904 267.542,35.800 273.398 C 36.639 278.880,37.615 281.231,40.332 284.316 C 43.206 287.579,43.331 287.814,44.371 291.886 C 45.438 296.066,46.534 298.597,47.758 299.711 C 50.590 302.288,53.086 305.652,53.807 307.864 C 54.757 310.781,54.999 311.105,56.768 311.843 C 58.920 312.741,60.705 314.700,61.632 317.179 C 62.598 319.766,63.326 320.674,64.992 321.372 C 67.032 322.228,68.646 323.880,69.399 325.885 C 70.427 328.621,71.358 329.797,73.756 331.389 C 75.177 332.331,76.216 333.430,76.932 334.746 C 78.096 336.884,79.787 338.366,82.225 339.385 C 84.192 340.206,85.842 341.750,86.852 343.714 C 87.639 345.244,88.314 345.665,92.142 347.014 C 94.452 347.828,96.472 349.508,97.641 351.588 C 98.252 352.674,98.907 353.225,99.964 353.542 C 104.875 355.013,112.000 359.549,112.000 361.204 C 112.000 361.892,114.494 362.882,118.078 363.616 C 124.661 364.965,126.746 365.864,129.209 368.415 L 131.419 370.703 138.609 372.193 C 142.564 373.013,146.588 374.025,147.551 374.442 C 148.514 374.859,149.504 375.200,149.751 375.200 C 150.379 375.201,155.272 377.545,156.000 378.194 C 160.241 381.977,230.561 382.221,237.445 378.477 C 245.012 374.362,246.947 373.621,252.800 372.602 C 260.656 371.234,262.312 370.700,264.245 368.908 C 266.426 366.886,271.196 364.528,274.452 363.861 C 277.946 363.145,280.414 361.880,281.406 360.295 C 282.430 358.659,287.006 355.892,290.167 354.998 C 294.290 353.832,294.732 353.576,295.977 351.636 C 297.126 349.845,299.025 348.447,301.200 347.790 C 302.459 347.409,306.800 344.489,306.800 344.023 C 306.800 343.831,308.465 342.203,310.500 340.405 C 316.605 335.010,319.672 331.914,322.200 328.590 C 324.827 325.137,326.140 323.754,327.145 323.384 C 327.505 323.251,328.790 321.963,330.000 320.523 C 332.002 318.140,333.566 316.510,336.413 313.840 C 337.426 312.889,337.806 312.223,339.808 307.882 C 340.707 305.931,341.213 305.374,342.996 304.368 C 345.271 303.083,345.665 302.436,346.384 298.800 C 347.649 292.392,349.141 289.584,352.883 286.568 C 353.622 285.972,354.053 285.064,354.401 283.368 C 355.761 276.747,357.762 272.092,360.232 269.800 C 362.168 268.005,362.894 265.584,364.193 256.600 C 365.074 250.505,366.195 246.217,367.477 244.044 C 370.862 238.306,371.073 237.107,371.610 220.600 C 372.421 195.620,371.432 180.783,368.609 175.630 C 365.994 170.854,365.187 168.155,364.415 161.600 C 363.454 153.434,362.161 149.029,360.273 147.482 C 357.882 145.522,356.124 141.335,353.983 132.505 C 353.681 131.259,353.199 130.556,352.164 129.853 C 349.431 127.996,348.177 125.419,346.210 117.613 L 345.356 114.227 343.135 112.929 C 341.283 111.846,340.731 111.247,339.809 109.316 C 337.115 103.675,336.930 103.399,334.989 102.112 C 333.921 101.404,332.586 100.141,332.023 99.306 C 329.959 96.242,327.431 93.245,326.485 92.738 C 325.951 92.452,325.008 91.494,324.389 90.609 C 322.839 88.392,314.647 80.150,312.053 78.200 C 308.851 75.791,306.457 73.605,306.210 72.863 C 305.887 71.896,303.259 70.161,300.626 69.175 C 298.004 68.194,295.914 66.523,295.223 64.855 C 294.698 63.588,294.041 63.191,290.828 62.204 C 286.955 61.014,282.557 58.549,281.126 56.766 C 279.607 54.875,277.931 53.928,274.800 53.191 C 271.073 52.315,266.831 50.063,265.000 47.990 C 263.602 46.406,260.986 45.591,254.086 44.590 C 245.844 43.393,240.362 41.578,237.800 39.197 C 236.657 38.134,235.148 37.642,230.814 36.916 C 226.574 36.206,177.334 35.785,169.400 36.391 M77.957 153.592 C 81.281 153.974,83.812 154.947,87.717 157.345 C 89.530 158.458,94.533 159.402,101.800 160.000 C 104.660 160.235,108.530 160.705,110.400 161.044 C 112.270 161.382,116.009 161.904,118.708 162.202 C 129.798 163.429,133.204 170.660,128.235 182.428 C 127.882 183.264,130.552 186.600,132.955 188.325 C 133.970 189.054,134.800 189.844,134.800 190.082 C 134.800 190.986,147.399 203.020,149.700 204.314 C 151.018 205.055,152.514 206.316,153.204 207.269 C 154.984 209.726,156.495 210.530,161.672 211.775 L 166.344 212.899 169.775 210.750 C 171.662 209.567,173.124 208.420,173.025 208.200 C 170.628 202.874,170.137 200.869,168.610 190.200 C 167.373 181.555,166.775 179.326,165.001 176.747 C 160.825 170.676,160.004 165.957,162.000 159.494 C 162.932 156.478,165.209 154.016,167.101 153.978 C 167.706 153.967,169.640 153.804,171.400 153.617 C 175.183 153.214,177.035 153.815,180.641 156.615 C 183.086 158.514,186.658 159.300,195.200 159.818 C 197.510 159.958,202.190 160.498,205.600 161.017 C 209.010 161.536,212.970 162.084,214.400 162.234 C 223.124 163.153,227.150 170.190,223.846 178.740 C 223.050 180.797,222.400 182.708,222.400 182.985 C 222.400 183.626,225.843 186.784,227.512 187.675 C 228.209 188.046,229.393 189.306,230.145 190.475 C 231.740 192.954,232.711 193.874,235.267 195.331 C 236.437 195.998,237.557 197.082,238.267 198.233 C 239.755 200.648,241.432 202.298,243.400 203.285 C 245.493 204.335,247.094 205.851,248.028 207.666 C 249.002 209.561,250.469 210.564,253.200 211.204 C 254.410 211.488,256.327 212.037,257.460 212.425 C 262.120 214.019,271.137 211.202,273.018 207.565 C 273.345 206.933,274.554 205.715,275.706 204.857 C 278.256 202.959,279.080 202.055,280.913 199.143 C 281.695 197.902,282.832 196.552,283.441 196.143 C 285.362 194.852,287.584 192.414,288.215 190.902 C 289.369 188.139,290.733 186.842,294.433 184.983 C 296.401 183.995,298.832 182.560,299.836 181.793 C 302.051 180.102,302.348 180.085,303.764 181.563 C 304.377 182.202,306.656 183.838,308.829 185.199 C 312.730 187.641,313.947 188.775,316.100 191.975 C 316.704 192.874,318.158 194.223,319.330 194.972 C 322.353 196.907,323.901 198.801,324.157 200.883 C 325.235 209.646,324.777 210.972,319.580 214.124 C 317.934 215.123,317.161 215.963,316.024 217.991 C 315.090 219.655,313.933 221.043,312.785 221.873 C 309.352 224.356,308.455 225.237,308.206 226.371 C 307.774 228.337,305.687 231.162,303.766 232.381 C 302.639 233.095,301.394 234.395,300.565 235.719 C 299.152 237.978,297.492 239.306,294.337 240.699 C 293.056 241.265,291.993 242.171,290.937 243.597 C 289.071 246.116,287.911 246.738,280.845 249.013 C 277.614 250.054,275.033 251.121,274.605 251.594 C 270.113 256.558,251.095 256.685,246.000 251.785 C 245.000 250.824,243.400 250.023,240.400 248.985 C 234.950 247.098,232.618 245.738,230.356 243.128 C 229.225 241.823,227.238 240.246,225.220 239.051 C 222.599 237.500,221.652 236.672,220.577 234.990 C 218.354 231.516,217.656 231.148,213.840 231.435 C 208.215 231.859,207.752 232.073,206.385 234.896 C 204.876 238.010,203.938 239.006,201.200 240.401 C 199.836 241.097,198.252 242.393,197.031 243.814 C 194.684 246.547,193.322 247.208,186.858 248.754 C 184.202 249.389,181.511 250.245,180.877 250.655 C 180.243 251.065,178.847 251.987,177.776 252.705 C 172.083 256.518,155.700 255.985,150.758 251.826 C 150.131 251.299,147.143 249.909,144.117 248.739 C 138.468 246.553,137.065 245.586,134.528 242.130 C 134.049 241.476,132.586 240.371,131.277 239.673 C 128.903 238.408,126.917 236.471,125.396 233.939 C 124.890 233.097,123.725 232.150,122.253 231.387 C 119.900 230.166,118.082 228.419,116.597 225.951 C 116.059 225.057,115.003 224.239,113.397 223.474 C 110.417 222.053,109.426 221.156,107.931 218.525 L 106.752 216.450 102.374 214.991 L 97.997 213.533 95.298 215.018 C 93.814 215.834,91.869 217.203,90.976 218.060 L 89.353 219.617 86.056 217.460 C 79.562 213.212,76.511 207.236,74.996 195.800 C 74.205 189.835,73.050 185.427,71.797 183.600 C 68.136 178.260,65.839 167.447,67.030 161.166 C 68.397 153.961,70.214 152.702,77.957 153.592 " stroke="none" fill="#fbfbfb" fill-rule="evenodd"></path><path id="path2" d="M85.200 167.482 C 77.845 168.793,75.364 173.743,79.075 179.700 C 79.589 180.525,80.247 181.200,80.538 181.200 C 81.309 181.200,83.894 189.394,84.789 194.677 C 85.982 201.724,86.198 201.922,92.800 202.029 C 100.587 202.155,107.804 205.355,110.026 209.666 C 110.873 211.310,111.966 212.160,115.260 213.737 C 116.815 214.482,118.228 215.627,119.793 217.410 C 121.044 218.834,122.313 220.000,122.613 220.000 C 124.182 220.000,135.504 230.462,137.808 234.041 C 139.177 236.168,146.514 240.746,149.600 241.399 C 151.376 241.774,153.045 242.627,152.852 243.061 C 151.792 245.442,172.030 247.039,176.198 244.903 C 177.690 244.138,179.224 242.960,179.293 242.526 C 179.321 242.347,181.247 241.463,183.572 240.563 C 190.362 237.934,192.944 236.625,194.008 235.273 C 194.554 234.580,195.419 233.470,195.930 232.806 C 196.442 232.143,197.972 230.751,199.330 229.714 C 203.575 226.473,204.493 224.040,204.313 216.514 L 204.200 211.800 197.548 211.691 L 190.895 211.581 187.948 213.555 C 186.326 214.641,184.564 215.995,184.030 216.564 C 183.497 217.134,182.888 217.600,182.677 217.600 C 182.467 217.600,180.563 218.382,178.447 219.337 C 176.304 220.305,173.626 221.196,172.400 221.349 C 171.190 221.499,169.300 221.898,168.200 222.235 C 163.186 223.769,154.597 220.703,149.048 215.397 C 145.945 212.431,141.801 209.361,140.600 209.139 C 140.151 209.057,139.746 208.618,139.678 208.138 C 139.499 206.887,136.075 203.554,133.785 202.400 C 131.497 201.248,130.000 200.062,130.000 199.402 C 130.000 198.100,124.945 193.600,123.483 193.600 C 122.786 193.600,121.182 191.781,120.251 189.935 C 119.213 187.879,116.616 185.200,115.660 185.200 C 113.660 185.200,113.109 183.454,113.260 177.602 L 113.400 172.205 111.400 171.106 C 108.613 169.575,107.336 169.309,101.400 169.030 C 98.540 168.896,94.580 168.460,92.600 168.063 C 88.907 167.322,86.955 167.169,85.200 167.482 M179.225 167.925 C 178.301 168.233,176.843 169.152,175.987 169.967 C 174.924 170.977,174.247 171.346,173.857 171.128 C 173.293 170.813,172.000 173.199,172.000 174.554 C 172.000 175.432,173.585 177.181,174.176 176.954 C 175.117 176.593,176.418 180.985,177.211 187.200 C 179.221 202.955,178.937 202.568,187.791 201.581 C 191.401 201.178,191.627 201.200,193.475 202.133 C 194.534 202.667,196.468 203.438,197.773 203.848 C 201.242 204.936,204.400 207.886,204.400 210.040 L 204.400 211.600 206.565 211.600 C 209.175 211.600,214.794 215.330,215.796 217.728 C 216.093 218.441,217.199 219.630,218.267 220.388 C 219.330 221.142,221.010 222.411,222.000 223.206 C 222.990 224.002,224.295 224.862,224.900 225.118 C 225.539 225.388,226.000 225.895,226.000 226.327 C 226.000 226.737,226.675 227.693,227.500 228.453 C 231.389 232.034,232.337 232.795,233.041 232.905 C 234.243 233.092,234.800 233.583,234.800 234.457 C 234.800 236.304,238.147 238.578,244.697 241.178 C 246.510 241.898,247.903 242.633,247.793 242.812 C 246.479 244.938,259.265 246.789,267.345 245.642 C 270.363 245.214,274.585 243.422,274.167 242.747 C 274.071 242.592,274.669 242.246,275.496 241.980 C 278.086 241.145,285.965 237.066,287.029 236.009 C 287.588 235.454,288.755 234.061,289.621 232.914 C 290.488 231.766,292.178 230.103,293.378 229.216 C 294.577 228.330,295.883 227.129,296.279 226.547 C 297.714 224.440,301.292 220.847,302.553 220.249 C 304.051 219.538,304.846 218.709,305.761 216.901 C 306.123 216.187,307.433 214.657,308.672 213.501 C 313.998 208.532,313.688 208.925,313.415 207.507 C 312.639 203.482,311.846 201.205,311.143 200.982 C 310.710 200.844,310.400 200.372,310.400 199.848 C 310.400 197.675,306.068 195.200,302.265 195.200 C 298.501 195.200,294.000 197.389,294.000 199.220 C 294.000 199.763,293.726 199.999,293.100 199.998 C 291.947 199.996,286.000 206.202,286.000 207.407 C 286.000 208.434,285.279 209.200,284.311 209.200 C 283.651 209.200,281.790 210.874,278.646 214.299 C 278.012 214.990,277.472 215.955,277.446 216.443 C 277.411 217.115,276.962 217.491,275.600 217.987 C 274.610 218.348,272.629 219.200,271.197 219.881 C 269.766 220.562,267.876 221.230,266.997 221.364 C 266.119 221.499,264.064 221.902,262.431 222.260 C 260.166 222.757,259.171 222.810,258.231 222.484 C 257.554 222.249,255.582 221.836,253.848 221.565 C 250.238 221.002,248.371 219.840,245.969 216.662 C 245.178 215.615,243.349 213.967,241.905 212.998 C 240.461 212.029,238.316 210.140,237.139 208.800 C 234.885 206.232,227.819 200.896,226.045 200.422 C 225.464 200.267,224.938 199.800,224.860 199.371 C 224.605 197.965,218.423 192.800,216.994 192.800 C 216.730 192.800,215.645 191.315,214.582 189.500 C 213.519 187.685,212.213 185.616,211.680 184.903 C 210.589 183.444,209.628 178.882,209.595 175.000 C 209.557 170.610,207.074 169.633,193.849 168.806 C 190.136 168.574,186.940 168.287,186.747 168.167 C 185.754 167.554,180.816 167.395,179.225 167.925 " stroke="none" fill="#ceee90" fill-rule="evenodd"></path><path id="path3" d="M188.600 21.450 C 185.363 21.943,165.249 24.342,152.400 25.767 C 146.590 26.412,141.459 27.955,139.280 29.713 C 136.976 31.572,134.913 32.321,128.560 33.608 C 122.290 34.878,119.479 35.940,116.398 38.201 C 114.132 39.865,111.315 41.145,107.203 42.381 C 104.496 43.195,103.954 43.541,101.603 45.964 C 99.477 48.155,98.215 49.031,94.716 50.746 C 91.615 52.266,89.616 53.584,87.475 55.523 C 85.848 56.995,83.186 58.937,81.559 59.838 C 79.363 61.054,78.152 62.063,76.861 63.752 C 75.618 65.379,74.464 66.360,72.812 67.194 C 70.120 68.553,68.292 70.259,67.169 72.461 C 66.636 73.505,65.604 74.512,64.084 75.469 C 60.858 77.501,60.073 78.297,58.781 80.847 C 58.155 82.082,57.096 83.522,56.428 84.047 C 55.760 84.571,54.670 85.419,54.006 85.931 C 53.343 86.442,52.082 88.091,51.204 89.593 C 50.220 91.278,48.632 93.182,47.060 94.562 C 45.374 96.043,44.065 97.646,43.191 99.300 C 41.122 103.217,39.246 106.042,37.383 108.047 C 35.475 110.100,33.929 112.894,33.199 115.604 C 32.527 118.101,31.335 120.332,29.702 122.151 C 27.678 124.406,26.154 127.981,25.007 133.169 C 23.904 138.156,22.745 140.893,20.638 143.487 C 18.810 145.737,17.863 148.413,16.619 154.840 C 16.049 157.788,15.315 161.550,14.989 163.200 C 14.617 165.087,13.655 167.683,12.396 170.200 C 9.608 175.773,8.988 179.728,8.383 195.800 C 7.357 223.059,8.720 239.904,12.592 247.800 C 14.254 251.191,14.904 253.071,15.424 256.000 C 17.518 267.795,18.747 271.784,21.246 274.910 C 22.937 277.024,23.797 279.149,24.967 284.099 C 26.104 288.910,27.375 291.747,29.585 294.404 C 31.412 296.600,32.527 298.766,33.158 301.346 C 33.867 304.243,35.683 307.564,38.069 310.330 C 39.238 311.685,41.200 314.640,42.429 316.897 C 44.396 320.508,44.955 321.204,47.091 322.701 C 48.901 323.969,49.990 325.159,51.369 327.370 C 52.549 329.265,53.902 330.830,55.109 331.698 C 56.320 332.569,57.416 333.838,58.157 335.229 C 59.940 338.577,61.109 339.952,63.440 341.443 C 64.791 342.307,66.084 343.590,66.934 344.907 C 68.575 347.453,69.142 347.969,72.167 349.669 C 73.761 350.565,75.140 351.784,76.389 353.400 C 77.961 355.434,78.774 356.061,81.727 357.511 C 83.916 358.585,85.941 359.947,87.175 361.175 C 89.499 363.487,92.807 365.791,96.400 367.599 C 97.830 368.319,99.912 369.739,101.026 370.754 C 103.155 372.695,103.725 373.026,109.207 375.514 C 111.080 376.365,113.240 377.608,114.007 378.277 C 116.755 380.675,120.028 381.981,126.978 383.451 C 133.117 384.751,135.074 385.413,136.808 386.780 C 140.347 389.570,144.540 390.830,153.467 391.786 C 162.899 392.797,171.219 393.958,176.712 395.028 C 187.619 397.154,203.341 397.320,214.491 395.427 C 217.731 394.877,221.781 394.246,223.491 394.025 C 251.035 390.462,251.195 390.427,256.687 386.691 C 258.257 385.623,259.743 385.062,262.687 384.427 C 273.916 382.005,275.551 381.416,278.801 378.624 C 281.322 376.458,282.116 376.001,285.701 374.652 C 288.551 373.579,290.828 372.250,292.871 370.466 C 294.421 369.113,297.690 367.401,300.706 366.363 C 303.543 365.387,304.914 364.353,306.859 361.721 C 308.077 360.071,309.018 359.283,310.603 358.582 C 313.115 357.471,315.206 355.716,316.828 353.359 C 317.606 352.228,318.822 351.209,320.389 350.374 C 321.710 349.669,323.798 348.018,325.084 346.660 C 326.358 345.315,328.390 343.473,329.600 342.566 C 333.811 339.413,339.670 332.900,341.529 329.308 C 342.798 326.855,343.661 325.720,344.916 324.851 C 347.392 323.137,348.228 322.094,349.615 318.992 C 350.525 316.958,351.538 315.548,353.346 313.800 C 355.617 311.605,355.998 310.977,357.814 306.449 C 359.513 302.214,360.123 301.159,362.035 299.158 C 364.396 296.687,364.609 296.289,367.207 289.513 C 368.270 286.740,369.411 284.550,370.438 283.313 C 372.982 280.249,373.844 277.938,375.190 270.577 C 376.319 264.403,376.622 263.408,378.592 259.400 C 383.253 249.918,384.240 239.327,383.880 202.641 C 383.585 172.544,382.398 163.197,377.964 156.065 C 377.027 154.558,376.441 152.561,375.230 146.744 C 373.620 139.014,372.785 136.793,370.556 134.309 C 369.075 132.659,368.530 131.500,366.789 126.305 C 365.181 121.503,364.653 120.550,362.192 118.000 C 360.503 116.250,359.595 114.748,357.757 110.656 C 355.704 106.088,355.203 105.305,353.274 103.656 C 351.523 102.160,350.775 101.097,349.408 98.172 C 348.023 95.206,347.296 94.184,345.427 92.572 C 343.853 91.214,342.686 89.728,341.681 87.800 C 339.886 84.358,333.032 77.124,329.381 74.818 C 327.968 73.925,326.292 72.415,325.467 71.291 C 324.012 69.309,322.483 68.099,319.224 66.352 C 318.100 65.750,316.890 64.594,315.930 63.206 C 314.185 60.685,313.458 60.054,310.345 58.362 C 308.941 57.599,307.605 56.462,306.805 55.348 C 305.222 53.144,303.379 51.911,300.000 50.797 C 296.633 49.687,294.349 48.342,292.576 46.426 C 290.883 44.597,287.522 42.734,284.200 41.785 C 281.109 40.902,279.972 40.308,276.947 37.989 C 274.060 35.776,271.411 34.812,264.400 33.425 C 258.283 32.215,256.450 31.587,254.057 29.881 C 249.617 26.717,245.713 25.980,217.598 22.998 C 214.407 22.660,210.807 22.202,209.598 21.980 C 207.284 21.557,190.656 21.137,188.600 21.450 M238.799 27.352 C 247.244 28.543,249.983 30.044,247.616 32.185 C 246.385 33.300,244.317 33.323,229.600 32.389 C 208.752 31.065,189.474 30.926,172.600 31.975 C 145.810 33.643,145.912 33.645,144.946 31.333 C 144.620 30.552,144.428 29.838,144.520 29.746 C 145.381 28.886,149.991 27.983,156.400 27.419 C 160.470 27.061,164.250 26.705,164.800 26.628 C 168.500 26.108,234.562 26.755,238.799 27.352 M214.855 33.602 C 232.858 34.316,242.243 35.683,244.045 37.854 C 245.538 39.653,250.280 41.349,257.361 42.617 C 265.190 44.019,267.585 44.868,269.810 47.030 C 271.911 49.073,273.484 49.939,278.167 51.633 C 280.023 52.305,282.499 53.560,283.671 54.423 C 288.157 57.728,290.542 59.189,292.907 60.078 C 294.631 60.727,296.132 61.724,297.978 63.446 C 299.420 64.792,301.410 66.301,302.400 66.801 C 305.396 68.313,307.642 69.991,311.000 73.226 C 312.760 74.921,315.416 77.210,316.902 78.313 C 318.388 79.415,320.382 81.371,321.334 82.659 C 322.946 84.840,325.090 87.010,327.016 88.408 C 327.464 88.734,328.719 90.170,329.804 91.600 C 330.890 93.030,333.329 95.835,335.225 97.834 C 337.787 100.534,339.179 102.432,340.643 105.222 C 342.187 108.165,343.038 109.298,344.578 110.462 C 346.820 112.156,347.329 112.925,348.245 116.000 C 349.309 119.576,351.120 123.247,352.999 125.640 C 354.816 127.953,355.330 129.054,356.796 133.771 C 358.059 137.837,359.677 141.165,361.366 143.172 C 363.714 145.962,364.203 147.281,366.206 156.210 C 368.198 165.092,369.138 168.104,370.425 169.741 C 373.002 173.018,373.602 178.529,373.868 201.400 C 374.230 232.534,373.574 241.372,370.421 247.800 C 368.030 252.674,367.602 254.023,365.801 262.361 C 364.272 269.437,363.516 271.543,361.659 273.890 C 359.738 276.318,357.742 280.342,356.631 284.023 C 355.617 287.386,354.511 289.387,351.872 292.638 C 351.020 293.687,350.080 295.700,349.256 298.238 C 347.334 304.162,346.908 304.955,344.545 306.994 C 343.102 308.240,341.919 309.759,341.010 311.533 C 338.974 315.503,338.786 315.732,330.387 324.414 C 326.114 328.830,321.991 333.404,321.222 334.579 C 320.454 335.754,319.010 337.272,318.013 337.954 C 316.070 339.283,314.103 341.083,311.155 344.230 C 310.141 345.314,307.347 347.410,304.948 348.888 C 302.548 350.367,299.901 352.277,299.066 353.132 C 298.230 353.988,296.704 355.059,295.673 355.513 C 289.319 358.309,288.296 358.890,286.000 361.000 C 283.433 363.360,281.102 364.601,277.017 365.782 C 273.824 366.705,271.322 368.014,269.417 369.759 C 267.722 371.312,264.940 372.513,260.800 373.480 C 251.802 375.582,248.833 376.643,245.163 379.072 C 235.466 385.489,155.631 385.156,147.118 378.663 C 144.864 376.944,141.690 375.717,135.499 374.172 C 129.579 372.696,128.970 372.421,123.745 368.883 C 122.631 368.129,119.834 366.951,117.200 366.127 C 111.520 364.350,110.673 363.933,108.337 361.766 C 105.969 359.569,102.868 357.585,99.325 356.001 C 97.204 355.052,96.052 354.203,94.505 352.445 C 92.939 350.665,91.684 349.747,89.044 348.445 C 86.548 347.214,85.211 346.260,84.127 344.937 C 83.308 343.937,81.549 342.397,80.219 341.513 C 76.870 339.289,69.898 332.047,68.018 328.840 C 66.406 326.091,65.137 324.688,62.845 323.125 C 62.046 322.580,60.793 320.968,59.795 319.200 C 58.550 316.997,57.476 315.714,55.750 314.371 C 54.024 313.028,53.001 311.806,51.897 309.771 C 50.937 308.000,49.400 306.057,47.639 304.385 L 44.884 301.771 43.262 296.696 C 41.306 290.577,41.266 290.500,38.615 287.616 C 36.343 285.145,35.713 283.654,33.814 276.260 C 32.652 271.734,31.794 269.648,29.598 266.000 C 27.755 262.939,27.054 260.383,26.199 253.600 C 25.493 247.996,24.158 239.531,23.551 236.800 C 20.749 224.201,19.526 210.401,20.343 200.600 C 20.817 194.928,21.823 188.776,23.951 178.553 C 24.415 176.327,25.326 170.387,25.978 165.353 C 27.354 154.715,27.540 153.959,29.471 151.151 C 31.585 148.079,32.966 144.762,34.148 139.925 C 35.590 134.022,36.575 131.723,38.587 129.573 C 40.693 127.321,41.227 126.319,42.627 121.984 C 44.501 116.181,45.074 115.165,47.965 112.525 C 49.857 110.797,51.124 109.195,52.162 107.219 C 53.284 105.084,54.174 104.001,55.786 102.810 C 58.115 101.090,58.997 99.991,60.362 97.115 C 60.903 95.975,62.198 94.414,63.637 93.168 C 64.973 92.010,66.646 90.031,67.452 88.653 C 69.291 85.510,76.961 77.833,80.431 75.662 C 81.878 74.757,83.844 73.088,84.801 71.953 C 86.098 70.414,87.259 69.563,89.377 68.598 C 92.608 67.125,94.392 65.755,95.581 63.831 C 96.130 62.942,97.374 61.992,99.303 60.987 C 102.565 59.289,106.439 56.764,109.377 54.421 C 110.711 53.358,112.468 52.494,114.777 51.766 C 119.129 50.393,122.409 48.755,125.222 46.548 C 127.854 44.483,129.253 43.986,136.400 42.580 C 142.210 41.437,145.719 40.214,147.848 38.590 C 153.342 34.400,181.710 32.288,214.855 33.602 M141.994 34.797 C 142.654 35.150,143.896 37.865,143.540 38.176 C 142.199 39.349,135.129 41.057,129.272 41.624 C 122.726 42.257,121.243 42.935,120.841 45.473 C 120.544 47.351,117.254 49.201,112.484 50.171 C 108.803 50.919,104.959 52.969,104.439 54.460 C 104.047 55.583,98.500 59.200,97.168 59.200 C 94.973 59.200,93.200 60.797,93.200 62.772 C 93.200 63.742,90.318 66.318,88.910 66.608 C 84.527 67.510,83.083 68.459,82.230 71.000 C 81.756 72.413,81.357 72.769,78.805 74.054 C 74.757 76.092,67.264 83.665,65.546 87.455 C 64.527 89.702,64.151 90.135,62.661 90.774 C 60.112 91.866,58.016 94.851,58.002 97.409 C 57.997 98.399,55.567 100.683,54.029 101.144 C 52.161 101.704,51.451 102.609,50.579 105.545 C 49.823 108.090,47.055 111.200,45.545 111.200 C 44.031 111.200,43.254 112.006,42.652 114.200 C 39.813 124.552,39.394 125.654,38.022 126.388 C 37.599 126.615,36.836 126.803,36.326 126.806 C 34.708 126.817,34.260 127.433,33.952 130.071 C 33.137 137.047,30.566 146.000,29.377 146.000 C 25.890 146.000,25.439 143.174,27.221 132.506 C 27.754 129.316,29.452 126.000,30.553 126.000 C 31.045 126.000,31.773 125.762,32.171 125.471 C 33.353 124.606,33.911 122.803,35.425 114.954 C 35.759 113.224,38.151 110.293,39.600 109.839 C 40.765 109.474,41.101 109.098,41.600 107.600 C 41.930 106.610,43.044 104.270,44.076 102.400 C 45.108 100.530,46.055 98.728,46.182 98.396 C 46.308 98.064,47.247 97.349,48.267 96.808 C 50.414 95.669,52.086 93.552,52.991 90.829 C 53.699 88.696,54.864 87.432,56.469 87.053 C 58.412 86.594,59.881 84.970,60.408 82.698 C 60.977 80.245,63.201 77.600,64.694 77.600 C 67.355 77.600,69.200 75.709,69.200 72.982 C 69.200 71.887,71.576 69.702,73.107 69.388 C 77.266 68.535,78.541 67.587,79.029 64.986 C 79.350 63.278,80.073 62.654,82.867 61.677 C 85.610 60.717,88.135 59.028,90.690 56.443 C 93.223 53.879,96.764 51.925,99.566 51.545 C 102.161 51.193,103.200 50.230,103.200 48.176 C 103.200 45.657,108.113 43.525,116.600 42.360 C 119.650 41.942,120.400 41.381,120.400 39.518 C 120.400 37.027,127.291 35.277,140.326 34.458 C 140.836 34.426,141.586 34.579,141.994 34.797 M259.400 34.999 C 268.174 35.529,272.957 37.121,273.361 39.645 C 273.500 40.517,273.836 41.293,274.107 41.369 C 274.378 41.446,276.220 41.969,278.200 42.532 C 280.180 43.096,282.610 43.678,283.600 43.826 C 285.334 44.086,287.511 45.028,288.833 46.091 C 289.181 46.371,289.721 47.393,290.033 48.363 C 290.345 49.333,290.870 50.261,291.200 50.424 C 291.935 50.789,299.353 53.045,300.976 53.398 C 302.710 53.775,304.400 55.121,304.401 56.127 C 304.406 58.477,306.034 59.768,310.002 60.565 C 311.699 60.906,313.729 63.270,314.190 65.440 C 314.656 67.638,315.636 68.384,318.068 68.394 C 319.875 68.401,324.000 71.867,324.000 73.378 C 324.000 74.510,325.110 75.529,326.873 76.016 C 328.546 76.478,332.366 79.653,333.242 81.309 C 333.595 81.976,334.583 82.997,335.437 83.577 C 337.259 84.815,339.926 88.169,340.227 89.600 C 341.001 93.290,341.162 93.558,342.912 94.055 C 345.924 94.910,347.290 96.707,347.791 100.471 C 348.183 103.414,349.789 105.348,352.527 106.176 C 353.485 106.465,357.032 113.995,357.415 116.553 C 357.758 118.850,358.624 119.856,360.572 120.221 C 362.818 120.643,363.097 121.271,366.939 134.599 C 367.290 135.817,367.758 136.388,368.906 136.999 C 373.699 139.549,375.758 160.087,371.419 162.064 C 370.857 162.320,370.294 162.427,370.168 162.301 C 369.831 161.964,366.945 149.867,366.399 146.507 C 365.868 143.232,364.847 141.438,362.733 140.062 C 360.827 138.823,358.621 134.168,357.852 129.765 C 357.098 125.444,355.263 122.000,353.716 122.000 C 352.860 122.000,350.136 115.952,349.808 113.323 C 349.389 109.974,348.725 108.919,346.698 108.378 C 344.042 107.670,343.910 107.532,342.531 104.002 C 341.816 102.170,340.717 100.025,340.088 99.236 C 339.460 98.446,338.826 97.477,338.679 97.082 C 338.532 96.687,337.792 96.105,337.035 95.789 C 335.574 95.178,331.687 90.782,330.493 88.388 C 330.086 87.573,329.222 86.725,328.400 86.334 C 326.419 85.391,323.575 82.338,322.400 79.892 C 321.604 78.235,321.133 77.736,320.089 77.444 C 318.067 76.879,313.443 72.809,313.201 71.381 C 313.066 70.586,312.608 69.998,311.800 69.581 C 311.140 69.240,309.582 68.300,308.337 67.492 C 307.092 66.684,305.066 65.577,303.835 65.032 C 302.214 64.316,301.479 63.733,301.172 62.921 C 300.292 60.600,298.290 59.137,294.976 58.395 C 292.463 57.832,288.800 55.633,288.800 54.688 C 288.800 53.732,287.040 52.000,286.069 52.000 C 285.647 52.000,284.424 51.611,283.351 51.136 C 282.278 50.660,280.170 49.954,278.667 49.567 C 274.440 48.478,272.800 47.213,272.800 45.043 C 272.800 42.616,272.621 42.540,264.783 41.624 C 254.110 40.377,249.600 39.082,249.600 37.265 C 249.600 35.077,250.529 34.412,253.311 34.607 C 254.680 34.703,257.420 34.879,259.400 34.999 M24.371 147.571 C 25.220 148.420,25.220 148.238,24.350 160.600 C 23.952 166.248,23.091 172.044,21.973 176.600 C 21.646 177.933,21.049 179.005,20.183 179.815 C 17.666 182.171,16.969 190.414,17.328 213.600 C 17.623 232.647,18.068 236.081,20.459 237.756 C 22.232 238.998,24.359 251.776,24.939 264.677 C 25.148 269.326,24.920 269.901,22.733 270.256 C 20.317 270.648,19.028 266.534,17.578 253.800 C 16.673 245.844,16.095 243.971,14.181 242.788 C 12.050 241.471,11.109 236.676,10.373 223.400 C 9.025 199.053,10.742 177.857,14.325 174.620 C 16.433 172.716,16.642 171.990,17.560 163.400 C 19.094 149.037,21.123 144.323,24.371 147.571 M71.288 159.900 C 69.183 164.834,69.096 165.758,70.411 169.139 C 72.025 173.285,72.044 173.306,74.585 173.813 C 77.119 174.319,77.175 174.286,78.224 171.660 C 79.056 169.576,79.015 169.535,75.079 168.570 C 71.981 167.811,71.217 166.948,71.882 164.954 L 72.257 163.830 76.228 163.945 C 78.413 164.008,82.237 164.405,84.727 164.828 C 87.951 165.375,90.917 165.577,95.028 165.532 C 101.330 165.462,102.127 165.650,99.761 166.649 C 98.440 167.206,97.554 167.253,94.000 166.954 C 89.433 166.569,88.000 166.640,88.000 167.251 C 88.000 167.469,88.150 167.554,88.333 167.441 C 88.517 167.328,90.344 167.579,92.393 167.999 C 94.443 168.418,98.208 168.867,100.760 168.994 C 107.529 169.333,108.341 169.490,111.146 170.995 C 113.459 172.237,113.861 172.331,115.546 172.019 C 116.566 171.830,118.766 171.562,120.437 171.423 L 123.473 171.169 124.537 172.776 L 125.600 174.383 124.519 176.587 C 123.668 178.322,123.152 178.886,122.100 179.233 C 119.308 180.154,116.269 184.869,117.560 186.276 C 118.085 186.848,120.240 189.677,120.652 190.335 C 120.699 190.410,121.294 190.059,121.974 189.556 L 123.210 188.642 124.363 190.021 C 125.467 191.343,125.490 191.449,124.903 192.585 C 124.335 193.686,124.345 193.800,125.046 194.185 C 125.461 194.413,126.828 195.641,128.085 196.913 C 130.146 198.999,130.450 199.176,131.181 198.719 C 132.474 197.912,134.065 199.623,133.057 200.737 C 132.389 201.475,132.433 201.543,134.260 202.614 C 135.304 203.226,136.944 204.552,137.906 205.563 C 138.868 206.573,139.844 207.348,140.074 207.284 C 140.911 207.054,142.485 208.416,142.024 208.972 C 141.696 209.367,141.970 209.739,143.181 210.540 C 144.054 211.118,146.026 212.672,147.562 213.995 L 150.356 216.400 153.878 216.406 C 157.993 216.413,158.703 216.686,158.006 217.989 C 157.632 218.688,157.300 218.827,156.465 218.637 C 155.879 218.503,154.886 218.311,154.258 218.211 C 153.630 218.110,152.775 217.919,152.358 217.787 C 150.985 217.351,151.564 217.920,154.000 219.400 C 157.582 221.576,165.311 223.119,168.200 222.235 C 169.300 221.898,171.190 221.500,172.400 221.351 C 174.389 221.105,180.752 218.613,180.361 218.232 C 180.273 218.146,179.660 217.985,179.000 217.876 C 177.442 217.617,175.594 216.859,176.438 216.825 C 177.863 216.769,178.499 215.320,178.862 211.308 C 179.264 206.858,180.102 203.545,181.019 202.785 C 181.578 202.320,181.543 202.175,180.686 201.432 C 179.150 200.101,178.901 199.297,178.005 192.776 C 177.538 189.379,177.054 185.970,176.930 185.200 L 176.704 183.800 176.171 185.305 C 175.345 187.640,174.534 188.673,174.266 187.735 C 173.516 185.119,173.260 182.324,173.556 180.000 C 173.861 177.599,173.814 177.314,172.943 176.269 C 171.829 174.933,171.796 174.526,172.635 172.430 C 173.318 170.722,172.368 168.649,169.993 166.667 C 169.125 165.944,169.124 165.928,169.902 165.383 C 171.469 164.286,174.614 163.264,175.280 163.637 C 177.258 164.744,183.144 165.680,187.400 165.564 C 196.384 165.318,198.805 165.780,193.942 166.812 C 192.020 167.220,190.568 167.239,187.285 166.898 C 184.248 166.583,182.798 166.584,182.043 166.901 C 181.097 167.298,181.250 167.366,183.682 167.635 C 185.157 167.797,186.529 168.032,186.731 168.157 C 186.932 168.282,190.136 168.574,193.849 168.806 C 203.175 169.389,207.810 170.383,209.199 172.098 C 209.842 172.892,209.919 172.897,211.632 172.255 C 212.604 171.890,214.262 171.436,215.314 171.245 L 217.229 170.898 218.441 172.660 L 219.653 174.421 218.367 177.211 L 217.082 180.000 215.341 180.050 C 214.383 180.078,213.465 180.133,213.300 180.173 C 213.135 180.213,212.415 180.384,211.700 180.554 C 210.012 180.956,209.943 182.438,211.509 184.640 C 212.119 185.498,213.225 187.215,213.967 188.455 L 215.315 190.711 216.176 189.710 L 217.036 188.710 218.190 190.223 C 219.334 191.723,219.337 191.741,218.539 192.359 C 217.760 192.961,217.820 193.043,220.367 194.838 C 221.815 195.859,223.343 197.078,223.762 197.547 C 224.181 198.016,224.811 198.406,225.162 198.413 C 226.031 198.431,227.718 199.886,227.423 200.363 C 227.292 200.575,228.673 201.795,230.492 203.074 C 232.312 204.353,235.150 206.800,236.800 208.512 C 238.450 210.223,240.860 212.324,242.157 213.180 C 243.453 214.036,245.164 215.598,245.960 216.650 C 248.371 219.840,250.234 221.001,253.848 221.565 C 255.582 221.836,257.554 222.249,258.231 222.484 C 259.171 222.810,260.166 222.757,262.431 222.260 C 264.064 221.902,266.120 221.501,267.000 221.370 C 268.634 221.125,274.800 218.425,274.800 217.954 C 274.800 217.810,274.395 217.572,273.900 217.423 C 273.090 217.180,273.177 217.074,274.773 216.362 C 275.748 215.927,276.783 215.662,277.073 215.773 C 277.363 215.884,277.600 215.841,277.600 215.677 C 277.600 215.513,278.950 213.966,280.600 212.240 C 282.250 210.513,283.600 208.926,283.600 208.713 C 283.600 208.084,285.070 206.403,285.363 206.697 C 285.695 207.028,292.212 200.226,293.037 198.687 C 293.365 198.075,293.808 197.681,294.020 197.812 C 294.232 197.943,294.921 197.684,295.550 197.235 C 296.180 196.787,297.214 196.221,297.848 195.978 L 299.000 195.536 297.910 194.960 C 294.936 193.390,295.345 191.680,299.134 189.832 L 302.268 188.304 304.534 189.809 C 307.137 191.537,307.347 192.315,305.663 193.998 L 304.526 195.135 306.159 195.868 C 307.058 196.270,308.379 197.114,309.096 197.741 C 309.813 198.369,310.400 198.746,310.400 198.579 C 310.400 198.413,310.760 198.602,311.200 199.000 C 311.640 199.398,312.000 200.203,312.000 200.789 C 312.000 201.375,312.252 202.742,312.561 203.827 C 314.037 209.023,314.376 208.180,308.672 213.501 C 307.433 214.657,306.123 216.187,305.761 216.901 C 304.846 218.709,304.051 219.538,302.553 220.249 C 301.292 220.847,297.714 224.440,296.279 226.547 C 295.883 227.129,294.577 228.330,293.378 229.216 C 292.178 230.103,290.490 231.766,289.627 232.914 C 287.214 236.120,286.316 236.824,281.485 239.291 C 277.791 241.178,277.159 241.628,277.900 241.838 C 279.787 242.373,277.612 243.442,275.670 242.934 C 275.142 242.796,274.114 243.126,272.955 243.805 C 271.928 244.407,270.619 245.052,270.044 245.240 C 268.064 245.886,277.732 245.277,281.686 244.507 C 285.993 243.668,287.200 242.923,287.200 241.107 C 287.200 239.265,289.047 237.701,291.624 237.359 C 294.243 237.012,296.772 234.909,297.604 232.388 C 298.158 230.711,299.778 229.200,301.024 229.200 C 302.302 229.200,304.721 226.200,305.013 224.252 C 305.436 221.430,306.413 220.192,308.659 219.630 C 311.086 219.024,312.669 217.559,312.997 215.617 C 313.462 212.865,314.521 211.681,317.181 210.941 C 321.128 209.844,321.414 209.298,320.633 204.361 C 319.879 199.603,319.816 199.499,317.096 198.532 C 314.453 197.592,312.659 195.787,311.802 193.205 C 311.109 191.120,309.687 189.944,303.379 186.238 L 302.157 185.520 298.182 187.378 C 293.737 189.455,292.166 190.724,291.771 192.556 C 291.096 195.682,288.926 198.300,286.287 199.171 C 285.196 199.531,284.827 199.965,284.252 201.562 C 283.427 203.858,281.298 206.476,279.159 207.826 C 278.320 208.356,277.041 209.585,276.317 210.558 C 275.593 211.531,274.295 212.790,273.434 213.355 C 271.819 214.414,271.513 214.528,266.309 216.023 C 263.924 216.708,263.165 217.104,262.984 217.755 C 261.842 221.868,258.627 222.216,257.584 218.339 C 257.038 216.311,254.150 214.804,249.237 213.983 C 246.541 213.532,245.399 212.499,244.789 209.955 C 244.274 207.806,242.915 206.400,241.354 206.400 C 238.429 206.400,235.967 204.218,235.392 201.114 C 235.069 199.375,234.850 199.175,232.200 198.209 C 229.752 197.316,227.404 194.973,226.741 192.762 C 226.316 191.341,225.979 191.004,224.206 190.220 C 218.856 187.853,217.720 184.590,220.233 178.806 L 222.135 174.429 221.385 172.767 C 220.973 171.852,219.869 170.315,218.932 169.352 L 217.230 167.600 213.315 167.539 C 208.243 167.460,208.594 167.526,207.741 166.490 C 206.310 164.754,200.232 163.623,190.407 163.266 C 181.173 162.930,179.912 162.628,175.400 159.675 L 174.200 158.890 170.231 160.034 C 165.653 161.354,165.811 161.242,164.813 163.870 L 164.051 165.873 164.965 167.845 C 165.481 168.958,166.296 170.009,166.839 170.260 C 167.368 170.505,168.642 171.450,169.672 172.361 L 171.543 174.018 171.326 178.309 C 171.132 182.146,172.323 191.716,173.391 194.896 C 173.484 195.173,173.756 196.165,173.996 197.100 C 174.315 198.349,174.632 198.800,175.189 198.800 C 176.946 198.800,178.060 199.541,177.598 200.403 C 177.360 200.849,177.087 203.099,176.992 205.404 C 176.738 211.575,175.464 213.389,169.330 216.314 C 168.424 216.746,168.000 217.226,168.000 217.820 C 168.000 218.677,166.616 220.800,166.057 220.800 C 165.608 220.800,164.400 218.556,164.400 217.722 C 164.400 216.740,159.586 214.630,155.867 213.982 C 152.548 213.404,150.846 212.304,149.753 210.031 C 149.058 208.587,148.559 208.133,146.988 207.516 C 144.184 206.414,142.232 204.985,139.200 201.812 C 136.265 198.742,133.991 196.293,132.200 194.277 C 131.100 193.039,129.300 191.075,128.199 189.913 C 127.099 188.751,125.672 186.792,125.028 185.560 L 123.857 183.319 125.545 179.911 C 128.185 174.582,128.089 172.930,124.930 169.302 L 123.800 168.005 118.856 167.740 C 114.547 167.509,113.777 167.360,112.850 166.581 C 110.607 164.694,105.288 163.702,94.800 163.215 C 89.397 162.965,87.252 162.702,85.400 162.063 C 71.548 157.289,72.349 157.412,71.288 159.900 M380.146 170.000 C 382.574 180.897,382.736 235.513,380.374 246.735 C 379.024 253.150,378.642 253.658,376.534 251.845 L 375.423 250.889 375.610 237.945 C 375.832 222.615,375.852 195.177,375.654 179.145 C 375.502 166.756,375.617 165.914,377.593 164.928 C 378.871 164.291,378.876 164.300,380.146 170.000 M77.646 183.680 C 77.585 193.007,79.191 201.648,81.394 203.851 C 81.983 204.440,82.794 206.873,82.798 208.064 C 82.801 209.038,85.780 212.643,87.547 213.813 C 89.346 215.003,89.358 215.000,94.114 212.124 C 98.259 209.619,97.608 209.664,104.400 211.400 C 110.308 212.909,111.200 213.488,111.200 215.810 C 111.200 217.352,114.252 220.400,115.797 220.400 C 118.316 220.400,120.024 221.777,120.566 224.245 C 120.938 225.940,123.065 227.878,124.929 228.219 C 127.046 228.608,128.628 230.075,129.385 232.354 C 130.165 234.704,131.321 235.822,133.280 236.119 C 136.719 236.640,138.018 237.748,139.234 241.200 L 139.869 243.000 144.234 244.302 C 150.334 246.122,162.805 247.252,167.200 246.382 L 168.600 246.105 167.000 246.025 C 158.360 245.590,156.565 245.340,154.467 244.279 C 152.961 243.517,151.720 243.200,150.244 243.200 C 147.922 243.200,146.015 242.284,147.300 241.786 C 148.338 241.384,148.163 241.026,146.553 240.258 C 143.356 238.734,138.696 235.420,137.808 234.041 C 135.504 230.462,124.182 220.000,122.613 220.000 C 122.313 220.000,121.044 218.834,119.793 217.410 C 118.228 215.627,116.815 214.482,115.260 213.737 C 111.966 212.160,110.873 211.310,110.026 209.666 C 108.616 206.929,107.060 205.795,102.002 203.817 C 95.812 201.396,95.600 201.453,95.600 205.543 L 95.600 208.632 92.396 210.505 L 89.191 212.378 87.396 210.658 C 85.087 208.446,85.080 204.964,87.379 202.423 C 87.947 201.795,87.956 201.669,87.441 201.471 C 86.270 201.022,85.560 199.227,84.800 194.799 C 83.976 189.995,82.883 185.783,82.549 186.118 C 82.436 186.230,82.559 187.411,82.820 188.742 C 83.362 191.496,83.184 192.604,81.947 194.176 C 80.541 195.964,80.204 194.713,80.176 187.600 C 80.152 181.643,80.111 181.336,79.120 179.778 C 78.553 178.886,78.000 177.806,77.891 177.378 C 77.782 176.950,77.672 179.786,77.646 183.680 M107.893 207.357 L 109.374 208.714 107.930 209.113 C 104.611 210.029,102.043 208.294,104.500 206.796 C 106.181 205.770,106.157 205.766,107.893 207.357 M117.111 215.886 C 119.142 217.076,118.821 217.463,115.724 217.560 C 114.183 217.608,113.867 217.201,114.387 215.834 C 114.872 214.559,114.846 214.559,117.111 215.886 M251.655 217.663 C 251.324 218.557,251.158 218.556,249.235 217.646 L 247.871 217.000 249.435 216.785 C 251.532 216.496,252.016 216.687,251.655 217.663 M215.594 220.610 C 213.398 224.163,207.390 225.293,205.238 222.558 C 204.348 221.426,204.318 221.456,203.446 224.400 C 202.656 227.065,202.451 227.331,199.345 229.703 C 197.995 230.734,196.465 232.120,195.945 232.782 C 195.425 233.445,194.558 234.558,194.018 235.256 C 193.043 236.515,190.609 237.806,185.000 240.039 C 183.460 240.652,182.560 241.170,183.000 241.191 C 186.679 241.364,185.717 242.985,181.931 242.994 C 179.423 243.000,176.051 244.292,176.011 245.262 C 175.990 245.769,183.443 245.330,187.400 244.592 C 192.276 243.682,192.987 243.268,193.556 241.010 C 194.085 238.910,195.512 237.747,198.042 237.356 C 201.102 236.883,202.514 235.340,203.583 231.298 C 204.352 228.390,206.264 227.679,213.641 227.561 C 219.835 227.461,221.699 228.344,223.695 232.325 C 224.877 234.683,225.162 234.975,226.719 235.427 C 229.487 236.232,231.021 237.096,233.072 239.006 C 234.131 239.993,235.105 240.800,235.235 240.800 C 235.365 240.800,235.670 241.236,235.913 241.769 C 237.115 244.406,244.892 246.416,254.600 246.599 C 261.155 246.722,263.117 246.237,257.600 245.856 C 251.575 245.441,250.579 245.246,248.988 244.166 C 247.807 243.364,247.071 243.200,244.662 243.200 C 241.191 243.200,240.384 242.694,241.671 241.324 C 242.147 240.818,242.461 240.350,242.368 240.286 C 242.276 240.221,241.234 239.730,240.054 239.194 C 238.874 238.658,237.182 237.537,236.296 236.702 C 235.409 235.867,234.597 235.269,234.492 235.375 C 234.387 235.480,233.568 235.192,232.672 234.735 C 231.215 233.991,231.115 233.851,231.727 233.404 C 232.580 232.780,227.662 228.120,224.376 226.437 C 222.717 225.587,222.476 225.333,222.979 224.966 C 223.608 224.506,222.713 223.608,218.810 220.778 C 216.508 219.109,216.521 219.110,215.594 220.610 M302.400 225.024 C 302.400 225.381,301.996 225.600,301.338 225.600 C 300.306 225.600,300.296 225.578,300.991 224.809 C 301.751 223.970,302.400 224.069,302.400 225.024 M200.372 233.100 C 200.399 234.350,200.340 234.400,198.833 234.400 C 196.001 234.400,195.810 234.057,197.799 232.539 C 198.790 231.782,199.613 230.947,199.628 230.682 C 199.685 229.702,200.345 231.846,200.372 233.100 M294.061 232.993 C 294.221 234.362,293.600 234.639,291.332 234.214 L 289.944 233.953 291.572 232.774 C 292.467 232.126,293.205 231.371,293.212 231.097 C 293.234 230.212,293.913 231.729,294.061 232.993 M372.278 255.764 C 375.676 258.684,372.987 278.904,369.009 280.342 C 367.521 280.880,367.596 280.723,365.166 288.400 C 363.145 294.782,362.311 296.253,360.521 296.589 C 358.902 296.892,357.747 298.337,357.385 300.512 C 357.101 302.221,354.231 309.834,353.569 310.635 C 353.371 310.875,352.497 311.284,351.626 311.545 C 349.613 312.148,348.508 313.556,348.188 315.928 C 347.617 320.160,345.938 322.494,343.090 323.016 C 341.324 323.340,340.400 324.455,340.400 326.263 C 340.400 327.843,337.516 332.236,335.715 333.400 C 335.034 333.840,334.171 334.710,333.797 335.332 C 332.744 337.085,328.952 340.512,327.083 341.400 C 325.919 341.953,325.169 342.672,324.652 343.732 C 323.605 345.876,319.954 348.656,317.753 348.986 C 315.812 349.277,314.800 350.323,314.800 352.038 C 314.800 353.297,311.827 356.252,310.224 356.586 C 309.661 356.704,308.705 356.902,308.100 357.027 C 306.185 357.422,305.230 358.325,304.763 360.182 C 304.100 362.815,301.819 364.071,293.097 366.604 C 290.607 367.327,290.497 367.409,289.689 369.123 C 288.887 370.824,286.666 372.198,283.294 373.078 C 280.070 373.920,277.567 375.297,275.894 377.149 C 272.776 380.599,269.435 381.556,257.687 382.360 C 251.645 382.773,251.200 382.983,251.200 385.416 C 251.200 390.081,242.867 390.847,194.200 390.655 C 154.982 390.501,150.516 390.286,145.200 388.296 L 142.600 387.323 142.477 385.199 L 142.354 383.075 149.877 383.351 C 154.015 383.503,160.280 383.888,163.800 384.207 C 191.618 386.727,200.254 386.678,235.931 383.793 C 239.964 383.467,244.497 383.200,246.005 383.200 C 250.111 383.200,250.800 382.826,250.800 380.596 C 250.800 378.038,252.493 377.363,265.800 374.612 C 270.813 373.575,272.400 372.662,272.400 370.816 C 272.400 369.690,275.532 368.076,279.008 367.411 C 285.634 366.143,288.400 364.706,288.400 362.531 C 288.400 360.993,291.860 358.823,295.561 358.040 C 298.445 357.429,300.525 356.205,301.460 354.570 C 302.331 353.047,308.489 349.035,312.078 347.652 C 312.852 347.354,313.297 346.770,313.652 345.585 C 314.208 343.729,317.253 340.726,319.600 339.720 C 321.504 338.904,322.310 338.122,322.598 336.811 C 322.905 335.411,326.029 331.717,328.035 330.382 C 328.876 329.822,330.039 328.652,330.619 327.782 C 332.362 325.168,335.993 321.701,337.252 321.450 C 338.007 321.299,338.578 320.833,338.897 320.109 C 339.166 319.499,340.030 317.989,340.818 316.754 C 341.606 315.519,342.578 313.629,342.980 312.554 C 343.858 310.202,344.665 309.200,345.682 309.200 C 348.068 309.200,349.324 307.474,349.855 303.467 C 350.353 299.711,352.146 296.120,354.766 293.637 C 356.904 291.610,357.168 291.175,357.578 289.000 C 358.468 284.287,358.856 283.009,360.120 280.642 C 360.903 279.175,361.866 277.991,362.600 277.592 C 364.234 276.705,365.469 274.762,365.981 272.275 C 366.217 271.134,366.871 267.879,367.435 265.043 C 369.420 255.069,370.054 253.854,372.278 255.764 M30.741 273.151 C 31.676 275.325,33.503 283.260,33.949 287.086 C 34.296 290.064,34.275 290.039,36.628 290.304 C 38.865 290.556,39.805 291.822,40.854 295.997 C 43.257 305.552,43.471 306.000,45.635 306.000 C 47.346 306.000,49.935 309.290,50.579 312.281 C 50.973 314.111,52.181 315.468,53.906 316.020 C 56.163 316.743,57.130 317.879,58.014 320.846 C 58.872 323.726,60.288 325.369,62.331 325.854 C 63.944 326.236,64.675 327.057,66.174 330.165 C 67.955 333.858,75.394 341.613,78.880 343.409 C 80.281 344.131,81.241 344.909,81.371 345.427 C 81.902 347.543,85.831 350.385,88.240 350.396 C 89.767 350.403,92.331 352.624,92.625 354.195 C 92.960 355.976,94.331 357.081,96.637 357.427 C 99.428 357.845,104.412 361.054,104.961 362.785 C 105.589 364.765,108.247 366.298,112.270 367.001 C 117.160 367.854,119.846 369.017,121.963 371.194 C 124.224 373.520,125.503 374.197,128.816 374.820 C 132.716 375.554,138.799 377.178,140.600 377.966 L 142.200 378.666 142.061 380.972 C 141.924 383.241,141.904 383.274,140.861 383.025 C 140.277 382.885,137.820 382.613,135.400 382.421 C 125.831 381.659,119.636 379.919,118.335 377.627 C 117.597 376.329,113.519 374.240,108.495 372.586 C 105.206 371.504,103.631 370.514,103.613 369.519 C 103.573 367.392,101.793 366.000,99.114 366.000 C 97.748 366.000,97.116 365.698,93.500 363.317 C 92.015 362.339,90.800 361.319,90.800 361.050 C 90.800 359.544,86.383 356.614,82.370 355.460 C 79.765 354.711,78.752 353.742,78.200 351.471 C 77.721 349.502,75.788 348.000,73.732 348.000 C 71.771 348.000,68.994 345.374,68.645 343.190 C 68.321 341.167,67.243 340.080,65.243 339.760 C 62.940 339.392,60.963 337.208,60.193 334.183 C 59.556 331.675,57.869 329.600,56.469 329.600 C 55.456 329.600,53.787 327.684,53.200 325.848 C 52.518 323.714,50.299 321.381,48.187 320.574 C 46.469 319.918,46.361 319.767,43.795 314.451 C 42.348 311.453,41.025 308.741,40.854 308.424 C 40.683 308.107,40.016 307.673,39.371 307.459 C 37.293 306.769,35.437 303.436,34.997 299.600 C 34.347 293.929,32.837 290.818,30.728 290.806 C 29.331 290.798,26.800 286.055,26.801 283.446 C 26.801 282.541,26.593 280.312,26.339 278.494 C 25.761 274.360,26.240 272.272,27.907 271.663 C 29.682 271.014,29.862 271.108,30.741 273.151 " stroke="none" fill="#b4b4cc" fill-rule="evenodd"></path><path id="path4" d="M184.400 17.191 C 176.390 17.716,171.977 18.616,168.266 20.480 C 166.063 21.587,159.887 22.667,151.651 23.385 C 141.758 24.247,134.000 26.625,134.000 28.795 C 134.000 29.697,131.786 30.433,125.019 31.783 C 116.756 33.432,114.285 34.418,111.673 37.113 C 110.118 38.718,109.290 39.201,106.800 39.959 C 101.166 41.672,100.779 41.913,97.583 45.700 C 96.887 46.525,96.111 47.203,95.859 47.206 C 93.489 47.235,85.698 52.069,84.176 54.454 C 83.480 55.545,82.388 56.330,79.799 57.601 C 76.316 59.310,75.406 60.208,73.944 63.378 C 73.539 64.254,72.815 64.782,71.118 65.438 C 67.881 66.689,66.593 67.732,65.606 69.903 C 65.132 70.946,64.618 72.044,64.464 72.343 C 64.310 72.642,63.303 73.221,62.225 73.630 C 59.556 74.643,57.749 76.510,56.729 79.306 C 55.945 81.457,55.718 81.710,53.738 82.647 C 51.348 83.777,49.920 85.392,48.997 88.008 C 48.247 90.133,47.458 91.051,45.539 92.031 C 43.879 92.878,41.776 95.244,41.419 96.666 C 41.009 98.300,38.740 101.726,36.960 103.400 C 34.425 105.783,32.591 108.802,31.815 111.868 C 30.991 115.123,30.008 117.600,29.540 117.600 C 27.555 117.600,24.832 122.355,23.813 127.600 C 22.638 133.656,21.750 136.075,20.023 137.926 C 17.294 140.853,16.164 143.787,14.419 152.481 C 13.234 158.384,12.586 160.743,11.838 161.881 C 6.937 169.334,6.208 175.399,6.221 208.600 C 6.235 242.764,6.807 247.430,11.978 255.588 C 12.920 257.074,13.387 258.805,14.573 265.200 C 16.206 274.010,17.713 277.930,20.197 279.825 C 21.670 280.949,22.496 282.910,23.217 287.000 C 24.275 292.996,26.891 298.267,29.168 298.990 C 30.055 299.271,30.535 300.364,31.571 304.457 C 32.709 308.950,34.387 311.986,36.938 314.165 C 38.607 315.591,39.488 316.796,40.738 319.367 C 42.275 322.526,44.612 325.200,45.837 325.200 C 46.814 325.200,48.310 326.850,48.992 328.680 C 50.027 331.459,51.421 333.127,53.539 334.124 C 55.646 335.116,55.911 335.439,56.834 338.127 C 57.675 340.577,59.635 342.626,62.259 343.799 C 63.959 344.559,64.368 344.945,64.601 346.004 C 65.021 347.916,68.210 351.010,70.400 351.630 C 72.719 352.287,73.060 352.569,73.938 354.553 C 74.867 356.654,77.109 358.625,79.293 359.261 C 81.330 359.855,84.000 361.514,84.000 362.187 C 84.000 363.406,86.858 365.719,91.000 367.853 C 94.009 369.402,96.179 370.858,97.864 372.458 C 100.300 374.771,102.525 376.022,105.216 376.593 C 107.391 377.055,109.498 378.407,110.573 380.030 C 111.960 382.127,118.003 384.800,121.356 384.800 C 124.751 384.800,131.062 386.960,133.010 388.788 C 136.203 391.786,140.216 392.865,152.400 394.005 C 158.952 394.618,162.452 395.397,164.926 396.793 C 174.079 401.959,222.078 401.790,230.102 396.564 C 231.716 395.513,237.013 394.445,244.800 393.599 C 253.726 392.630,257.902 391.290,261.586 388.212 C 263.241 386.829,263.894 386.633,273.600 384.611 C 277.508 383.797,280.364 382.444,281.736 380.757 C 283.976 378.001,284.413 377.694,287.029 377.037 C 290.755 376.101,295.562 373.582,297.307 371.651 C 298.890 369.898,300.865 368.736,303.441 368.043 C 305.988 367.357,308.217 365.511,309.270 363.218 C 310.146 361.308,310.332 361.155,312.762 360.346 C 315.348 359.485,318.800 356.707,318.800 355.485 C 318.800 354.864,320.845 352.800,321.460 352.800 C 322.534 352.800,327.029 349.317,331.200 345.254 C 333.730 342.789,336.476 340.384,337.303 339.910 C 339.446 338.682,343.069 333.081,344.516 328.758 C 344.634 328.405,345.726 327.554,346.943 326.867 C 349.143 325.625,350.747 323.579,351.385 321.200 C 352.062 318.677,352.624 317.881,354.638 316.593 C 357.240 314.929,357.500 314.537,359.815 308.800 C 361.438 304.780,361.989 303.871,364.187 301.589 C 366.227 299.472,366.834 298.527,367.399 296.589 C 369.017 291.039,369.703 289.576,371.598 287.641 C 374.467 284.710,375.419 282.343,376.990 274.223 C 378.218 267.875,378.506 266.924,379.525 265.832 C 383.114 261.986,384.385 256.439,385.580 239.400 C 387.308 214.780,387.201 197.033,385.186 173.600 C 383.908 158.734,382.971 154.752,380.006 151.600 C 378.378 149.868,378.282 149.587,376.800 142.200 C 375.433 135.384,374.122 132.255,371.603 129.800 C 370.162 128.395,369.762 127.569,368.330 123.026 C 366.742 117.988,366.629 117.776,364.048 115.026 C 361.830 112.661,361.080 111.467,359.448 107.703 C 357.462 103.125,356.363 101.615,354.208 100.501 C 352.571 99.656,352.166 99.044,351.159 95.911 C 350.197 92.916,348.287 90.382,346.403 89.601 C 345.455 89.208,344.869 88.444,343.834 86.246 C 341.235 80.728,338.222 77.351,332.400 73.431 C 331.630 72.913,329.461 70.961,327.580 69.095 C 324.760 66.297,323.722 65.542,321.666 64.792 C 319.363 63.952,319.109 63.738,318.359 61.994 C 317.280 59.485,315.431 57.766,312.560 56.604 C 310.580 55.803,310.054 55.371,309.296 53.924 C 308.133 51.708,306.924 50.658,304.529 49.786 C 300.021 48.144,297.982 47.052,296.985 45.745 C 295.347 43.597,291.560 41.382,287.879 40.417 C 283.120 39.170,282.567 38.892,281.428 37.171 C 279.993 35.003,277.012 33.419,272.859 32.618 C 262.404 30.601,260.848 30.117,258.743 28.225 C 256.256 25.988,253.393 24.906,248.014 24.169 C 230.130 21.718,228.988 21.523,227.016 20.590 C 220.875 17.685,201.013 16.101,184.400 17.191 M209.598 21.980 C 210.807 22.202,214.407 22.660,217.598 22.998 C 245.713 25.980,249.617 26.717,254.057 29.881 C 256.450 31.587,258.283 32.215,264.400 33.425 C 271.411 34.812,274.060 35.776,276.947 37.989 C 279.972 40.308,281.109 40.902,284.200 41.785 C 287.522 42.734,290.883 44.597,292.576 46.426 C 294.349 48.342,296.633 49.687,300.000 50.797 C 303.379 51.911,305.222 53.144,306.805 55.348 C 307.605 56.462,308.941 57.599,310.345 58.362 C 313.458 60.054,314.185 60.685,315.930 63.206 C 316.890 64.594,318.100 65.750,319.224 66.352 C 322.483 68.099,324.012 69.309,325.467 71.291 C 326.292 72.415,327.968 73.925,329.381 74.818 C 333.032 77.124,339.886 84.358,341.681 87.800 C 342.686 89.728,343.853 91.214,345.427 92.572 C 347.296 94.184,348.023 95.206,349.408 98.172 C 350.775 101.097,351.523 102.160,353.274 103.656 C 355.203 105.305,355.704 106.088,357.757 110.656 C 359.595 114.748,360.503 116.250,362.192 118.000 C 364.653 120.550,365.181 121.503,366.789 126.305 C 368.530 131.500,369.075 132.659,370.556 134.309 C 372.785 136.793,373.620 139.014,375.230 146.744 C 376.441 152.561,377.027 154.558,377.964 156.065 C 382.398 163.197,383.585 172.544,383.880 202.641 C 384.240 239.327,383.253 249.918,378.592 259.400 C 376.622 263.408,376.319 264.403,375.190 270.577 C 373.844 277.938,372.982 280.249,370.438 283.313 C 369.411 284.550,368.270 286.740,367.207 289.513 C 364.609 296.289,364.396 296.687,362.035 299.158 C 360.123 301.159,359.513 302.214,357.814 306.449 C 355.998 310.977,355.617 311.605,353.346 313.800 C 351.538 315.548,350.525 316.958,349.615 318.992 C 348.228 322.094,347.392 323.137,344.916 324.851 C 343.661 325.720,342.798 326.855,341.529 329.308 C 339.670 332.900,333.811 339.413,329.600 342.566 C 328.390 343.473,326.358 345.315,325.084 346.660 C 323.798 348.018,321.710 349.669,320.389 350.374 C 318.822 351.209,317.606 352.228,316.828 353.359 C 315.206 355.716,313.115 357.471,310.603 358.582 C 309.018 359.283,308.077 360.071,306.859 361.721 C 304.914 364.353,303.543 365.387,300.706 366.363 C 297.690 367.401,294.421 369.113,292.871 370.466 C 290.828 372.250,288.551 373.579,285.701 374.652 C 282.116 376.001,281.322 376.458,278.801 378.624 C 275.551 381.416,273.916 382.005,262.687 384.427 C 259.743 385.062,258.257 385.623,256.687 386.691 C 251.195 390.427,251.035 390.462,223.491 394.025 C 221.781 394.246,217.731 394.877,214.491 395.427 C 203.341 397.320,187.619 397.154,176.712 395.028 C 171.219 393.958,162.899 392.797,153.467 391.786 C 144.540 390.830,140.347 389.570,136.808 386.780 C 135.074 385.413,133.117 384.751,126.978 383.451 C 120.028 381.981,116.755 380.675,114.007 378.277 C 113.240 377.608,111.080 376.365,109.207 375.514 C 103.725 373.026,103.155 372.695,101.026 370.754 C 99.912 369.739,97.830 368.319,96.400 367.599 C 92.807 365.791,89.499 363.487,87.175 361.175 C 85.941 359.947,83.916 358.585,81.727 357.511 C 78.774 356.061,77.961 355.434,76.389 353.400 C 75.140 351.784,73.761 350.565,72.167 349.669 C 69.142 347.969,68.575 347.453,66.934 344.907 C 66.084 343.590,64.791 342.307,63.440 341.443 C 61.109 339.952,59.940 338.577,58.157 335.229 C 57.416 333.838,56.320 332.569,55.109 331.698 C 53.902 330.830,52.549 329.265,51.369 327.370 C 49.990 325.159,48.901 323.969,47.091 322.701 C 44.955 321.204,44.396 320.508,42.429 316.897 C 41.200 314.640,39.238 311.685,38.069 310.330 C 35.683 307.564,33.867 304.243,33.158 301.346 C 32.527 298.766,31.412 296.600,29.585 294.404 C 27.375 291.747,26.104 288.910,24.967 284.099 C 23.797 279.149,22.937 277.024,21.246 274.910 C 18.747 271.784,17.518 267.795,15.424 256.000 C 14.904 253.071,14.254 251.191,12.592 247.800 C 8.720 239.904,7.357 223.059,8.383 195.800 C 8.988 179.728,9.608 175.773,12.396 170.200 C 13.655 167.683,14.617 165.087,14.989 163.200 C 15.315 161.550,16.049 157.788,16.619 154.840 C 17.863 148.413,18.810 145.737,20.638 143.487 C 22.745 140.893,23.904 138.156,25.007 133.169 C 26.154 127.981,27.678 124.406,29.702 122.151 C 31.335 120.332,32.527 118.101,33.199 115.604 C 33.929 112.894,35.475 110.100,37.383 108.047 C 39.246 106.042,41.122 103.217,43.191 99.300 C 44.065 97.646,45.374 96.043,47.060 94.562 C 48.632 93.182,50.220 91.278,51.204 89.593 C 52.082 88.091,53.343 86.442,54.006 85.931 C 54.670 85.419,55.760 84.571,56.428 84.047 C 57.096 83.522,58.155 82.082,58.781 80.847 C 60.073 78.297,60.858 77.501,64.084 75.469 C 65.604 74.512,66.636 73.505,67.169 72.461 C 68.292 70.259,70.120 68.553,72.812 67.194 C 74.464 66.360,75.618 65.379,76.861 63.752 C 78.152 62.063,79.363 61.054,81.559 59.838 C 83.186 58.937,85.848 56.995,87.475 55.523 C 89.616 53.584,91.615 52.266,94.716 50.746 C 98.215 49.031,99.477 48.155,101.603 45.964 C 103.954 43.541,104.496 43.195,107.203 42.381 C 111.315 41.145,114.132 39.865,116.398 38.201 C 119.479 35.940,122.290 34.878,128.560 33.608 C 134.913 32.321,136.976 31.572,139.280 29.713 C 141.459 27.955,146.590 26.412,152.400 25.767 C 165.249 24.342,185.363 21.943,188.600 21.450 C 190.656 21.137,207.284 21.557,209.598 21.980 M178.719 33.622 C 161.685 34.260,151.343 35.925,147.848 38.590 C 145.719 40.214,142.210 41.437,136.400 42.580 C 129.253 43.986,127.854 44.483,125.222 46.548 C 122.409 48.755,119.129 50.393,114.777 51.766 C 112.468 52.494,110.711 53.358,109.377 54.421 C 106.439 56.764,102.565 59.289,99.303 60.987 C 97.374 61.992,96.130 62.942,95.581 63.831 C 94.392 65.755,92.608 67.125,89.377 68.598 C 87.259 69.563,86.098 70.414,84.801 71.953 C 83.844 73.088,81.878 74.757,80.431 75.662 C 76.961 77.833,69.291 85.510,67.452 88.653 C 66.646 90.031,64.973 92.010,63.637 93.168 C 62.198 94.414,60.903 95.975,60.362 97.115 C 58.997 99.991,58.115 101.090,55.786 102.810 C 54.174 104.001,53.284 105.084,52.162 107.219 C 51.124 109.195,49.857 110.797,47.965 112.525 C 45.074 115.165,44.501 116.181,42.627 121.984 C 41.227 126.319,40.693 127.321,38.587 129.573 C 36.575 131.723,35.590 134.022,34.148 139.925 C 32.966 144.762,31.585 148.079,29.471 151.151 C 27.540 153.959,27.354 154.715,25.978 165.353 C 25.326 170.387,24.415 176.327,23.951 178.553 C 21.823 188.776,20.817 194.928,20.343 200.600 C 19.526 210.401,20.749 224.201,23.551 236.800 C 24.158 239.531,25.493 247.996,26.199 253.600 C 27.054 260.383,27.755 262.939,29.598 266.000 C 31.794 269.648,32.652 271.734,33.814 276.260 C 35.713 283.654,36.343 285.145,38.615 287.616 C 41.266 290.500,41.306 290.577,43.262 296.696 L 44.884 301.771 47.639 304.385 C 49.400 306.057,50.937 308.000,51.897 309.771 C 53.001 311.806,54.024 313.028,55.750 314.371 C 57.476 315.714,58.550 316.997,59.795 319.200 C 60.793 320.968,62.046 322.580,62.845 323.125 C 65.137 324.688,66.406 326.091,68.018 328.840 C 69.898 332.047,76.870 339.289,80.219 341.513 C 81.549 342.397,83.308 343.937,84.127 344.937 C 85.211 346.260,86.548 347.214,89.044 348.445 C 91.684 349.747,92.939 350.665,94.505 352.445 C 96.052 354.203,97.204 355.052,99.325 356.001 C 102.868 357.585,105.969 359.569,108.337 361.766 C 110.673 363.933,111.520 364.350,117.200 366.127 C 119.834 366.951,122.631 368.129,123.745 368.883 C 128.970 372.421,129.579 372.696,135.499 374.172 C 141.690 375.717,144.864 376.944,147.118 378.663 C 155.631 385.156,235.466 385.489,245.163 379.072 C 248.833 376.643,251.802 375.582,260.800 373.480 C 264.940 372.513,267.722 371.312,269.417 369.759 C 271.322 368.014,273.824 366.705,277.017 365.782 C 281.102 364.601,283.433 363.360,286.000 361.000 C 288.296 358.890,289.319 358.309,295.673 355.513 C 296.704 355.059,298.230 353.988,299.066 353.132 C 299.901 352.277,302.548 350.367,304.948 348.888 C 307.347 347.410,310.141 345.314,311.155 344.230 C 314.103 341.083,316.070 339.283,318.013 337.954 C 319.010 337.272,320.454 335.754,321.222 334.579 C 321.991 333.404,326.114 328.830,330.387 324.414 C 338.786 315.732,338.974 315.503,341.010 311.533 C 341.919 309.759,343.102 308.240,344.545 306.994 C 346.908 304.955,347.334 304.162,349.256 298.238 C 350.080 295.700,351.020 293.687,351.872 292.638 C 354.511 289.387,355.617 287.386,356.631 284.023 C 357.742 280.342,359.738 276.318,361.659 273.890 C 363.516 271.543,364.272 269.437,365.801 262.361 C 367.602 254.023,368.030 252.674,370.421 247.800 C 373.574 241.372,374.230 232.534,373.868 201.400 C 373.602 178.529,373.002 173.018,370.425 169.741 C 369.138 168.104,368.198 165.092,366.206 156.210 C 364.203 147.281,363.714 145.962,361.366 143.172 C 359.677 141.165,358.059 137.837,356.796 133.771 C 355.330 129.054,354.816 127.953,352.999 125.640 C 351.120 123.247,349.309 119.576,348.245 116.000 C 347.329 112.925,346.820 112.156,344.578 110.462 C 343.038 109.298,342.187 108.165,340.643 105.222 C 339.179 102.432,337.787 100.534,335.225 97.834 C 333.329 95.835,330.890 93.030,329.804 91.600 C 328.719 90.170,327.464 88.734,327.016 88.408 C 325.090 87.010,322.946 84.840,321.334 82.659 C 320.382 81.371,318.388 79.415,316.902 78.313 C 315.416 77.210,312.760 74.921,311.000 73.226 C 307.642 69.991,305.396 68.313,302.400 66.801 C 301.410 66.301,299.420 64.792,297.978 63.446 C 296.132 61.724,294.631 60.727,292.907 60.078 C 290.542 59.189,288.157 57.728,283.671 54.423 C 282.499 53.560,280.023 52.305,278.167 51.633 C 273.484 49.939,271.911 49.073,269.810 47.030 C 267.585 44.868,265.190 44.019,257.361 42.617 C 250.280 41.349,245.538 39.653,244.045 37.854 C 241.117 34.327,211.351 32.398,178.719 33.622 M230.814 36.916 C 235.148 37.642,236.657 38.134,237.800 39.197 C 240.362 41.578,245.844 43.393,254.086 44.590 C 260.986 45.591,263.602 46.406,265.000 47.990 C 266.831 50.063,271.073 52.315,274.800 53.191 C 277.931 53.928,279.607 54.875,281.126 56.766 C 282.557 58.549,286.955 61.014,290.828 62.204 C 294.041 63.191,294.698 63.588,295.223 64.855 C 295.914 66.523,298.004 68.194,300.626 69.175 C 303.259 70.161,305.887 71.896,306.210 72.863 C 306.457 73.605,308.851 75.791,312.053 78.200 C 314.647 80.150,322.839 88.392,324.389 90.609 C 325.008 91.494,325.951 92.452,326.485 92.738 C 327.431 93.245,329.959 96.242,332.023 99.306 C 332.586 100.141,333.921 101.404,334.989 102.112 C 336.930 103.399,337.115 103.675,339.809 109.316 C 340.731 111.247,341.283 111.846,343.135 112.929 L 345.356 114.227 346.210 117.613 C 348.177 125.419,349.431 127.996,352.164 129.853 C 353.199 130.556,353.681 131.259,353.983 132.505 C 356.124 141.335,357.882 145.522,360.273 147.482 C 362.161 149.029,363.454 153.434,364.415 161.600 C 365.187 168.155,365.994 170.854,368.609 175.630 C 371.432 180.783,372.421 195.620,371.610 220.600 C 371.073 237.107,370.862 238.306,367.477 244.044 C 366.195 246.217,365.074 250.505,364.193 256.600 C 362.894 265.584,362.168 268.005,360.232 269.800 C 357.762 272.092,355.761 276.747,354.401 283.368 C 354.053 285.064,353.622 285.972,352.883 286.568 C 349.141 289.584,347.649 292.392,346.384 298.800 C 345.665 302.436,345.271 303.083,342.996 304.368 C 341.213 305.374,340.707 305.931,339.808 307.882 C 337.806 312.223,337.426 312.889,336.413 313.840 C 333.566 316.510,332.002 318.140,330.000 320.523 C 328.790 321.963,327.505 323.251,327.145 323.384 C 326.140 323.754,324.827 325.137,322.200 328.590 C 319.672 331.914,316.605 335.010,310.500 340.405 C 308.465 342.203,306.800 343.831,306.800 344.023 C 306.800 344.489,302.459 347.409,301.200 347.790 C 299.025 348.447,297.126 349.845,295.977 351.636 C 294.732 353.576,294.290 353.832,290.167 354.998 C 287.006 355.892,282.430 358.659,281.406 360.295 C 280.414 361.880,277.946 363.145,274.452 363.861 C 271.196 364.528,266.426 366.886,264.245 368.908 C 262.312 370.700,260.656 371.234,252.800 372.602 C 246.947 373.621,245.012 374.362,237.445 378.477 C 230.561 382.221,160.241 381.977,156.000 378.194 C 155.272 377.545,150.379 375.201,149.751 375.200 C 149.504 375.200,148.514 374.859,147.551 374.442 C 146.588 374.025,142.564 373.013,138.609 372.193 L 131.419 370.703 129.209 368.415 C 126.746 365.864,124.661 364.965,118.078 363.616 C 114.494 362.882,112.000 361.892,112.000 361.204 C 112.000 359.549,104.875 355.013,99.964 353.542 C 98.907 353.225,98.252 352.674,97.641 351.588 C 96.472 349.508,94.452 347.828,92.142 347.014 C 88.314 345.665,87.639 345.244,86.852 343.714 C 85.842 341.750,84.192 340.206,82.225 339.385 C 79.787 338.366,78.096 336.884,76.932 334.746 C 76.216 333.430,75.177 332.331,73.756 331.389 C 71.358 329.797,70.427 328.621,69.399 325.885 C 68.646 323.880,67.032 322.228,64.992 321.372 C 63.326 320.674,62.598 319.766,61.632 317.179 C 60.705 314.700,58.920 312.741,56.768 311.843 C 54.999 311.105,54.757 310.781,53.807 307.864 C 53.086 305.652,50.590 302.288,47.758 299.711 C 46.534 298.597,45.438 296.066,44.371 291.886 C 43.331 287.814,43.206 287.579,40.332 284.316 C 37.615 281.231,36.639 278.880,35.800 273.398 C 34.904 267.542,33.473 263.591,31.424 261.311 C 28.908 258.513,28.627 256.903,26.347 232.200 C 24.394 211.054,24.433 203.890,26.621 181.800 C 28.861 159.174,29.055 158.081,31.252 155.697 C 33.643 153.103,35.010 149.413,36.028 142.800 C 36.646 138.781,37.864 135.591,39.188 134.520 C 41.376 132.748,43.138 129.566,44.196 125.473 C 45.466 120.561,46.171 119.203,49.013 116.200 C 52.387 112.634,53.214 111.439,54.207 108.698 C 55.041 106.393,55.266 106.129,57.254 105.109 C 59.830 103.788,60.975 102.469,61.860 99.800 C 62.738 97.150,63.444 96.126,64.590 95.838 C 66.585 95.337,69.600 91.747,69.600 89.871 C 69.600 89.131,72.676 86.011,74.403 85.000 C 75.155 84.560,76.172 83.570,76.663 82.800 C 78.509 79.903,79.366 79.132,82.342 77.686 C 85.002 76.394,85.611 75.887,87.023 73.800 C 88.415 71.742,88.930 71.308,90.637 70.755 C 93.978 69.672,95.301 68.827,97.800 66.176 C 99.815 64.038,100.983 63.241,105.082 61.208 C 109.037 59.246,110.278 58.413,111.616 56.828 C 113.376 54.740,114.236 54.261,117.400 53.603 C 122.574 52.528,126.502 50.731,128.875 48.354 C 130.156 47.070,131.642 45.975,132.275 45.846 C 132.894 45.721,136.100 45.162,139.400 44.604 C 146.589 43.388,153.390 41.327,156.400 39.451 C 161.275 36.414,166.026 36.059,200.200 36.181 C 222.564 36.261,227.631 36.383,230.814 36.916 M70.283 154.436 C 64.981 158.806,65.815 174.875,71.797 183.600 C 73.050 185.427,74.205 189.835,74.996 195.800 C 76.511 207.236,79.562 213.212,86.056 217.460 L 89.353 219.617 90.976 218.060 C 91.869 217.203,93.814 215.834,95.298 215.018 L 97.997 213.533 102.374 214.991 L 106.752 216.450 107.931 218.525 C 109.426 221.156,110.417 222.053,113.397 223.474 C 115.003 224.239,116.059 225.057,116.597 225.951 C 118.082 228.419,119.900 230.166,122.253 231.387 C 123.725 232.150,124.890 233.097,125.396 233.939 C 126.917 236.471,128.903 238.408,131.277 239.673 C 132.586 240.371,134.049 241.476,134.528 242.130 C 137.065 245.586,138.468 246.553,144.117 248.739 C 147.143 249.909,150.131 251.299,150.758 251.826 C 155.700 255.985,172.083 256.518,177.776 252.705 C 178.847 251.987,180.243 251.065,180.877 250.655 C 181.511 250.245,184.202 249.389,186.858 248.754 C 193.322 247.208,194.684 246.547,197.031 243.814 C 198.252 242.393,199.836 241.097,201.200 240.401 C 203.938 239.006,204.876 238.010,206.385 234.896 C 207.752 232.073,208.215 231.859,213.840 231.435 C 217.656 231.148,218.354 231.516,220.577 234.990 C 221.652 236.672,222.599 237.500,225.220 239.051 C 227.238 240.246,229.225 241.823,230.356 243.128 C 232.618 245.738,234.950 247.098,240.400 248.985 C 243.400 250.023,245.000 250.824,246.000 251.785 C 251.095 256.685,270.113 256.558,274.605 251.594 C 275.033 251.121,277.614 250.054,280.845 249.013 C 287.911 246.738,289.071 246.116,290.937 243.597 C 291.993 242.171,293.056 241.265,294.337 240.699 C 297.492 239.306,299.152 237.978,300.565 235.719 C 301.394 234.395,302.639 233.095,303.766 232.381 C 305.687 231.162,307.774 228.337,308.206 226.371 C 308.455 225.237,309.352 224.356,312.785 221.873 C 313.933 221.043,315.090 219.655,316.024 217.991 C 317.161 215.963,317.934 215.123,319.580 214.124 C 324.777 210.972,325.235 209.646,324.157 200.883 C 323.901 198.801,322.353 196.907,319.330 194.972 C 318.158 194.223,316.704 192.874,316.100 191.975 C 313.947 188.775,312.730 187.641,308.829 185.199 C 306.656 183.838,304.377 182.202,303.764 181.563 C 302.348 180.085,302.051 180.102,299.836 181.793 C 298.832 182.560,296.401 183.995,294.433 184.983 C 290.733 186.842,289.369 188.139,288.215 190.902 C 287.584 192.414,285.362 194.852,283.441 196.143 C 282.832 196.552,281.695 197.902,280.913 199.143 C 279.080 202.055,278.256 202.959,275.706 204.857 C 274.554 205.715,273.345 206.933,273.018 207.565 C 271.137 211.202,262.120 214.019,257.460 212.425 C 256.327 212.037,254.410 211.488,253.200 211.204 C 250.469 210.564,249.002 209.561,248.028 207.666 C 247.094 205.851,245.493 204.335,243.400 203.285 C 241.432 202.298,239.755 200.648,238.267 198.233 C 237.557 197.082,236.437 195.998,235.267 195.331 C 232.711 193.874,231.740 192.954,230.145 190.475 C 229.393 189.306,228.209 188.046,227.512 187.675 C 225.843 186.784,222.400 183.626,222.400 182.985 C 222.400 182.708,223.050 180.797,223.846 178.740 C 227.150 170.190,223.124 163.153,214.400 162.234 C 212.970 162.084,209.010 161.536,205.600 161.017 C 202.190 160.498,197.510 159.958,195.200 159.818 C 186.658 159.300,183.086 158.514,180.641 156.615 C 177.035 153.815,175.183 153.214,171.400 153.617 C 169.640 153.804,167.706 153.967,167.101 153.978 C 165.209 154.016,162.932 156.478,162.000 159.494 C 160.004 165.957,160.825 170.676,165.001 176.747 C 166.775 179.326,167.373 181.555,168.610 190.200 C 170.137 200.869,170.628 202.874,173.025 208.200 C 173.124 208.420,171.662 209.567,169.775 210.750 L 166.344 212.899 161.672 211.775 C 156.495 210.530,154.984 209.726,153.204 207.269 C 152.514 206.316,151.018 205.055,149.700 204.314 C 147.399 203.020,134.800 190.986,134.800 190.082 C 134.800 189.844,133.970 189.054,132.955 188.325 C 130.552 186.600,127.882 183.264,128.235 182.428 C 133.204 170.660,129.798 163.429,118.708 162.202 C 116.009 161.904,112.270 161.382,110.400 161.044 C 108.530 160.705,104.660 160.235,101.800 160.000 C 94.533 159.402,89.530 158.458,87.717 157.345 C 83.812 154.947,81.281 153.974,77.957 153.592 C 72.625 152.979,71.962 153.052,70.283 154.436 M78.200 159.620 C 80.840 160.509,84.080 161.609,85.400 162.063 C 87.252 162.702,89.397 162.965,94.800 163.215 C 105.288 163.702,110.607 164.694,112.850 166.581 C 113.777 167.360,114.547 167.509,118.856 167.740 L 123.800 168.005 124.930 169.302 C 128.089 172.930,128.185 174.582,125.545 179.911 L 123.857 183.319 125.028 185.560 C 125.672 186.792,127.099 188.751,128.199 189.913 C 129.300 191.075,131.100 193.039,132.200 194.277 C 133.991 196.293,136.265 198.742,139.200 201.812 C 142.232 204.985,144.184 206.414,146.988 207.516 C 148.559 208.133,149.058 208.587,149.753 210.031 C 150.846 212.304,152.548 213.404,155.867 213.982 C 159.586 214.630,164.400 216.740,164.400 217.722 C 164.400 218.556,165.608 220.800,166.057 220.800 C 166.616 220.800,168.000 218.677,168.000 217.820 C 168.000 217.226,168.424 216.746,169.330 216.314 C 175.464 213.389,176.738 211.575,176.992 205.404 C 177.087 203.099,177.360 200.849,177.598 200.403 C 178.060 199.541,176.946 198.800,175.189 198.800 C 174.632 198.800,174.315 198.349,173.996 197.100 C 173.756 196.165,173.484 195.173,173.391 194.896 C 172.323 191.716,171.132 182.146,171.326 178.309 L 171.543 174.018 169.672 172.361 C 168.642 171.450,167.368 170.505,166.839 170.260 C 166.296 170.009,165.481 168.958,164.965 167.845 L 164.051 165.873 164.813 163.870 C 165.811 161.242,165.653 161.354,170.231 160.034 L 174.200 158.890 175.400 159.675 C 179.912 162.628,181.173 162.930,190.407 163.266 C 200.232 163.623,206.310 164.754,207.741 166.490 C 208.594 167.526,208.243 167.460,213.315 167.539 L 217.230 167.600 218.932 169.352 C 219.869 170.315,220.973 171.852,221.385 172.767 L 222.135 174.429 220.233 178.806 C 217.720 184.590,218.856 187.853,224.206 190.220 C 225.979 191.004,226.316 191.341,226.741 192.762 C 227.404 194.973,229.752 197.316,232.200 198.209 C 234.850 199.175,235.069 199.375,235.392 201.114 C 235.967 204.218,238.429 206.400,241.354 206.400 C 242.915 206.400,244.274 207.806,244.789 209.955 C 245.399 212.499,246.541 213.532,249.237 213.983 C 254.150 214.804,257.038 216.311,257.584 218.339 C 258.627 222.216,261.842 221.868,262.984 217.755 C 263.165 217.104,263.924 216.708,266.309 216.023 C 271.513 214.528,271.819 214.414,273.434 213.355 C 274.295 212.790,275.593 211.531,276.317 210.558 C 277.041 209.585,278.320 208.356,279.159 207.826 C 281.298 206.476,283.427 203.858,284.252 201.562 C 284.827 199.965,285.196 199.531,286.287 199.171 C 288.926 198.300,291.096 195.682,291.771 192.556 C 292.166 190.724,293.737 189.455,298.182 187.378 L 302.157 185.520 303.379 186.238 C 309.687 189.944,311.109 191.120,311.802 193.205 C 312.659 195.787,314.453 197.592,317.096 198.532 C 319.816 199.499,319.879 199.603,320.633 204.361 C 321.414 209.298,321.128 209.844,317.181 210.941 C 314.521 211.681,313.462 212.865,312.997 215.617 C 312.669 217.559,311.086 219.024,308.659 219.630 C 306.413 220.192,305.436 221.430,305.013 224.252 C 304.721 226.200,302.302 229.200,301.024 229.200 C 299.778 229.200,298.158 230.711,297.604 232.388 C 296.772 234.909,294.243 237.012,291.624 237.359 C 289.047 237.701,287.200 239.265,287.200 241.107 C 287.200 243.808,282.596 245.025,270.186 245.603 C 265.999 245.798,261.769 246.138,260.786 246.359 C 253.560 247.984,237.385 244.999,235.913 241.769 C 235.670 241.236,235.365 240.800,235.235 240.800 C 235.105 240.800,234.131 239.993,233.072 239.006 C 231.021 237.096,229.487 236.232,226.719 235.427 C 225.162 234.975,224.877 234.683,223.695 232.325 C 221.699 228.344,219.835 227.461,213.641 227.561 C 206.264 227.679,204.352 228.390,203.583 231.298 C 202.514 235.340,201.102 236.883,198.042 237.356 C 195.512 237.747,194.085 238.910,193.556 241.010 C 192.810 243.970,188.495 245.185,177.800 245.447 C 174.500 245.528,170.361 245.847,168.602 246.156 C 162.452 247.238,151.205 246.382,144.234 244.302 L 139.869 243.000 139.234 241.200 C 138.018 237.748,136.719 236.640,133.280 236.119 C 131.321 235.822,130.165 234.704,129.385 232.354 C 128.628 230.075,127.046 228.608,124.929 228.219 C 123.065 227.878,120.938 225.940,120.566 224.245 C 120.024 221.777,118.316 220.400,115.797 220.400 C 114.252 220.400,111.200 217.352,111.200 215.810 C 111.200 213.488,110.308 212.909,104.400 211.400 C 97.608 209.664,98.259 209.619,94.114 212.124 C 89.358 215.000,89.346 215.003,87.547 213.813 C 85.780 212.643,82.801 209.038,82.798 208.064 C 82.794 206.873,81.983 204.440,81.394 203.851 C 79.207 201.665,77.613 193.107,77.560 183.280 C 77.520 175.741,77.333 173.933,76.600 173.977 C 72.885 174.201,72.020 173.473,70.175 168.573 C 69.132 165.800,69.287 164.592,71.288 159.900 C 72.275 157.587,72.174 157.591,78.200 159.620 " stroke="none" fill="#c2c4d1" fill-rule="evenodd"></path></g></svg>